<?xml version="1.0" encoding="utf-8"?>
<!-- Generator: Adobe Illustrator 19.2.1, SVG Export Plug-In . SVG Version: 6.00 Build 0)  -->
<svg version="1.1" id="layer" xmlns="http://www.w3.org/2000/svg" xmlns:xlink="http://www.w3.org/1999/xlink" x="0px" y="0px"
	 viewBox="0 0 652 652" style="enable-background:new 0 0 652 652;" xml:space="preserve">
<style type="text/css">
	.st0{fill-rule:evenodd;clip-rule:evenodd;}
</style>
<g>
	<path class="st0" d="M51.2,293.5v12.9h24.8v44.3h16v-44.3h24.9v-13.2H51.3C51.2,293.2,51.2,293.3,51.2,293.5"/>
	<path class="st0" d="M178.1,296.2c-4-3.8-12.6-3.1-20.2-3.1h-11.6c-8.6,0-17.8-0.9-22.2,2.9c-3.4,2.9-3.5,8.4-3.5,15
		c0,5.2,0.3,9.7,2.1,12.6c3.3,5.2,12,4.5,20.5,4.5c8.2,0,16.8-0.1,24.9,0.1v9.5c-12-0.1-24.3,0.1-36.1-0.1c-0.1-2.4,0.1-5.1-0.1-7.3
		c-4.4,1.1-8.9,2.1-13.5,3c-0.1,6.1,0.3,11.2,3.2,14.1c2.5,2.5,7.2,3.2,12.5,3.2h31.3c5.5,0,10.2-0.4,13.1-2.6
		c3.8-2.8,3.8-8.5,3.8-15c0-6.2,0-11.8-2.7-15c-3.7-4.5-13.4-3.7-21.6-3.7c-8,0-16.1,0.1-23.7-0.1v-8.2h33.5c0,2.2,0.3,4.1,0.3,6.3
		c4.7-0.8,9-2,13.6-2.9C181.6,303.8,180.9,298.9,178.1,296.2"/>
	<path class="st0" d="M188.2,293.5v57.1h56.6v-13.1c-13.7-0.1-27.6,0.1-41.1-0.1v-44.3h-15.4C188.2,293.2,188.2,293.3,188.2,293.5"
		/>
	<path class="st0" d="M275.5,317c-0.8-18.2-3-34-6.9-48.7c-1-3.7-2.2-7.4-3.1-10.8c-1-3.7-2.1-7.2-3.6-10.3
		c-1.7-3.4-3.9-5.4-7.3-6.6c-3.3-1.2-7.2-2-11.1-2.9c-15-3.3-30.6-6.3-47.5-8.2c-8.4-0.9-16.9-1.6-25.6-2.2
		c-8.7-0.6-18.2-1.1-27.3-0.6c-9.4,0.4-18.1,0.6-26.8,1.2c-25.8,1.9-49.8,6.1-71.8,11.7c-3.9,1-6.8,2.1-9,4.9
		c-1.9,2.5-3.1,6.1-4.2,9.7c-4.4,14.2-7.9,29.3-9.8,45.9c-1,8.7-0.9,17-0.9,27c0,4.7,0,9.2,0.3,13.6c1.2,17.3,4.3,32.9,9.1,46.5
		c1.2,3.6,2.3,7,3.9,10c1.7,3.1,4.5,4.4,8.3,5.6c18.1,5.3,36.9,9.1,58.1,11.6c20.5,2.4,44.2,3.2,66.5,2.3c31-1.3,59-5.9,84.2-13.2
		c3.7-1.1,7.3-1.8,9.6-4.3c2.1-2.3,3.2-6.1,4.4-9.5C272.3,369.7,276.6,344.5,275.5,317 M254,373.2c-1.5,5.4-2.9,10.5-4.8,14.9
		c-14.6,4.2-30.5,7.5-47.5,10c-8.4,1.2-17.2,1.8-26.2,2.6c-9,0.8-18.3,1-27.6,1c-37.6,0-71.8-5.2-101.1-13.6c0-0.1-0.1-0.1-0.1-0.2
		c-3.6-9.1-6.1-19.5-8.1-30.7c-5.1-28.6-2.4-62.5,4.4-87.1c1.4-5.3,2.9-10.5,4.6-15.1c25.6-6.6,53.7-10.9,84.5-12.4
		c4.4-0.2,8.9-0.2,13.4-0.4c9-0.4,19.4,0.4,28.1,0.9c26.7,1.7,53,6.3,74.7,11.9c6.3,18.8,11.2,40.8,11.6,66.1
		C260.3,339.6,258.1,358.1,254,373.2"/>
	<path class="st0" d="M51.3,293.2h65.6v13.2H92v44.3h-16v-44.3H51.2v-12.9C51.2,293.3,51.2,293.2,51.3,293.2"/>
	<path class="st0" d="M181.5,309.3c-4.6,0.9-8.9,2-13.6,2.9c0-2.2-0.3-4.1-0.3-6.3h-33.5v8.2c7.6,0.2,15.7,0.1,23.7,0.1
		c8.2,0,17.9-0.8,21.6,3.7c2.7,3.3,2.7,8.8,2.7,15c0,6.5-0.1,12.2-3.8,15c-2.9,2.2-7.5,2.6-13.1,2.6h-31.3c-5.3,0-10-0.7-12.5-3.2
		c-2.9-2.9-3.3-8-3.2-14.1c4.6-0.9,9.1-1.9,13.5-3c0.2,2.2,0,4.9,0.1,7.3c11.8,0.2,24.1,0,36.1,0.1v-9.5c-8.1-0.2-16.7-0.1-24.9-0.1
		c-8.5,0-17.2,0.7-20.5-4.5c-1.8-2.9-2.1-7.3-2.1-12.6c0-6.6,0.1-12.1,3.5-15c4.4-3.8,13.7-2.9,22.2-2.9h11.6
		c7.6,0,16.2-0.7,20.2,3.1C180.9,298.9,181.6,303.8,181.5,309.3"/>
	<path class="st0" d="M188.3,293.2h15.4v44.3c13.5,0.2,27.4,0,41.1,0.1v13.1h-56.6v-57.1C188.2,293.3,188.2,293.2,188.3,293.2"/>
	<path d="M346,317.3c-0.9,2.2-2.1,4.2-3.8,5.8c-1.7,1.7-3.7,3-6.1,3.9c-2.4,1-5.1,1.4-8.1,1.4h-11.3v22h-11.4v-58.5H328
		c3,0,5.7,0.5,8.1,1.4c2.4,1,4.4,2.3,6.1,3.9c1.7,1.7,2.9,3.6,3.8,5.8c0.9,2.2,1.3,4.6,1.3,7C347.3,312.8,346.9,315.1,346,317.3
		 M333.7,304.5c-1.5-1.5-3.6-2.2-6.2-2.2h-10.7v16h10.7c2.6,0,4.7-0.7,6.2-2.2c1.5-1.4,2.3-3.4,2.3-5.8
		C335.9,307.9,335.2,305.9,333.7,304.5"/>
	<path d="M377.8,319.4c-0.8-0.8-1.6-1.4-2.5-1.9c-0.8-0.4-1.9-0.7-3.2-0.7c-0.8,0-1.6,0.2-2.5,0.5c-0.8,0.3-1.6,0.8-2.2,1.4
		c-0.7,0.7-1.2,1.5-1.6,2.5c-0.4,1-0.6,2.2-0.6,3.5v25.8h-10.7v-42.8H365v4.1c1-1.3,2.5-2.3,4.4-3.2c1.9-0.9,4-1.4,6.3-1.4
		c2.1,0,3.9,0.3,5.5,0.9c1.6,0.6,3.1,1.6,4.6,3.1L377.8,319.4z"/>
	<path d="M423.8,338.8c-0.7,2.6-1.9,4.9-3.9,6.9c-1.3,1.4-3.1,2.7-5.3,3.7c-2.2,1-4.9,1.6-8,1.6s-5.8-0.5-8-1.6
		c-2.2-1-3.9-2.3-5.2-3.7c-1.9-2-3.2-4.3-3.9-6.9c-0.7-2.6-1-5.8-1-9.7c0-3.9,0.3-7.1,1-9.7c0.7-2.6,1.9-4.9,3.9-6.9
		c1.3-1.4,3-2.7,5.2-3.7c2.2-1,4.8-1.6,8-1.6s5.9,0.5,8,1.6c2.2,1,3.9,2.3,5.3,3.7c1.9,2,3.2,4.3,3.9,6.9c0.7,2.6,1,5.8,1,9.7
		C424.8,333,424.5,336.2,423.8,338.8 M413.6,323.1c-0.3-1.8-0.9-3.2-2-4.3c-1.2-1.3-2.9-1.9-5-1.9c-2,0-3.6,0.6-4.9,1.9
		c-1.1,1.1-1.8,2.5-2,4.3c-0.3,1.8-0.4,3.8-0.4,6c0,2.2,0.1,4.3,0.4,6.1c0.3,1.8,0.9,3.3,2,4.4c1.2,1.3,2.9,1.9,4.9,1.9
		c2.1,0,3.7-0.6,5-1.9c1.1-1.1,1.8-2.5,2-4.4c0.3-1.8,0.4-3.8,0.4-6.1C414,326.9,413.9,324.9,413.6,323.1"/>
	<path d="M456.9,350.5v-4c-1.5,1.6-3,2.8-4.7,3.5c-1.6,0.7-3.6,1-5.9,1c-2.1,0-4-0.3-5.9-1c-1.9-0.7-3.4-1.6-4.6-2.8
		c-1.1-1-1.9-2.3-2.5-3.7c-0.6-1.4-1-2.9-1.3-4.5s-0.4-3.2-0.5-4.9c-0.1-1.7-0.1-3.3-0.1-4.9c0-1.6,0-3.2,0.1-4.9
		c0.1-1.7,0.2-3.3,0.5-4.9c0.3-1.6,0.7-3.1,1.3-4.5c0.6-1.4,1.4-2.6,2.5-3.7c1.2-1.2,2.7-2.1,4.6-2.8c1.8-0.7,3.8-1,5.9-1
		c2.2,0,4.1,0.3,5.8,0.9c1.7,0.6,3.2,1.7,4.6,3.3l-0.1-19.5h10.8v58.5H456.9z M456.4,324.3c-0.2-1.5-0.5-2.8-1-3.9
		c-0.5-1.1-1.2-2-2.2-2.6c-0.9-0.6-2.2-0.9-3.8-0.9c-1.6,0-2.8,0.3-3.8,0.9c-0.9,0.6-1.7,1.5-2.2,2.6c-0.5,1.1-0.8,2.4-1,3.9
		c-0.2,1.5-0.2,3.1-0.2,4.8c0,1.8,0.1,3.4,0.2,4.9c0.2,1.5,0.5,2.8,1,3.9c0.5,1.1,1.2,2,2.2,2.6c0.9,0.6,2.2,0.9,3.8,0.9
		c1.6,0,2.8-0.3,3.8-0.9c0.9-0.6,1.7-1.5,2.2-2.6c0.5-1.1,0.9-2.4,1-3.9c0.2-1.5,0.2-3.1,0.2-4.9
		C456.6,327.4,456.6,325.7,456.4,324.3"/>
	<path d="M502.4,350.5v-3.9c-1.4,1.5-3.1,2.6-4.9,3.3c-1.9,0.7-3.8,1.1-5.7,1.1c-2.1,0-4-0.3-5.7-1c-1.7-0.7-3.1-1.6-4.3-2.8
		c-1.7-1.8-2.9-3.6-3.5-5.6c-0.6-2-0.9-4.2-0.9-6.5v-27.3h10.8v25.9c0,1.5,0.2,2.7,0.6,3.7c0.4,1,0.9,1.8,1.6,2.4
		c0.7,0.6,1.4,1,2.3,1.3c0.8,0.3,1.7,0.4,2.5,0.4c0.8,0,1.6-0.1,2.5-0.4c0.8-0.3,1.6-0.7,2.3-1.3c0.7-0.6,1.2-1.4,1.7-2.4
		c0.4-1,0.6-2.2,0.6-3.7v-25.9h10.8v42.8H502.4z"/>
	<path d="M548.2,349.6c-2.3,1-4.9,1.4-7.8,1.4c-2.1,0-4.3-0.3-6.6-1c-2.3-0.7-4.3-1.8-6.2-3.5c-1.8-1.7-3.4-3.9-4.6-6.7
		c-1.2-2.8-1.8-6.4-1.8-10.7c0-4.3,0.6-7.9,1.8-10.7c1.2-2.8,2.7-5,4.6-6.7c1.9-1.6,3.9-2.8,6.2-3.4c2.3-0.7,4.5-1,6.6-1
		c3,0,5.6,0.5,7.8,1.4c2.3,0.9,4.4,2.4,6.3,4.4l-7.2,7.2c-1.1-1.2-2.2-2.1-3.2-2.6c-1-0.5-2.3-0.8-3.7-0.8c-2.5,0-4.5,0.9-6.1,2.8
		c-0.8,1-1.4,2.3-1.8,3.8c-0.4,1.5-0.6,3.4-0.6,5.7c0,4.4,0.8,7.6,2.4,9.5c1.5,1.9,3.6,2.8,6.1,2.8c1.4,0,2.7-0.3,3.7-0.8
		c1-0.5,2.1-1.4,3.2-2.6l7.2,7.1C552.6,347.2,550.5,348.6,548.2,349.6"/>
	<path d="M574.6,350.5c-2.2,0-4.1-0.4-5.7-1.1c-1.6-0.7-2.9-1.6-3.9-2.8c-1-1.1-1.8-2.5-2.2-3.9c-0.5-1.4-0.7-2.9-0.7-4.5v-21.2
		h-4.5V309h4.5v-12.7h10.8V309h7.6v8.1h-7.6v20.5c0,2.6,1.2,3.9,3.7,3.9h3.9v9H574.6z"/>
	<path d="M619.3,343.2c-0.9,1.8-2.2,3.2-3.9,4.4c-1.6,1.1-3.6,2-5.8,2.6c-2.2,0.6-4.6,0.9-7.1,0.9c-1.7,0-3.3-0.1-4.9-0.2
		c-1.6-0.1-3.1-0.4-4.7-0.9c-1.5-0.4-3-1.1-4.4-1.8c-1.4-0.8-2.8-1.9-4.2-3.2l7-7c1.7,1.8,3.7,2.9,5.8,3.3c2.1,0.5,4,0.7,5.6,0.7
		c0.9,0,1.8-0.1,2.8-0.2c0.9-0.2,1.7-0.4,2.4-0.8c0.7-0.4,1.3-0.8,1.7-1.4c0.4-0.5,0.7-1.2,0.7-2.1c0-1.1-0.3-2-1-2.7
		c-0.7-0.7-1.8-1.1-3.5-1.3l-6.7-0.7c-3.9-0.4-6.9-1.5-9.2-3.3c-2.2-1.8-3.3-4.7-3.3-8.7c0-2.2,0.5-4.1,1.4-5.8
		c0.9-1.7,2.1-3.1,3.6-4.3c1.5-1.1,3.3-2,5.3-2.6c2-0.6,4.1-0.9,6.3-0.9c3.3,0,6.4,0.4,9.1,1.1c2.7,0.7,5.1,2,7.2,3.9l-6.6,6.6
		c-1.3-1.1-2.8-1.8-4.5-2.3c-1.8-0.4-3.6-0.6-5.4-0.6c-2.1,0-3.7,0.4-4.6,1.2c-1,0.8-1.4,1.8-1.4,2.9c0,0.4,0.1,0.8,0.2,1.2
		c0.1,0.4,0.3,0.8,0.7,1.1c0.3,0.3,0.8,0.6,1.4,0.9c0.6,0.3,1.3,0.4,2.3,0.5l6.7,0.7c4.3,0.4,7.5,1.7,9.6,3.9c2.1,2.2,3.2,5,3.2,8.7
		C620.7,339.4,620.2,341.5,619.3,343.2"/>
</g>
</svg>
