<?xml version="1.0" encoding="utf-8"?>
<!-- Generator: Adobe Illustrator 19.2.1, SVG Export Plug-In . SVG Version: 6.00 Build 0)  -->
<svg version="1.1" id="layer" xmlns="http://www.w3.org/2000/svg" xmlns:xlink="http://www.w3.org/1999/xlink" x="0px" y="0px"
	 viewBox="0 0 652 652" style="enable-background:new 0 0 652 652;" xml:space="preserve">
<style type="text/css">
	.st0{fill-rule:evenodd;clip-rule:evenodd;fill:#0B3354;}
	.st1{fill:#0B3354;}
</style>
<g>
	<path class="st0" d="M67.7,385.5l25.8-79.3l0.3-0.6h0.6l0.6-0.3h0.3l0.6-0.6h0.9l0.3-0.3l72.5,21.3l2.4-0.3l0.9-1.5l32.2-106.2
		c-19.9-16.7-45.9-26.6-72.3-26.6c-61.1,0-110.8,49.7-110.8,110.9c0,29.8,12.6,59.4,33.6,79.6l38.3-120.8l2.3-2l3.2,0.9l72.6,20.2
		l8.5-25.2L100.8,232l-0.9,0.3h-1.8l-0.6,0.6h-0.9c-1.6,0.6-0.7,0.6-2.3,1.2l-1.8,5.6l-40.6,131c-15.5-18.4-24.6-43.3-24.6-67.9
		c0-57.9,47.4-105.3,105.3-105.3c23.4,0,46.8,8.2,64.9,22.5l-23.7,76.6l-1.2,0.6v0.3l-0.3,0.6l-0.6,0.3l-0.3,0.6H171l-0.3,0.3h-2.3
		V299L99,279.6l-2.1-0.6v0.6h-0.3l-0.6,0.3h-0.3v0.6h-0.6L61.3,387c19.3,16.4,45.3,26,71.4,26c61.1,0,110.9-49.7,110.9-110.9
		c0-29.6-12.6-58.8-33.3-79.3L173.9,344l-1.2,1.2l-1.8,0.6l-76.6-21.9l-7.9,22.8l81.9,24.9l3.5-0.6l1.4-1.8l39.8-134.3
		c15.8,18.4,24.9,43.3,24.9,67.9c0,57.9-47.4,105.3-105.3,105.3C109.2,408.1,85.8,399.9,67.7,385.5"/>
	<path class="st0" d="M299.9,214.6h25.7l51.4,180h-24.8l-14.7-51h-50.5l-14.7,51h-25.7L299.9,214.6 M329.3,317h-34l18.4-57.8
		L329.3,317z"/>
	<polyline class="st0" points="488.6,214 488.6,241.4 414.9,241.5 415.3,288.7 471,288.6 471,315.1 416,315.1 416.3,367.4 
		487.5,367.4 487.6,394.2 389.8,394.6 389.8,214 488.6,214 	"/>
	<rect x="20.2" y="432.1" class="st1" width="598.8" height="22"/>
	<path class="st0" d="M587.5,385l17.5,21.9l11.4-20.2l-14.3-17.6c11.1-16.7,18.1-40.7,18.1-64.3c0-50-26.9-90.7-59.7-90.7
		c-32.8,0-59.7,40.7-59.7,90.7c0,49.4,26.9,90.1,59.7,90.1C569.6,394.9,579.6,391.4,587.5,385 M586.3,348.1l-12.9-15.8l-10.8,21.3
		l9.7,12.3c-3.8,2.6-7.9,4.1-11.7,4.1c-18.7,0-34.2-29-34.2-64.9c0-35.7,15.5-64.6,34.2-64.6c18.7,0,34.2,29,34.2,64.6
		C594.8,320.9,591.9,336.4,586.3,348.1z"/>
</g>
</svg>
