<?xml version="1.0" encoding="UTF-8"?>
<!-- Generator: Adobe Illustrator 22.0.1, SVG Export Plug-In . SVG Version: 6.00 Build 0)  -->
<svg version="1.1" id="Ebene_1" xmlns="http://www.w3.org/2000/svg" xmlns:xlink="http://www.w3.org/1999/xlink" x="0px" y="0px" viewBox="0 0 193 97.8" style="enable-background:new 0 0 193 97.8;" xml:space="preserve">
<style type="text/css">
	.st0{fill:#FCFCFC;}
	.st1{fill:#E73339;}
</style>
<g>
	<g>
		<path class="st0" d="M95.5,31.6h5.6l10.2,19.9H106l-2.3-4.5H92.2l-2.1,4.5h-4.8L95.5,31.6z M102.2,43.7L98.1,35L94,43.7H102.2z"/>
		<polygon class="st0" points="113.8,31.6 113.8,51.5 130.1,51.5 130.1,48.2 118.3,48.2 118.3,42.8 128.2,42.8 128.2,39.5     118.3,39.5 118.3,34.8 138,34.8 138,51.5 142.4,51.5 142.4,34.8 151,34.8 152.7,31.6   "/>
		<path class="st0" d="M157.7,31.6h5.6l10.2,19.9h-5.3l-2.3-4.5h-11.5l-2.1,4.5h-4.8L157.7,31.6z M164.3,43.7l-4.1-8.7l-4.1,8.7    H164.3z"/>
	</g>
	<polygon class="st1" points="79.7,55 67,22.3 54.2,54.9 3.2,63.1 67,73.3 130.7,63.1  "/>
	<g>
		<path class="st1" d="M9.7,90.5l3-8.3h2.1l2.9,8.3h-1.8l-0.6-1.8H12l-0.6,1.8H9.7z M14.9,87.3l-1.1-3.5l0,0l-1.2,3.5H14.9z"/>
		<path class="st1" d="M31.3,82.2v5.2c0,2.2-1.6,3.3-3.6,3.3s-3.6-1.1-3.6-3.3v-5.2h1.8v4.5c0,1.4,0.1,2.7,1.8,2.7    c1.7,0,1.8-1.3,1.8-2.7v-4.5H31.3z"/>
		<path class="st1" d="M38.7,82.2h2.8c2.6,0,4.2,1.3,4.2,4.2c0,2.9-1.6,4.2-4.2,4.2h-2.8V82.2z M40.5,89.1h0.9    c2.1,0,2.4-1.4,2.4-2.8c0-1.3-0.3-2.8-2.4-2.8h-0.9V89.1z"/>
		<path class="st1" d="M54.6,90.5h-1.8v-8.3h1.8V90.5z"/>
		<path class="st1" d="M61.6,86.3c0-2.5,1.2-4.3,4-4.3s4,1.9,4,4.3c0,2.5-1.2,4.3-4,4.3S61.6,88.8,61.6,86.3z M63.5,86.3    c0,1.4,0.3,3,2.1,3c1.8,0,2.1-1.6,2.1-3s-0.3-3-2.1-3S63.5,84.9,63.5,86.3z"/>
		<path class="st1" d="M90,84.5c-0.1-0.8-0.5-1.3-1.4-1.3c-0.7,0-1.3,0.3-1.3,1.1c0,0.9,0.8,1,1.5,1.2c1.3,0.3,3.1,0.7,3.1,2.3    c0,2.1-1.8,2.8-3.6,2.8c-1.9,0-3.2-0.7-3.2-2.8h1.8c-0.1,0.9,0.5,1.5,1.4,1.5c0.7,0,1.7-0.2,1.7-1.1c0-1-1.2-1-1.9-1.2    c-1.2-0.3-2.8-0.8-2.8-2.3c0-1.9,1.8-2.7,3.5-2.7c1.6,0,2.9,0.9,2.9,2.5H90z"/>
		<path class="st1" d="M100.8,87.8L98,82.2h2.1l1.7,3.8l1.7-3.8h1.8l-2.8,5.6v2.7h-1.8v-2.7H100.8z"/>
		<path class="st1" d="M116.2,84.5c-0.1-0.8-0.5-1.3-1.4-1.3c-0.7,0-1.3,0.3-1.3,1.1c0,0.9,0.8,1,1.5,1.2c1.3,0.3,3.1,0.7,3.1,2.3    c0,2.1-1.8,2.8-3.6,2.8c-1.9,0-3.2-0.7-3.2-2.8h1.8c-0.1,0.9,0.5,1.5,1.4,1.5c0.7,0,1.7-0.2,1.7-1.1c0-1-1.2-1-1.9-1.2    c-1.2-0.3-2.8-0.8-2.8-2.3c0-1.9,1.8-2.7,3.5-2.7c1.6,0,2.9,0.9,2.9,2.5H116.2z"/>
		<path class="st1" d="M124.6,82.2h6.7v1.4h-2.5v6.9H127v-6.9h-2.5v-1.4H124.6z"/>
		<path class="st1" d="M137.9,82.2h5.6v1.4h-3.8v1.9h3.5v1.4h-3.5v2.2h3.9v1.4h-5.7V82.2z"/>
		<path class="st1" d="M156.1,90.5h-1.5l-2.2-7.1l0,0v7.1h-1.7v-8.3h2.9l1.7,6l0,0l1.9-6h2.8v8.3h-1.5v-7.1l0,0L156.1,90.5z"/>
		<path class="st1" d="M172,84.5c-0.1-0.8-0.5-1.3-1.4-1.3c-0.7,0-1.3,0.3-1.3,1.1c0,0.9,0.8,1,1.5,1.2c1.3,0.3,3.1,0.7,3.1,2.3    c0,2.1-1.8,2.8-3.6,2.8c-1.9,0-3.2-0.7-3.2-2.8h1.8c-0.1,0.9,0.5,1.5,1.4,1.5c0.7,0,1.7-0.2,1.7-1.1c0-1-1.2-1-1.9-1.2    c-1.2-0.3-2.8-0.8-2.8-2.3c0-1.9,1.8-2.7,3.5-2.7c1.6,0,2.9,0.9,2.9,2.5H172z"/>
	</g>
	<path class="st1" d="M112.3,25.5C101.9,11.9,85.4,3,66.9,3C39.4,3,16.5,22.4,11,48.3l-0.1,0.4l2.7-0.4v-0.2   c2.3-10.2,7.5-19.4,14.6-26.5c9.9-9.9,23.5-16,38.6-16s28.8,6.1,38.6,16c1.4,1.4,2.6,2.8,3.8,4.3l0.1,0.1h3.2L112.3,25.5z"/>
</g>
<g>
	<path class="st1" d="M182.4,82.3c0-1.8,1.4-3.2,3.2-3.2s3.2,1.4,3.2,3.2c0,1.8-1.4,3.2-3.2,3.2C183.8,85.5,182.4,84,182.4,82.3z    M188.2,82.3c0-1.4-1.2-2.6-2.6-2.6c-1.5,0-2.6,1.2-2.6,2.6c0,1.5,1.2,2.6,2.6,2.6S188.2,83.7,188.2,82.3z M184.9,82.5v1.6h-0.6   v-3.8h1.2c0.7,0,1.4,0.2,1.4,1c0,0.4-0.3,0.8-0.8,0.9l0,0c0.5,0.1,0.6,0.3,0.6,0.7c0.1,0.4,0.1,0.7,0.2,1.1h-0.7   c0-0.2-0.1-0.5-0.1-0.7c0-0.3,0-0.6-0.2-0.8c-0.1-0.2-0.3-0.1-0.5-0.2h-0.5V82.5z M185.5,81.9c0.6,0,0.7-0.2,0.7-0.5   s-0.1-0.4-0.6-0.4h-0.7v1L185.5,81.9L185.5,81.9z"/>
</g>
</svg>