<?xml version="1.0" encoding="utf-8"?>
<!-- Generator: Adobe Illustrator 19.2.1, SVG Export Plug-In . SVG Version: 6.00 Build 0)  -->
<svg version="1.1" id="layer" xmlns="http://www.w3.org/2000/svg" xmlns:xlink="http://www.w3.org/1999/xlink" x="0px" y="0px"
	 viewBox="0 0 652 652" style="enable-background:new 0 0 652 652;" xml:space="preserve">
<style type="text/css">
	.st0{fill:#0076BD;}
	.st1{fill:none;stroke:#67B2E8;stroke-width:1.0817;}
</style>
<g>
	<path class="st0" d="M559.8,323.7c0.1,0.1,0.1,0.2-0.1,0.3c0,0-0.1,0-0.1,0C559.4,323.8,559.6,323.6,559.8,323.7"/>
	<path class="st0" d="M562.5,321.9c0.1,0.1,0.1,0.2-0.1,0.3c0,0-0.1,0-0.1,0C562.1,322,562.3,321.8,562.5,321.9"/>
	<path class="st0" d="M565.1,320.1c0.1,0.1,0,0.2-0.1,0.3c0,0-0.1,0-0.1,0C564.8,320.2,565,320,565.1,320.1"/>
	<path class="st0" d="M567.8,318.3c0.1,0.1,0,0.2-0.1,0.3c0,0-0.1,0-0.1,0C567.4,318.4,567.7,318.2,567.8,318.3"/>
	<path class="st0" d="M570.5,316.5c0.1,0.1,0,0.2-0.1,0.2c0,0-0.1,0-0.1,0C570.1,316.6,570.4,316.4,570.5,316.5"/>
	<path class="st0" d="M538.2,338.2c-0.1-0.1,0.1-0.1,0.2-0.1C538.7,338.4,538.2,338.6,538.2,338.2"/>
	<path class="st0" d="M540.8,336.4c-0.1-0.1,0.1-0.1,0.2-0.1C541.3,336.6,540.8,336.8,540.8,336.4"/>
	<path class="st0" d="M543.5,334.6c-0.1-0.1,0.1-0.1,0.2-0.1C544,334.8,543.5,334.9,543.5,334.6"/>
	<path class="st0" d="M546.2,332.8c-0.1-0.1,0.1-0.1,0.2-0.1C546.7,333,546.2,333.1,546.2,332.8"/>
	<path class="st0" d="M548.9,331c-0.1-0.1,0.1-0.1,0.2-0.1C549.3,331.2,548.8,331.3,548.9,331"/>
	<path class="st0" d="M551.5,329.2c-0.1-0.1,0.1-0.1,0.2-0.1C552,329.4,551.5,329.5,551.5,329.2"/>
	<path class="st0" d="M554.2,327.4c-0.1-0.1,0.1-0.1,0.2-0.1C554.7,327.5,554.2,327.7,554.2,327.4"/>
	<path class="st0" d="M556.9,325.6c0-0.1,0.1-0.1,0.2-0.1C557.3,325.7,556.9,325.9,556.9,325.6"/>
	<path class="st0" d="M573,314.8c0-0.1,0.1-0.1,0.2-0.1C573.3,314.8,572.9,315,573,314.8"/>
	<path class="st0" d="M575.7,313c0-0.1,0.1-0.1,0.2-0.1C576,313,575.6,313.2,575.7,313"/>
	<path class="st0" d="M578.3,311.2c0,0,0.1-0.1,0.2-0.1C578.7,311.2,578.2,311.4,578.3,311.2"/>
	<path class="st0" d="M581,309.4c0,0,0.1-0.1,0.2-0.1C581.3,309.4,580.9,309.6,581,309.4"/>
	<path class="st0" d="M583.7,307.6c0,0,0.1-0.1,0.2-0.1C584,307.5,583.6,307.8,583.7,307.6"/>
	<path class="st0" d="M586.4,305.8c0,0,0.1-0.1,0.2-0.1C586.7,305.7,586.3,305.9,586.4,305.8"/>
	<path class="st0" d="M589.1,304c0,0,0.1-0.1,0.2-0.1C589.4,303.9,588.9,304.1,589.1,304"/>
	<path class="st0" d="M591.7,302.2c0,0,0.1-0.1,0.2-0.1C592,302.1,591.6,302.3,591.7,302.2"/>
	<path class="st0" d="M594.4,300.4c0,0,0.1-0.1,0.2-0.1C594.7,300.3,594.3,300.5,594.4,300.4"/>
	<path class="st0" d="M597.1,298.6c0,0,0.1-0.1,0.2-0.1C597.3,298.4,596.9,298.7,597.1,298.6"/>
	<path class="st0" d="M599.8,296.8l0.2-0.1C600,296.6,599.6,296.9,599.8,296.8"/>
	<path class="st0" d="M602.4,295l0.2-0.1C602.7,294.8,602.3,295.1,602.4,295"/>
	<path class="st0" d="M605.1,293.2l0.2-0.1C605.4,293,605,293.3,605.1,293.2"/>
	<path class="st0" d="M607.8,291.4l0.2-0.1C608,291.2,607.6,291.4,607.8,291.4"/>
	<path class="st0" d="M610.5,289.6l0.2-0.1C610.7,289.3,610.3,289.6,610.5,289.6"/>
	<path class="st0" d="M613.1,287.8l0.2-0.1C613.3,287.5,613,287.8,613.1,287.8"/>
	<path class="st0" d="M615.8,286c0,0,0.1-0.1,0.2-0.1C616,285.7,615.6,286,615.8,286"/>
	<path class="st0" d="M561.5,326.5c0.1-0.2,0.3-0.2,0.4,0C562.4,326.9,561.1,327,561.5,326.5"/>
	<path class="st0" d="M564,324.5c0.1-0.2,0.3-0.2,0.4-0.1C564.9,324.9,563.7,325,564,324.5"/>
	<path class="st0" d="M566.6,322.5c0.1-0.1,0.2-0.2,0.4-0.1C567.4,322.9,566.2,323.1,566.6,322.5"/>
	<path class="st0" d="M569.2,320.5c0.1-0.1,0.2-0.2,0.4-0.1C570,320.9,568.8,321.1,569.2,320.5"/>
	<path class="st0" d="M571.7,318.6c0.1-0.1,0.3-0.2,0.4-0.1C572.5,318.9,571.4,319.1,571.7,318.6"/>
	<path class="st0" d="M553.8,332.4c0.1-0.2,0.2-0.2,0.4,0C554.7,332.9,553.6,332.9,553.8,332.4"/>
	<path class="st0" d="M556.4,330.4c0.1-0.2,0.2-0.2,0.4,0C557.2,330.9,556.2,330.9,556.4,330.4"/>
	<path class="st0" d="M558.9,328.5c0.6-0.7,0.5,0.9,0,0.2C558.9,328.6,558.9,328.6,558.9,328.5"/>
	<path class="st0" d="M574.3,316.6c0.7-0.6,0.2,0.6,0,0.2C574.2,316.7,574.2,316.7,574.3,316.6"/>
	<path class="st0" d="M576.9,314.6c0.1-0.1,0.2-0.2,0.3-0.1C577.4,314.8,576.6,315,576.9,314.6"/>
	<path class="st0" d="M579.4,312.7c0.1-0.1,0.2-0.2,0.3-0.1C579.9,312.8,579.1,313.1,579.4,312.7"/>
	<path class="st0" d="M582,310.7c0.1-0.1,0.2-0.2,0.3-0.1C582.4,310.8,581.7,311.1,582,310.7"/>
	<path class="st0" d="M543.9,340.2c0.3,0.3,0.3,0.5,0.1,0.6C543.5,340.7,543.5,340,543.9,340.2"/>
	<path class="st0" d="M546.4,338.2c0.3,0.3,0.3,0.4,0,0.5C546.1,338.7,546.1,338.1,546.4,338.2"/>
	<path class="st0" d="M549,336.3c0.2,0.2,0.3,0.4,0,0.5C548.7,336.7,548.6,336.1,549,336.3"/>
	<path class="st0" d="M551.6,334.3c0.2,0.2,0.2,0.4,0,0.5C551.2,334.7,551.2,334.1,551.6,334.3"/>
	<path class="st0" d="M584.8,308.6c0.1,0.1,0.1,0.2-0.2,0.3C584.3,309,584.5,308.6,584.8,308.6"/>
	<path class="st0" d="M587.3,306.6c0.1,0,0,0.1-0.2,0.3C586.9,307,587.1,306.7,587.3,306.6"/>
	<path class="st0" d="M589.9,304.7c0.1,0,0,0.1-0.2,0.3C589.5,305,589.7,304.7,589.9,304.7"/>
	<path class="st0" d="M592.4,302.7c0.1,0,0,0.1-0.2,0.2C592,303,592.2,302.7,592.4,302.7"/>
	<path class="st0" d="M595,300.7c0.1,0,0,0.1-0.2,0.2C594.5,301.1,594.8,300.8,595,300.7"/>
	<path class="st0" d="M618,282.9c0-0.1-0.1-0.1-0.3,0.1C617.5,283.2,617.9,283.1,618,282.9"/>
	<path class="st0" d="M541.3,342.2l0.2,0.3c0,0.1-0.1,0.2-0.2,0.2C541.1,342.6,541,342.1,541.3,342.2"/>
	<path class="st0" d="M597.5,298.8L597.5,298.8c0,0-0.1,0.1-0.2,0.2C597.2,299,597.3,298.9,597.5,298.8"/>
	<path class="st0" d="M600.1,296.8L600.1,296.8c0,0-0.1,0.1-0.2,0.2C599.7,297,599.9,296.9,600.1,296.8"/>
	<path class="st0" d="M602.6,294.8L602.6,294.8c0,0-0.1,0.1-0.2,0.2C602.3,295.1,602.5,294.9,602.6,294.8"/>
	<path class="st0" d="M605.2,292.8L605.2,292.8c-0.1,0-0.1,0.1-0.2,0.1C604.8,293.1,605,293,605.2,292.8"/>
	<path class="st0" d="M607.7,290.8L607.7,290.8c-0.1,0-0.2,0.1-0.2,0.1C607.4,291.1,607.6,291,607.7,290.8"/>
	<path class="st0" d="M610.3,288.9L610.3,288.9c-0.1,0-0.2,0-0.2,0.1C609.9,289.1,610.2,289,610.3,288.9"/>
	<path class="st0" d="M612.8,286.9L612.8,286.9c-0.1,0-0.2,0-0.3,0.1C612.5,287.2,612.7,287.1,612.8,286.9"/>
	<path class="st0" d="M615.4,284.9L615.4,284.9c-0.1-0.1-0.2,0-0.3,0.1C615,285.2,615.3,285.1,615.4,284.9"/>
	<path class="st0" d="M566,326.9c0.2-0.3,0.4-0.3,0.6-0.1C567.4,327.6,565.4,327.8,566,326.9"/>
	<path class="st0" d="M568.4,324.8c0.2-0.2,0.4-0.3,0.6-0.1C569.8,325.4,567.8,325.7,568.4,324.8"/>
	<path class="st0" d="M570.9,322.6c0.2-0.2,0.4-0.3,0.6-0.1C572.1,323.2,570.3,323.5,570.9,322.6"/>
	<path class="st0" d="M558.8,333.3c0.2-0.3,0.4-0.2,0.6-0.1C560.3,334.1,558.3,334.2,558.8,333.3"/>
	<path class="st0" d="M561.2,331.2c0.1-0.2,0.3-0.3,0.5-0.2c0.6,0.4,0,1.2-0.5,0.6C561.2,331.5,561.1,331.4,561.2,331.2"/>
	<path class="st0" d="M563.6,329.1c0.1-0.2,0.3-0.3,0.5-0.2c0.6,0.4-0.1,1.2-0.5,0.6C563.6,329.4,563.5,329.3,563.6,329.1"/>
	<path class="st0" d="M573.3,320.6c0.1-0.2,0.3-0.3,0.5-0.2c0.5,0.2-0.2,1-0.5,0.6C573.2,320.8,573.2,320.7,573.3,320.6"/>
	<path class="st0" d="M575.7,318.4c0.1-0.2,0.3-0.3,0.5-0.2c0.4,0.2-0.3,1-0.5,0.5C575.6,318.7,575.6,318.6,575.7,318.4"/>
	<path class="st0" d="M578.2,316.3c0.2-0.3,0.4-0.3,0.5-0.2C579.2,316.5,577.6,317,578.2,316.3"/>
	<path class="st0" d="M580.5,314.1c0.2-0.3,0.4-0.3,0.5-0.2C581.5,314.3,580,314.9,580.5,314.1"/>
	<path class="st0" d="M551.5,339.8c0.1-0.3,0.4-0.2,0.6,0C553,340.7,551.2,340.6,551.5,339.8"/>
	<path class="st0" d="M554,337.7c0.1-0.3,0.4-0.2,0.6,0C555.4,338.5,553.6,338.5,554,337.7"/>
	<path class="st0" d="M556.8,335.3c0.2,0.1,0.4,0.3,0.4,0.5c0,0.2-0.3,0.4-0.5,0.3C556.1,335.9,556.3,335.2,556.8,335.3"/>
	<path class="st0" d="M583.3,311.8c0.1,0,0.2,0.1,0.1,0.2c-0.1,0.1-0.3,0.4-0.4,0.4C582.7,312.3,583,311.8,583.3,311.8"/>
	<path class="st0" d="M585.7,309.6c0.1,0,0.2,0.1,0.1,0.2c-0.1,0.1-0.3,0.4-0.4,0.4C585.1,310.2,585.4,309.7,585.7,309.6"/>
	<path class="st0" d="M587.8,307.7c0.2-0.2,0.3-0.3,0.4-0.2C588.5,307.7,587.3,308.3,587.8,307.7"/>
	<path class="st0" d="M590.3,305.6c0.2-0.2,0.3-0.3,0.4-0.2C590.9,305.5,589.7,306.2,590.3,305.6"/>
	<path class="st0" d="M619.3,279.9c0.3-0.2,0.3-0.3,0.2-0.4C619.2,279.1,618.6,280.3,619.3,279.9"/>
	<path class="st0" d="M544.3,346.3c-0.1-0.1,0.1-0.2,0.2-0.2c0.7,0.1,0.9,1.2,0.2,0.9C544.4,346.7,544.3,346.4,544.3,346.3"/>
	<path class="st0" d="M546.7,344.2c-0.1-0.1,0.1-0.2,0.2-0.2c0.6,0,0.8,1.2,0.1,0.8C546.8,344.5,546.6,344.3,546.7,344.2"/>
	<path class="st0" d="M549.1,342c-0.1-0.1,0.1-0.2,0.2-0.2c0.6,0,0.8,1.1,0.1,0.8C549.2,342.4,549.1,342.2,549.1,342"/>
	<path class="st0" d="M592.7,303.5c0,0,0.2-0.1,0.2-0.2c0.4-0.3,0,0.3-0.3,0.4C592.6,303.6,592.6,303.6,592.7,303.5"/>
	<path class="st0" d="M595,301.4c0,0,0.2-0.1,0.2-0.2c0.4-0.3,0,0.2-0.3,0.4C594.9,301.5,594.9,301.5,595,301.4"/>
	<path class="st0" d="M597.5,299.2c0,0,0.2-0.1,0.2-0.2c0.4-0.3-0.1,0.2-0.3,0.3C597.4,299.3,597.4,299.3,597.5,299.2"/>
	<path class="st0" d="M599.9,297c0.1-0.1,0.1-0.1,0.2-0.2c0.4-0.4-0.1,0.2-0.3,0.3C599.7,297.2,599.8,297.1,599.9,297"/>
	<path class="st0" d="M602.3,294.9c0.1-0.1,0.1-0.1,0.2-0.2c0.4-0.4-0.2,0.1-0.3,0.3C602.1,295.1,602.2,295,602.3,294.9"/>
	<path class="st0" d="M604.8,292.7c0.1-0.1,0.1-0.1,0.2-0.1c0.4-0.4-0.2,0.1-0.3,0.2C604.5,292.9,604.6,292.8,604.8,292.7"/>
	<path class="st0" d="M607.2,290.6c0.1-0.1,0.1-0.1,0.2-0.1c0.4-0.4-0.3,0-0.4,0.2C607,290.8,607.1,290.7,607.2,290.6"/>
	<path class="st0" d="M609.6,288.5c0.1-0.1,0.1-0.1,0.2-0.1c0.4-0.4-0.3-0.1-0.4,0.2C609.4,288.6,609.5,288.5,609.6,288.5"/>
	<path class="st0" d="M612,286.3c0.1-0.1,0.1-0.1,0.2-0.1c0.4-0.4-0.4-0.1-0.4,0.2C611.8,286.5,611.9,286.4,612,286.3"/>
	<path class="st0" d="M614.4,284.2c0,0,0.2-0.1,0.2-0.2c0.3-0.4-0.4-0.2-0.5,0.2C614.2,284.3,614.3,284.3,614.4,284.2"/>
	<path class="st0" d="M616.8,282.1c0,0,0.2-0.1,0.2-0.2c0.3-0.4-0.4-0.2-0.5,0.1C616.6,282.1,616.7,282.2,616.8,282.1"/>
	<path class="st0" d="M563.7,333.8c0.5-0.7,1.4,0.3,1,0.8C564.3,335.1,563.2,334.4,563.7,333.8"/>
	<path class="st0" d="M565.9,331.6c0.2-0.4,0.6-0.4,0.8-0.2c0.7,0.5,0,1.7-0.8,0.8C565.8,332,565.7,331.8,565.9,331.6"/>
	<path class="st0" d="M568.2,329.3c0.2-0.4,0.6-0.4,0.8-0.2c0.7,0.5-0.1,1.6-0.8,0.8C568.1,329.7,568,329.5,568.2,329.3"/>
	<path class="st0" d="M570.4,327c0.2-0.4,0.6-0.4,0.8-0.3c0.8,0.4-0.1,1.7-0.7,0.9C570.3,327.4,570.3,327.2,570.4,327"/>
	<path class="st0" d="M572.7,324.7c0.3-0.4,0.6-0.4,0.8-0.3c0.6,0.4-0.2,1.5-0.8,0.8C572.6,325.1,572.5,324.9,572.7,324.7"/>
	<path class="st0" d="M575,322.4c0.3-0.4,0.6-0.4,0.7-0.3c0.6,0.4-0.3,1.5-0.8,0.8C574.9,322.8,574.8,322.6,575,322.4"/>
	<path class="st0" d="M577.3,320c0.5-0.7,1.1,0,0.7,0.5C577.6,321,576.8,320.6,577.3,320"/>
	<path class="st0" d="M579.6,317.7c0.5-0.6,1.1-0.1,0.6,0.4C579.8,318.6,579.1,318.3,579.6,317.7"/>
	<path class="st0" d="M556.9,340.7c0.2-0.4,0.6-0.3,0.9,0c0.7,0.7,0.1,1.5-0.7,0.8C556.8,341.2,556.7,341,556.9,340.7"/>
	<path class="st0" d="M559.1,338.5c0.2-0.4,0.6-0.4,0.9-0.1c0.7,0.6,0.1,1.6-0.7,0.8C559.1,339,559,338.7,559.1,338.5"/>
	<path class="st0" d="M561.4,336.2c0.1-0.3,0.5-0.5,0.8-0.2c0.9,0.6,0,1.9-0.7,0.8C561.3,336.6,561.3,336.4,561.4,336.2"/>
	<path class="st0" d="M581.8,315.5c0.2-0.3,0.5-0.5,0.6-0.4c0.5,0.2-0.5,1.4-0.7,0.8C581.6,315.8,581.6,315.7,581.8,315.5"/>
	<path class="st0" d="M584.1,313.2c0.3-0.4,0.5-0.4,0.6-0.3c0.3,0.2-0.4,1.1-0.7,0.8C583.9,313.6,583.9,313.4,584.1,313.2"/>
	<path class="st0" d="M586.3,310.9c0.3-0.4,0.5-0.4,0.6-0.4c0.3,0.2-0.5,1.1-0.7,0.8C586.2,311.2,586.2,311.1,586.3,310.9"/>
	<path class="st0" d="M588.6,308.6c0.3-0.3,0.5-0.4,0.6-0.3c0.2,0.2-0.5,1-0.7,0.8C588.4,308.9,588.4,308.8,588.6,308.6"/>
	<path class="st0" d="M547.8,350c0.2-0.5,0.5-0.3,0.9-0.1c0.9,0.7,0.4,1.8-0.6,0.8C547.9,350.5,547.7,350.3,547.8,350"/>
	<path class="st0" d="M550.1,347.7c0.2-0.4,0.5-0.3,0.8-0.1c0.9,0.7,0.4,1.8-0.6,0.8C550.1,348.2,550,348,550.1,347.7"/>
	<path class="st0" d="M552.3,345.4c0.3-1,1.9,0.6,1.1,1C553.1,346.6,552.1,346,552.3,345.4"/>
	<path class="st0" d="M554.6,343.1c0.3-1,1.9,0.6,1,1C555.3,344.2,554.4,343.7,554.6,343.1"/>
	<path class="st0" d="M590.9,306.3c0.6-0.7,0.9-0.4,0.2,0.2C590.9,306.7,590.5,306.7,590.9,306.3"/>
	<path class="st0" d="M593.1,304c0.6-0.7,0.8-0.4,0.2,0.2C593.1,304.4,592.8,304.4,593.1,304"/>
	<path class="st0" d="M595.4,301.7c0.3-0.3,0.4-0.4,0.5-0.4c0.2,0-0.6,0.9-0.7,0.7C595.2,302,595.2,301.9,595.4,301.7"/>
	<path class="st0" d="M597.7,299.4c0.3-0.3,0.4-0.4,0.5-0.4c0.1,0-0.7,0.8-0.7,0.7C597.5,299.7,597.5,299.6,597.7,299.4"/>
	<path class="st0" d="M600,297.1c0.3-0.3,0.4-0.4,0.4-0.4c0,0-0.7,0.7-0.7,0.7C599.7,297.4,599.8,297.2,600,297.1"/>
	<path class="st0" d="M602.3,294.8c0.3-0.3,0.4-0.4,0.4-0.4c0-0.1-0.7,0.7-0.7,0.7C602,295,602.1,294.9,602.3,294.8"/>
	<path class="st0" d="M604.5,292.5c0.3-0.3,0.4-0.4,0.4-0.4c0-0.1-0.8,0.7-0.7,0.7C604.2,292.7,604.3,292.6,604.5,292.5"/>
	<path class="st0" d="M611.3,285.6c0.3-0.2,0.3-0.4,0.3-0.5c-0.2-0.2-0.9,0.6-0.7,0.7C611,285.8,611.1,285.7,611.3,285.6"/>
	<path class="st0" d="M613.6,283.3c0.3-0.2,0.3-0.4,0.3-0.5c-0.2-0.2-0.9,0.5-0.7,0.7C613.2,283.5,613.4,283.4,613.6,283.3"/>
	<path class="st0" d="M618.1,278.7c0.8-0.5,0.1-1.1-0.4-0.4C617.5,278.6,617.6,279,618.1,278.7"/>
	<path class="st0" d="M606.7,290.2c0.2-0.2,0.4-0.4,0.4-0.5c0-0.3-1,0.7-0.6,0.7C606.5,290.4,606.6,290.3,606.7,290.2"/>
	<path class="st0" d="M564.2,338.7c0.6-1,2,0.4,1.4,1C565.1,340.4,563.7,339.5,564.2,338.7"/>
	<path class="st0" d="M566.3,336.3c0.5-1,1.9,0.3,1.4,1C567.2,337.8,565.9,337.1,566.3,336.3"/>
	<path class="st0" d="M568.4,333.8c0.6-1,1.8,0.2,1.3,0.9C569.2,335.3,567.9,334.7,568.4,333.8"/>
	<path class="st0" d="M570.4,331.4c0.6-1.1,2,0.2,1.1,0.9C571.2,332.7,570,332.2,570.4,331.4"/>
	<path class="st0" d="M572.6,329c0.6-1.1,1.9,0.1,1,0.9C573.2,330.2,572.1,329.8,572.6,329"/>
	<path class="st0" d="M574.7,326.5c0.6-1.1,1.8,0,1,0.8C575.2,327.7,574.2,327.3,574.7,326.5"/>
	<path class="st0" d="M576.8,324c0.6-1,1.5-0.1,1,0.6C577.3,325.3,576.3,324.8,576.8,324"/>
	<path class="st0" d="M578.9,321.6c0.6-1,1.4-0.1,0.9,0.6C579.4,322.7,578.4,322.4,578.9,321.6"/>
	<path class="st0" d="M581.1,319.1c0.3-0.5,0.7-0.5,0.9-0.4c0.5,0.4-0.4,1.6-0.9,1.1C580.8,319.7,580.8,319.4,581.1,319.1"/>
	<path class="st0" d="M583.1,316.7c0.7-0.9,1.3-0.2,0.7,0.5C583.4,317.8,582.6,317.4,583.1,316.7"/>
	<path class="st0" d="M555.8,348.5c0.5-0.9,2.1,0.6,1.7,1.2C557,350.4,555.4,349.3,555.8,348.5"/>
	<path class="st0" d="M557.9,346.1c0.2-0.5,0.8-0.4,1.3,0c0.9,0.8,0.1,2-1,1C557.8,346.8,557.7,346.5,557.9,346.1"/>
	<path class="st0" d="M560,343.7c0.2-0.4,0.5-0.5,0.9-0.3c1.5,0.7,0.5,2.6-0.8,1.1C560,344.2,559.8,344,560,343.7"/>
	<path class="st0" d="M562,341.3c0.5-1.3,2.3,0.5,1.4,1.1C563,342.6,561.8,342,562,341.3"/>
	<path class="st0" d="M585.2,314.3c0.7-1.1,1.3-0.3,0.5,0.5C585.4,315.1,584.8,315,585.2,314.3"/>
	<path class="st0" d="M587.3,311.9c0.2-0.3,0.5-0.5,0.7-0.5c0.6,0-0.6,1.7-0.8,1C587.2,312.3,587.2,312.1,587.3,311.9"/>
	<path class="st0" d="M589.4,309.4c0.2-0.3,0.5-0.5,0.6-0.6c0.6-0.1-0.7,1.7-0.8,1C589.2,309.8,589.3,309.7,589.4,309.4"/>
	<path class="st0" d="M591.6,306.9c0.3-0.5,0.6-0.6,0.7-0.5c0.2,0.2-0.7,1.3-0.9,1C591.3,307.4,591.4,307.2,591.6,306.9"/>
	<path class="st0" d="M593.7,304.5c0.7-0.8,0.8-0.5,0.3,0.1C593.6,305.1,593.2,305.1,593.7,304.5"/>
	<path class="st0" d="M595.8,302c0.6-0.8,0.8-0.6,0.3,0C595.6,302.7,595.3,302.7,595.8,302"/>
	<path class="st0" d="M616.9,277.5c0.7-0.7,0-1.2-0.5-0.6C615.9,277.5,616.2,278.1,616.9,277.5"/>
	<path class="st0" d="M551.6,353.5c0.1-0.2,0.1-0.3,0.2-0.4c0.6-0.3,2.3,1.3,1.4,1.8C552.8,355.1,551.4,354.3,551.6,353.5"/>
	<path class="st0" d="M553.6,351.1c0.1-0.2,0.1-0.3,0.2-0.4c0.6-0.3,2.2,1.2,1.3,1.7C554.9,352.6,553.4,351.9,553.6,351.1"/>
	<path class="st0" d="M597.8,299.7c0.1-0.2,0.2-0.3,0.3-0.3C598.6,298.8,598.5,299,597.8,299.7C597.7,300,597.4,300.2,597.8,299.7"
		/>
	<path class="st0" d="M599.9,297.2c0.1-0.2,0.2-0.2,0.3-0.3C600.7,296.4,600.6,296.5,599.9,297.2
		C599.7,297.5,599.5,297.8,599.9,297.2"/>
	<path class="st0" d="M602.1,294.7c0.9-1,0.4-0.7-0.2,0.1C601.7,295.1,601.7,295.2,602.1,294.7"/>
	<path class="st0" d="M604.2,292.3c0.3-0.4,0.6-0.7,0.5-0.7c-0.2,0-1,1.1-0.8,1C603.9,292.6,604,292.5,604.2,292.3"/>
	<path class="st0" d="M606.3,289.8c0.4-0.4,0.6-0.7,0.4-0.7c-0.2,0-1.1,1.1-0.8,1C606,290.1,606.1,290,606.3,289.8"/>
	<path class="st0" d="M608.4,287.4c1-1,0.1-1-0.4,0C607.8,287.6,608,287.8,608.4,287.4"/>
	<path class="st0" d="M610.5,284.9c0.4-0.4,0.5-0.7,0.3-0.8c-0.3-0.1-1.2,1-0.7,1.1C610.1,285.2,610.3,285.1,610.5,284.9"/>
	<path class="st0" d="M612.6,282.5c1-0.9-0.1-1.2-0.5-0.1C611.9,282.7,612.2,282.9,612.6,282.5"/>
	<path class="st0" d="M614.7,280.1c0.1-0.1,0.2-0.2,0.3-0.3c0.4-0.5-0.3-0.9-0.8-0.1C614,280,614.1,280.5,614.7,280.1"/>
	<path class="st0" d="M573,333.3c0.4-0.6,1.2-0.5,1.5,0c0.5,0.9-0.9,2-1.6,0.8C572.8,334,572.8,333.7,573,333.3"/>
	<path class="st0" d="M574.9,330.7c0.4-0.6,1.1-0.6,1.4,0c0.5,0.8-0.9,2-1.5,0.9C574.8,331.4,574.7,331.1,574.9,330.7"/>
	<path class="st0" d="M555.7,356.6C555.7,356.6,555.6,356.6,555.7,356.6c0.6-1,2.8,0.7,2.3,1.5C557.4,359,555.2,357.6,555.7,356.6"
		/>
	<path class="st0" d="M557.6,354.1C557.6,354.1,557.5,354,557.6,354.1c0.6-1,2.7,0.6,2.2,1.5C559.2,356.3,557.1,355,557.6,354.1"/>
	<path class="st0" d="M559.5,351.5c0.5-1.1,2.7,0.4,2.1,1.3C561.1,353.7,559.1,352.5,559.5,351.5"/>
	<path class="st0" d="M561.4,348.9c0.5-1.1,2.6,0.3,2,1.2C562.9,351,561,349.9,561.4,348.9"/>
	<path class="st0" d="M563.3,346.4c0.2-0.6,0.8-0.6,1.3-0.3c1.4,0.8,0.5,2.6-0.9,1.4C563.4,347.2,563.2,346.8,563.3,346.4"/>
	<path class="st0" d="M565.2,343.8c0.5-1.3,2.8,0.3,1.7,1.2C566.5,345.5,564.9,344.8,565.2,343.8"/>
	<path class="st0" d="M567.2,341.2c0.5-1.3,2.7,0.3,1.6,1.2C568.4,342.8,566.8,342.2,567.2,341.2"/>
	<path class="st0" d="M569.1,338.6c0.3-0.8,1.1-0.7,1.7-0.1c0.6,0.8-0.6,2.1-1.6,0.8C569.1,339.3,569,338.9,569.1,338.6"/>
	<path class="st0" d="M571,336.1c0.3-0.7,1.1-0.7,1.6-0.1c0.6,0.8-0.6,2.1-1.5,0.9C571,336.7,570.9,336.4,571,336.1"/>
	<path class="st0" d="M576.8,328.3c0.3-0.7,1.1-0.8,1.4-0.2c0.4,0.7-0.7,2-1.4,0.9C576.7,328.9,576.7,328.6,576.8,328.3"/>
	<path class="st0" d="M578.7,325.7c0.3-0.7,1-0.8,1.3-0.3c0.4,0.6-0.8,2-1.4,1C578.6,326.3,578.6,326,578.7,325.7"/>
	<path class="st0" d="M580.7,323.1c0.4-0.7,1-0.8,1.3-0.3c0.3,0.6-0.8,1.9-1.3,1C580.6,323.7,580.5,323.4,580.7,323.1"/>
	<path class="st0" d="M582.6,320.5c0.4-0.7,1-0.9,1.2-0.4c0.3,0.6-0.8,1.9-1.3,1C582.5,321.1,582.5,320.8,582.6,320.5"/>
	<path class="st0" d="M584.5,318c0.7-1.2,1.7-0.5,0.8,0.6C584.9,319,584.1,318.8,584.5,318"/>
	<path class="st0" d="M586.5,315.4c0.7-1.2,1.6-0.5,0.7,0.5C586.8,316.3,586,316.2,586.5,315.4"/>
	<path class="st0" d="M588.4,312.7c0.3-0.5,0.7-0.7,0.8-0.7c0.5,0.2-0.5,1.9-1,1.4C588.2,313.4,588.2,313.1,588.4,312.7"/>
	<path class="st0" d="M590.4,310.2c0.3-0.5,0.6-0.7,0.8-0.7c0.5,0.1-0.6,1.8-1,1.4C590.1,310.7,590.1,310.5,590.4,310.2"/>
	<path class="st0" d="M592.3,307.6c0.4-0.5,0.6-0.7,0.8-0.7c0.4,0.1-0.7,1.7-1,1.4C592,308.1,592.1,307.9,592.3,307.6"/>
	<path class="st0" d="M594.3,304.9c0.7-1,1-0.8,0.4,0.1C594.2,305.8,593.7,305.8,594.3,304.9"/>
	<path class="st0" d="M596.2,302.4c0.7-1,0.9-0.9,0.3,0C596,303.2,595.6,303.2,596.2,302.4"/>
	<path class="st0" d="M598.1,299.7C598.1,299.7,598.1,299.7,598.1,299.7c0.7-0.9,0.8-0.8,0.2,0C597.8,300.6,597.5,300.6,598.1,299.7
		"/>
	<path class="st0" d="M600.1,297.1C600.1,297.1,600.1,297.1,600.1,297.1C600.8,296.2,600.7,296.2,600.1,297.1
		C599.6,297.9,599.4,298,600.1,297.1"/>
	<path class="st0" d="M615.5,276.4C615.5,276.4,615.6,276.4,615.5,276.4c0.7-0.9-0.1-1.4-0.7-0.6
		C614.3,276.7,614.8,277.2,615.5,276.4"/>
	<path class="st0" d="M601.9,294.7c0.9-1.2,0.6-1.1-0.1,0.1C601.6,295.1,601.4,295.4,601.9,294.7"/>
	<path class="st0" d="M603.9,292.1c0.9-1.2,0.5-1.1-0.2,0C603.4,292.4,603.3,292.8,603.9,292.1"/>
	<path class="st0" d="M605.8,289.5c1-1.2,0.4-1.2-0.3-0.1C605.3,289.8,605.2,290.2,605.8,289.5"/>
	<path class="st0" d="M607.7,286.9c0.9-1,0.3-1.3-0.4-0.1C607.1,287.2,607.1,287.6,607.7,286.9"/>
	<path class="st0" d="M611.6,281.7c1-1.1,0-1.5-0.6-0.3C610.8,281.9,610.9,282.4,611.6,281.7"/>
	<path class="st0" d="M559.9,359.7c0.5-1.3,3.3,0.4,2.7,1.5C562,362.1,559.5,360.8,559.9,359.7"/>
	<path class="st0" d="M561.6,357c0.5-1.3,3.2,0.3,2.6,1.4C563.6,359.4,561.2,358.1,561.6,357"/>
	<path class="st0" d="M563.4,354.2c0.5-1.3,3.1,0.2,2.4,1.3C565.2,356.6,563,355.3,563.4,354.2"/>
	<path class="st0" d="M565.1,351.6c0.3-0.8,1.3-0.8,2.1,0c1,1-0.3,2.5-1.8,1C565.2,352.4,565,352,565.1,351.6"/>
	<path class="st0" d="M566.9,348.8c0.3-0.8,1.3-0.8,2,0c1,0.9-0.3,2.5-1.7,1.1C566.9,349.6,566.7,349.2,566.9,348.8"/>
	<path class="st0" d="M568.6,346.2c0.5-1.5,3.1,0.2,2,1.3C570.1,348,568.2,347.2,568.6,346.2"/>
	<path class="st0" d="M570.3,343.4c0.5-1.5,3,0.1,1.9,1.2C571.7,345.2,570,344.5,570.3,343.4"/>
	<path class="st0" d="M572.1,340.7c0.5-1.5,2.8,0,1.8,1.1C573.4,342.4,571.7,341.8,572.1,340.7"/>
	<path class="st0" d="M573.8,338c0.6-1.5,2.7-0.1,1.7,1.1C575,339.7,573.4,339.1,573.8,338"/>
	<path class="st0" d="M575.6,335.3c0.3-0.7,1.2-1,1.7-0.3c0.7,0.8-0.6,2.4-1.6,1.2C575.5,336,575.4,335.7,575.6,335.3"/>
	<path class="st0" d="M577.3,332.6c0.3-0.7,1.1-1,1.6-0.4c0.6,0.8-0.7,2.3-1.6,1.2C577.3,333.3,577.2,333,577.3,332.6"/>
	<path class="st0" d="M579.1,329.9c0.3-0.7,1.1-1.1,1.6-0.4c0.5,0.7-0.7,2.3-1.5,1.2C579,330.6,578.9,330.2,579.1,329.9"/>
	<path class="st0" d="M580.8,327.2c0.3-0.7,1.1-1.1,1.5-0.5c0.5,0.7-0.7,2.3-1.5,1.2C580.7,327.8,580.7,327.5,580.8,327.2"/>
	<path class="st0" d="M582.6,324.5c0.3-0.7,1.1-1.1,1.4-0.5c0.4,0.7-0.8,2.3-1.4,1.3C582.5,325.1,582.4,324.8,582.6,324.5"/>
	<path class="st0" d="M584.3,321.8c0.3-0.7,1-1.1,1.3-0.6c0.4,0.6-0.8,2.2-1.4,1.3C584.2,322.4,584.2,322.1,584.3,321.8"/>
	<path class="st0" d="M586.1,319c0.7-1.4,1.8-0.6,1,0.6C586.6,320.2,585.6,320,586.1,319"/>
	<path class="st0" d="M587.8,316.3c0.7-1.4,1.7-0.7,0.8,0.5C588.2,317.4,587.3,317.3,587.8,316.3"/>
	<path class="st0" d="M589.6,313.6c0.7-1.4,1.6-0.8,0.7,0.4C589.9,314.7,589.1,314.6,589.6,313.6"/>
	<path class="st0" d="M591.3,310.9c0.8-1.4,1.5-0.9,0.6,0.4C591.5,311.9,590.8,311.9,591.3,310.9"/>
	<path class="st0" d="M593.1,308.2c0.8-1.4,1.3-0.9,0.5,0.3C593.2,309.1,592.5,309.1,593.1,308.2"/>
	<path class="st0" d="M594.9,305.4c0.4-0.7,0.8-1.1,0.8-0.8c0,0.4-1,2.1-1.1,1.5C594.6,306,594.6,305.8,594.9,305.4"/>
	<path class="st0" d="M596.6,302.7c0.4-0.7,0.8-1.1,0.8-0.8c0,0.4-1,2-1.1,1.5C596.3,303.3,596.4,303.1,596.6,302.7"/>
	<path class="st0" d="M598.3,300c0.4-0.7,0.8-1.1,0.7-0.9c-0.1,0.3-1.1,2-1,1.5C598,300.6,598.1,300.3,598.3,300"/>
	<path class="st0" d="M600.1,297.3c0.8-1.2,0.8-1.2,0.2-0.1C599.7,298.2,599.5,298.2,600.1,297.3"/>
	<path class="st0" d="M601.9,294.5c0.8-1.2,0.7-1.2,0-0.2C601.3,295.4,601.2,295.5,601.9,294.5"/>
	<path class="st0" d="M603.6,291.8c0.8-1.2,0.6-1.3-0.1-0.2C603,292.6,603,292.7,603.6,291.8"/>
	<path class="st0" d="M605.4,289.1c0.8-1.1,0.5-1.4-0.2-0.3C604.6,289.8,604.7,290,605.4,289.1"/>
	<path class="st0" d="M607.1,286.3c0.9-1.3,0.2-1.3-0.5-0.1C606.4,287,606.5,287.3,607.1,286.3"/>
	<path class="st0" d="M614.1,275.5c0.9-1.1-0.1-1.7-0.7-0.6C612.8,275.9,613.4,276.4,614.1,275.5"/>
	<path class="st0" d="M615.9,272.8c0.9-1.1-0.2-1.8-0.8-0.7C614.5,273.1,615.2,273.7,615.9,272.8"/>
	<path class="st0" d="M579.9,334c0.6-1.3,2.4-0.5,1.8,0.8C581.1,336,579.4,335.2,579.9,334"/>
	<path class="st0" d="M581.5,331.2c0.6-1.3,2.3-0.5,1.6,0.7C582.5,333.1,580.9,332.4,581.5,331.2"/>
	<path class="st0" d="M583,328.3c0.6-1.3,2.1-0.6,1.5,0.7C584,330.2,582.5,329.6,583,328.3"/>
	<path class="st0" d="M584.6,325.5c0.6-1.3,2-0.7,1.4,0.6C585.4,327.3,584,326.7,584.6,325.5"/>
	<path class="st0" d="M586.2,322.7c0.6-1.3,1.9-0.7,1.3,0.5C586.9,324.4,585.6,323.9,586.2,322.7"/>
	<path class="st0" d="M564.2,362.4c0.3-1.8,4,0.3,2.8,1.5C566.5,364.5,564,363.6,564.2,362.4"/>
	<path class="st0" d="M565.8,359.6c0.3-1.8,3.9,0.2,2.7,1.4C567.9,361.6,565.5,360.8,565.8,359.6"/>
	<path class="st0" d="M567.3,356.7c0.3-1.7,3.7,0.1,2.6,1.4C569.4,358.8,567.1,357.9,567.3,356.7"/>
	<path class="st0" d="M568.9,353.9c0.4-1.7,3.6,0.1,2.5,1.3C570.8,355.9,568.6,355.1,568.9,353.9"/>
	<path class="st0" d="M570.5,351.1c0.4-1.7,3.5,0,2.3,1.2C572.3,353,570.2,352.3,570.5,351.1"/>
	<path class="st0" d="M572,348.3c0.4-1.7,3.3-0.1,2.2,1.2C573.8,350.1,571.7,349.4,572,348.3"/>
	<path class="st0" d="M573.6,345.4c0.4-1.7,3.2-0.2,2.1,1.1C575.2,347.2,573.3,346.6,573.6,345.4"/>
	<path class="st0" d="M575.2,342.6c0.5-1.7,3-0.2,2,1.1C576.7,344.3,574.9,343.8,575.2,342.6"/>
	<path class="st0" d="M576.7,339.8c0.5-1.7,2.9-0.3,1.9,1C578.1,341.5,576.4,340.9,576.7,339.8"/>
	<path class="st0" d="M578.3,337c0.5-1.7,2.8-0.4,1.8,0.9C579.6,338.6,577.9,338.1,578.3,337"/>
	<path class="st0" d="M587.7,320c0.6-1.6,2-0.8,1.1,0.6C588.3,321.3,587.2,321.1,587.7,320"/>
	<path class="st0" d="M589.2,317.2c0.7-1.6,1.8-0.9,0.9,0.5C589.8,318.4,588.8,318.3,589.2,317.2"/>
	<path class="st0" d="M590.8,314.4c0.7-1.6,1.7-1,0.8,0.4C591.2,315.5,590.4,315.4,590.8,314.4"/>
	<path class="st0" d="M592.4,311.5c0.7-1.6,1.5-1,0.7,0.4C592.7,312.6,591.9,312.6,592.4,311.5"/>
	<path class="st0" d="M593.9,308.7c0.7-1.5,1.4-1.1,0.6,0.3C594.1,309.7,593.5,309.8,593.9,308.7"/>
	<path class="st0" d="M595.5,305.9c0.8-1.5,1.3-1.2,0.5,0.3C595.6,306.8,595,306.9,595.5,305.9"/>
	<path class="st0" d="M597.1,303.1c0.8-1.5,1.1-1.3,0.4,0.2C597,304,596.5,304.1,597.1,303.1"/>
	<path class="st0" d="M598.6,300.3c0.8-1.5,1-1.3,0.2,0.1C598.5,301.1,598.1,301.3,598.6,300.3"/>
	<path class="st0" d="M600.2,297.4c0.8-1.5,0.9-1.4,0.1,0.1C599.9,298.2,599.7,298.4,600.2,297.4"/>
	<path class="st0" d="M601.8,294.6C602.6,293.1,602.5,293.1,601.8,294.6C601.4,295.3,601.2,295.6,601.8,294.6"/>
	<path class="st0" d="M603.3,291.8c0.9-1.5,0.6-1.5-0.1-0.1C602.9,292.4,602.8,292.8,603.3,291.8"/>
	<path class="st0" d="M604.9,288.9c0.9-1.5,0.4-1.6-0.2-0.1C604.3,289.5,604.3,289.9,604.9,288.9"/>
	<path class="st0" d="M606.5,286.1c0.4-0.7,0.6-1.4,0.4-1.2c-0.4,0.2-1.2,2.1-0.8,1.8C606.1,286.6,606.2,286.5,606.5,286.1"/>
	<path class="st0" d="M608,283.3c0.4-0.7,0.6-1.4,0.3-1.3c-0.4,0.1-1.3,2-0.8,1.8C607.6,283.8,607.8,283.7,608,283.3"/>
	<path class="st0" d="M568.6,364.6c0.1-0.9,1.5-1.2,2.7-0.2c1.3,1-0.2,2.9-2.2,1.3C568.8,365.4,568.5,365,568.6,364.6"/>
	<path class="st0" d="M570,361.7c0.1-0.9,1.5-1.2,2.6-0.2c1.2,1-0.3,2.9-2.1,1.3C570.1,362.5,569.9,362.1,570,361.7"/>
	<path class="st0" d="M571.4,358.8c0.1-0.9,1.5-1.2,2.5-0.3c1.1,1-0.3,2.9-2.1,1.3C571.5,359.6,571.3,359.2,571.4,358.8"/>
	<path class="st0" d="M572.7,355.9c0.1-0.9,1.4-1.2,2.4-0.3c1.1,1-0.4,2.8-2,1.3C572.9,356.7,572.7,356.3,572.7,355.9"/>
	<path class="st0" d="M574.1,353c0.2-0.9,1.4-1.2,2.3-0.4c1,0.9-0.4,2.8-2,1.4C574.2,353.7,574.1,353.4,574.1,353"/>
	<path class="st0" d="M575.5,350c0.2-0.9,1.4-1.2,2.2-0.4c1,0.9-0.4,2.8-1.9,1.4C575.6,350.8,575.4,350.4,575.5,350"/>
	<path class="st0" d="M576.9,347.1c0.2-0.9,1.3-1.3,2.1-0.4c0.9,0.9-0.5,2.8-1.9,1.4C577,347.9,576.8,347.5,576.9,347.1"/>
	<path class="st0" d="M578.3,344.2c0.2-0.9,1.3-1.3,2.1-0.5c0.9,0.9-0.5,2.8-1.8,1.4C578.3,345,578.2,344.6,578.3,344.2"/>
	<path class="st0" d="M579.7,341.3c0.2-0.9,1.3-1.3,2-0.5c0.8,0.8-0.5,2.8-1.8,1.5C579.7,342.1,579.6,341.7,579.7,341.3"/>
	<path class="st0" d="M581,338.4c0.2-0.9,1.2-1.3,1.9-0.6c0.7,0.8-0.6,2.8-1.7,1.5C581.1,339.1,580.9,338.8,581,338.4"/>
	<path class="st0" d="M582.4,335.5c0.2-0.8,1.2-1.3,1.8-0.6c0.7,0.8-0.6,2.7-1.6,1.5C582.4,336.2,582.3,335.9,582.4,335.5"/>
	<path class="st0" d="M583.8,332.5c0.2-0.8,1.1-1.3,1.7-0.6c0.6,0.8-0.6,2.7-1.6,1.5C583.8,333.3,583.7,332.9,583.8,332.5"/>
	<path class="st0" d="M585.2,329.6c0.2-0.8,1.1-1.4,1.6-0.7c0.6,0.7-0.7,2.7-1.5,1.6C585.2,330.3,585.1,330,585.2,329.6"/>
	<path class="st0" d="M586.6,326.7c0.3-0.8,1.1-1.4,1.5-0.7c0.5,0.7-0.7,2.7-1.5,1.6C586.5,327.4,586.5,327.1,586.6,326.7"/>
	<path class="st0" d="M588,323.8c0.3-0.8,1.1-1.4,1.4-0.8c0.4,0.7-0.7,2.7-1.4,1.6C587.9,324.5,587.9,324.2,588,323.8"/>
	<path class="st0" d="M589.3,320.9c0.3-0.8,1-1.4,1.4-0.8c0.4,0.7-0.8,2.7-1.4,1.6C589.2,321.6,589.2,321.3,589.3,320.9"/>
	<path class="st0" d="M590.7,318c0.3-0.8,1-1.4,1.3-0.8c0.3,0.6-0.8,2.6-1.3,1.7C590.6,318.6,590.6,318.3,590.7,318"/>
	<path class="st0" d="M592.1,315c0.3-0.8,1-1.4,1.2-0.9c0.3,0.6-0.8,2.6-1.3,1.7C592,315.7,592,315.4,592.1,315"/>
	<path class="st0" d="M593.5,312.1c0.3-0.8,0.9-1.5,1.1-0.9c0.2,0.6-0.9,2.6-1.2,1.7C593.3,312.8,593.4,312.5,593.5,312.1"/>
	<path class="st0" d="M594.9,309.2c0.3-0.8,0.9-1.5,1-1c0.2,0.6-0.9,2.6-1.1,1.7C594.7,309.8,594.7,309.6,594.9,309.2"/>
	<path class="st0" d="M596.3,306.3c0.3-0.8,0.9-1.5,0.9-1c0.1,0.5-0.9,2.6-1.1,1.8C596.1,306.9,596.1,306.6,596.3,306.3"/>
	<path class="st0" d="M597.6,303.4c0.3-0.8,0.8-1.5,0.8-1c0,0.5-1,2.6-1,1.8C597.4,304,597.5,303.8,597.6,303.4"/>
	<path class="st0" d="M599,300.5c0.4-0.8,0.8-1.5,0.7-1.1c0,0.5-1,2.6-1,1.8C598.8,301.1,598.9,300.8,599,300.5"/>
	<path class="st0" d="M600.4,297.5c0.4-0.8,0.8-1.5,0.7-1.1c-0.1,0.5-1,2.5-0.9,1.8C600.2,298.2,600.3,297.9,600.4,297.5"/>
	<path class="st0" d="M601.8,294.6c0.4-0.8,0.7-1.6,0.6-1.2c-0.1,0.4-1.1,2.5-0.9,1.9C601.5,295.2,601.6,295,601.8,294.6"/>
	<path class="st0" d="M603.2,291.7c0.4-0.8,0.7-1.6,0.5-1.2c-0.2,0.4-1.1,2.5-0.8,1.9C602.9,292.3,603,292.1,603.2,291.7"/>
	<path class="st0" d="M604.6,288.8c0.4-0.8,0.7-1.6,0.4-1.2c-0.3,0.4-1.1,2.5-0.8,1.9C604.3,289.4,604.4,289.1,604.6,288.8"/>
	<path class="st0" d="M606,285.9c0.4-0.8,0.6-1.6,0.3-1.3c-0.3,0.4-1.2,2.5-0.7,1.9C605.6,286.4,605.8,286.2,606,285.9"/>
	<path class="st0" d="M607.3,283c0.4-0.8,0.6-1.6,0.2-1.3c-0.4,0.3-1.2,2.5-0.7,2C607,283.5,607.1,283.3,607.3,283"/>
	<path class="st0" d="M608.7,280c0.4-0.7,0.5-1.6,0.1-1.4c-0.4,0.3-1.2,2.4-0.6,2C608.3,280.6,608.5,280.4,608.7,280"/>
	<path class="st0" d="M609.6,277.7c0.1-0.1,0.3-0.3,0.5-0.6c0.4-0.7,0.5-1.6,0-1.4"/>
	<path class="st0" d="M611.5,274.2c0.5-0.7,0.5-1.7,0-1.4c-0.6,0.3-1.3,2.4-0.5,2C611.1,274.7,611.3,274.5,611.5,274.2"/>
	<path class="st0" d="M572.9,366.5c0.3-1.8,4.1-0.5,3.1,1.2C575.4,368.8,572.8,367.8,572.9,366.5"/>
	<path class="st0" d="M574.1,363.5c0.3-1.8,4-0.5,3,1.1C576.5,365.7,574,364.8,574.1,363.5"/>
	<path class="st0" d="M575.4,360.5c0.3-1.8,3.8-0.6,2.9,1.1C577.6,362.7,575.2,361.8,575.4,360.5"/>
	<path class="st0" d="M576.6,357.5c0.3-1.8,3.7-0.6,2.7,1C578.6,359.7,576.4,358.8,576.6,357.5"/>
	<path class="st0" d="M577.8,354.5c0.4-1.8,3.5-0.7,2.6,1C579.7,356.6,577.6,355.8,577.8,354.5"/>
	<path class="st0" d="M579,351.5c0.4-1.8,3.4-0.7,2.5,0.9C580.8,353.6,578.8,352.8,579,351.5"/>
	<path class="st0" d="M580.2,348.5c0.4-1.8,3.3-0.8,2.4,0.9C581.9,350.5,580,349.8,580.2,348.5"/>
	<path class="st0" d="M581.4,345.5c0.4-1.8,3.1-0.8,2.2,0.9C583,347.5,581.2,346.8,581.4,345.5"/>
	<path class="st0" d="M582.6,342.6c0.4-1.7,3-0.9,2.1,0.8C584.1,344.5,582.3,343.8,582.6,342.6"/>
	<path class="st0" d="M583.8,339.6c0.4-1.7,2.9-0.9,2,0.8C585.2,341.4,583.5,340.8,583.8,339.6"/>
	<path class="st0" d="M585,336.6c0.4-1.7,2.7-1,1.9,0.7C586.3,338.4,584.7,337.8,585,336.6"/>
	<path class="st0" d="M586.2,333.6c0.5-1.7,2.6-1,1.8,0.7C587.4,335.4,585.9,334.8,586.2,333.6"/>
	<path class="st0" d="M587.4,330.6c0.5-1.7,2.5-1.1,1.6,0.6C588.5,332.3,587.1,331.8,587.4,330.6"/>
	<path class="st0" d="M588.7,327.6c0.5-1.7,2.3-1.1,1.5,0.6C589.6,329.3,588.3,328.8,588.7,327.6"/>
	<path class="st0" d="M589.9,324.6c0.5-1.7,2.2-1.2,1.4,0.5C590.7,326.2,589.5,325.8,589.9,324.6"/>
	<path class="st0" d="M591.1,321.6c0.5-1.7,2-1.3,1.3,0.5C591.8,323.2,590.7,322.8,591.1,321.6"/>
	<path class="st0" d="M592.3,318.6c0.5-1.7,1.9-1.3,1.1,0.4C592.9,320.2,591.9,319.8,592.3,318.6"/>
	<path class="st0" d="M593.5,315.6c0.5-1.7,1.8-1.4,1,0.4C594,317.1,593.1,316.8,593.5,315.6"/>
	<path class="st0" d="M594.7,312.6c0.6-1.7,1.6-1.4,0.9,0.3C595.1,314.1,594.3,313.8,594.7,312.6"/>
	<path class="st0" d="M595.9,309.6c0.6-1.7,1.5-1.5,0.8,0.3C596.2,311.1,595.5,310.8,595.9,309.6"/>
	<path class="st0" d="M597.1,306.6c0.6-1.7,1.4-1.5,0.7,0.2C597.3,308,596.7,307.8,597.1,306.6"/>
	<path class="st0" d="M598.3,303.6c0.6-1.7,1.2-1.6,0.5,0.2C598.4,305,597.9,304.8,598.3,303.6"/>
	<path class="st0" d="M599.5,300.6c0.6-1.7,1.1-1.6,0.4,0.2C599.5,302,599.1,301.8,599.5,300.6"/>
	<path class="st0" d="M600.7,297.6c0.6-1.7,1-1.7,0.3,0.1C600.6,298.9,600.3,298.8,600.7,297.6"/>
	<path class="st0" d="M601.9,294.6c0.6-1.7,0.8-1.7,0.2,0.1C601.7,295.9,601.5,295.8,601.9,294.6"/>
	<path class="st0" d="M603.2,291.6C603.8,290,603.8,289.9,603.2,291.6C602.8,292.8,602.7,292.8,603.2,291.6"/>
	<path class="st0" d="M604.4,288.6C605,287,604.9,286.8,604.4,288.6C603.9,289.8,603.9,289.8,604.4,288.6"/>
	<path class="st0" d="M605.6,285.6c0.7-1.7,0.4-1.9-0.2-0.1C605,286.7,605.1,286.8,605.6,285.6"/>
	<path class="st0" d="M606.8,282.7c0.7-1.6,0.3-1.9-0.3-0.1C606.1,283.7,606.2,283.8,606.8,282.7"/>
	<path class="st0" d="M608,279.7c0.7-1.6,0.1-2-0.4-0.2C607.2,280.7,607.4,280.8,608,279.7"/>
	<path class="st0" d="M609.2,276.7c0.7-1.6,0-2-0.6-0.2C608.3,277.7,608.6,277.8,609.2,276.7"/>
	<path class="st0" d="M610.4,273.7c0.8-1.6-0.1-2.1-0.7-0.3C609.4,274.6,609.8,274.8,610.4,273.7"/>
	<path class="st0" d="M611.6,270.7c0.8-1.6-0.3-2.1-0.8-0.3C610.5,271.6,611,271.8,611.6,270.7"/>
	<path class="st0" d="M577.1,368.1c0.2-1.6,3-1.1,3.3,0.3C580.8,370.2,577,369.9,577.1,368.1"/>
	<path class="st0" d="M578.2,365c0.2-1.6,2.9-1.1,3.2,0.3C581.7,367.2,578,366.9,578.2,365"/>
	<path class="st0" d="M579.2,362c0.2-1.5,2.8-1.2,3.1,0.2C582.6,364,579,363.8,579.2,362"/>
	<path class="st0" d="M580.3,358.9c0.2-1.5,2.7-1.2,2.9,0.2C583.5,360.9,580,360.7,580.3,358.9"/>
	<path class="st0" d="M581.3,355.8c0.2-1.5,2.7-1.2,2.8,0.1C584.4,357.8,581.1,357.7,581.3,355.8"/>
	<path class="st0" d="M582.4,352.8c0.2-1.5,2.6-1.3,2.7,0.1C585.3,354.7,582.1,354.6,582.4,352.8"/>
	<path class="st0" d="M583.4,349.7c0.3-1.5,2.5-1.3,2.6,0.1C586.2,351.6,583.1,351.5,583.4,349.7"/>
	<path class="st0" d="M584.5,346.7c0.3-1.5,2.4-1.3,2.5,0C587.1,348.5,584.2,348.5,584.5,346.7"/>
	<path class="st0" d="M585.5,343.6c0.3-1.5,2.3-1.4,2.4,0C588,345.4,585.2,345.4,585.5,343.6"/>
	<path class="st0" d="M586.5,340.6c0.3-1.5,2.2-1.4,2.2,0C588.9,342.3,586.2,342.4,586.5,340.6"/>
	<path class="st0" d="M587.6,337.5c0.3-1.5,2.1-1.4,2.1-0.1C589.8,339.2,587.2,339.3,587.6,337.5"/>
	<path class="st0" d="M588.6,334.5c0.3-1.5,2-1.4,2-0.1C590.7,336.1,588.3,336.2,588.6,334.5"/>
	<path class="st0" d="M589.7,331.4c0.3-1.5,1.9-1.5,1.9-0.2C591.5,333,589.3,333.2,589.7,331.4"/>
	<path class="st0" d="M590.7,328.3c0.3-1.5,1.8-1.5,1.8-0.2C592.4,329.9,590.3,330.1,590.7,328.3"/>
	<path class="st0" d="M591.8,325.3c0.4-1.5,1.7-1.5,1.6-0.2C593.3,326.8,591.4,327,591.8,325.3"/>
	<path class="st0" d="M592.8,322.2c0.4-1.5,1.6-1.6,1.5-0.3C594.2,323.7,592.4,324,592.8,322.2"/>
	<path class="st0" d="M593.8,319.2c0.4-1.5,1.5-1.6,1.4-0.3C595.1,320.6,593.4,320.9,593.8,319.2"/>
	<path class="st0" d="M594.9,316.1c0.4-1.5,1.4-1.6,1.3-0.3C596,317.5,594.4,317.9,594.9,316.1"/>
	<path class="st0" d="M595.9,313.1c0.4-1.5,1.3-1.7,1.2-0.4C596.9,314.4,595.5,314.8,595.9,313.1"/>
	<path class="st0" d="M597,310c0.4-1.5,1.3-1.7,1.1-0.4C597.8,311.3,596.5,311.7,597,310"/>
	<path class="st0" d="M598,306.9c0.4-1.5,1.2-1.7,0.9-0.5C598.7,308.2,597.5,308.7,598,306.9"/>
	<path class="st0" d="M599.1,303.9c0.4-1.5,1.1-1.8,0.8-0.5C599.6,305.1,598.6,305.6,599.1,303.9"/>
	<path class="st0" d="M600.1,300.9c0.5-1.5,1-1.8,0.7-0.5C600.5,302,599.6,302.6,600.1,300.9"/>
	<path class="st0" d="M601.1,297.8c0.5-1.5,0.9-1.8,0.6-0.6C601.4,298.9,600.6,299.5,601.1,297.8"/>
	<path class="st0" d="M602.2,294.7c0.5-1.5,0.8-1.9,0.5-0.6C602.3,295.8,601.7,296.4,602.2,294.7"/>
	<path class="st0" d="M603.2,291.7c0.5-1.5,0.7-1.9,0.4-0.6C603.2,292.7,602.7,293.4,603.2,291.7"/>
	<path class="st0" d="M604.3,288.6c0.5-1.4,0.6-1.9,0.2-0.7C604.1,289.5,603.7,290.3,604.3,288.6"/>
	<path class="st0" d="M605.3,285.6c0.5-1.4,0.5-1.9,0.1-0.7C605,286.4,604.7,287.2,605.3,285.6"/>
	<path class="st0" d="M606.4,282.5c0.5-1.4,0.4-2,0-0.8C605.8,283.4,605.8,284.2,606.4,282.5"/>
	<path class="st0" d="M607.4,279.5c0.6-1.4,0.3-2-0.1-0.8C606.7,280.3,606.8,281.1,607.4,279.5"/>
	<path class="st0" d="M608.4,276.4c0.6-1.4,0.2-2-0.2-0.8C607.6,277.1,607.8,278.1,608.4,276.4"/>
	<path class="st0" d="M609.5,273.3c0.6-1.4,0.1-2.1-0.3-0.9C608.5,274,608.9,275,609.5,273.3"/>
	<path class="st0" d="M610.6,270.3c0.7-1.7-0.2-2-0.6-0.4C609.5,271.3,610,271.6,610.6,270.3"/>
	<path class="st0" d="M581.2,369.2c0.1-0.6,0.9-1.2,2-0.9c2.1,0.5,1.3,3.1-0.6,2.6C581.6,370.6,581,370,581.2,369.2"/>
	<path class="st0" d="M582.1,366.1c0.1-0.6,0.9-1.2,1.9-0.9c2,0.5,1.3,3-0.6,2.6C582.4,367.5,581.9,366.9,582.1,366.1"/>
	<path class="st0" d="M582.9,363c0.1-0.6,0.9-1.2,1.9-0.9c2,0.5,1.2,3-0.6,2.6C583.3,364.4,582.8,363.8,582.9,363"/>
	<path class="st0" d="M583.8,359.9c0.1-0.6,0.9-1.2,1.8-1c1.9,0.5,1.1,3-0.6,2.6C584.2,361.3,583.7,360.7,583.8,359.9"/>
	<path class="st0" d="M584.7,356.8c0.1-0.6,0.8-1.2,1.7-1c1.8,0.5,1,3-0.6,2.6C585,358.2,584.6,357.6,584.7,356.8"/>
	<path class="st0" d="M585.6,353.6c0.1-0.6,0.8-1.2,1.7-1c1.7,0.4,1,3-0.6,2.6C585.9,355.1,585.5,354.5,585.6,353.6"/>
	<path class="st0" d="M586.5,350.5c0.1-0.6,0.8-1.2,1.6-1c1.6,0.4,0.9,2.9-0.7,2.6C586.8,351.9,586.3,351.4,586.5,350.5"/>
	<path class="st0" d="M587.4,347.4c0.1-0.6,0.8-1.2,1.6-1c1.6,0.4,0.8,2.9-0.6,2.6C587.6,348.8,587.2,348.3,587.4,347.4"/>
	<path class="st0" d="M588.3,344.4c0.1-0.6,0.8-1.2,1.5-1c1.5,0.4,0.8,2.9-0.7,2.6C588.5,345.7,588.1,345.2,588.3,344.4"/>
	<path class="st0" d="M589.2,341.3c0.1-0.6,0.7-1.3,1.4-1.1c1.4,0.4,0.7,2.9-0.7,2.6C589.4,342.6,589,342.1,589.2,341.3"/>
	<path class="st0" d="M590.1,338.1c0.1-0.6,0.7-1.3,1.4-1.1c1.3,0.3,0.6,2.9-0.7,2.6C590.2,339.5,589.9,339,590.1,338.1"/>
	<path class="st0" d="M591,335c0.1-0.6,0.7-1.3,1.3-1.1c1.2,0.3,0.5,2.9-0.7,2.6C591.1,336.4,590.8,335.9,591,335"/>
	<path class="st0" d="M591.9,331.9c0.2-0.6,0.7-1.3,1.3-1.1c1.2,0.3,0.5,2.8-0.7,2.6C592,333.3,591.7,332.8,591.9,331.9"/>
	<path class="st0" d="M592.8,328.8c0.2-0.6,0.7-1.3,1.2-1.1c1.1,0.3,0.4,2.8-0.7,2.6C592.8,330.2,592.6,329.6,592.8,328.8"/>
	<path class="st0" d="M593.7,325.7c0.2-0.6,0.6-1.3,1.1-1.1c1,0.3,0.3,2.8-0.7,2.6C593.7,327,593.5,326.5,593.7,325.7"/>
	<path class="st0" d="M594.6,322.6c0.2-0.6,0.6-1.3,1.1-1.2c0.9,0.2,0.3,2.8-0.7,2.6C594.6,324,594.4,323.5,594.6,322.6"/>
	<path class="st0" d="M595.5,319.5c0.2-0.6,0.6-1.3,1-1.2c0.9,0.2,0.2,2.8-0.7,2.6C595.4,320.8,595.2,320.4,595.5,319.5"/>
	<path class="st0" d="M596.3,316.4c0.2-0.6,0.6-1.3,1-1.2c0.8,0.2,0.1,2.7-0.7,2.6C596.3,317.7,596.1,317.2,596.3,316.4"/>
	<path class="st0" d="M597.2,313.3c0.2-0.6,0.6-1.3,0.9-1.2c0.7,0.2,0,2.7-0.7,2.6C597.2,314.6,597,314.1,597.2,313.3"/>
	<path class="st0" d="M598.1,310.2c0.2-0.6,0.5-1.3,0.8-1.2c0.6,0.2,0,2.7-0.7,2.6C598,311.5,597.9,311,598.1,310.2"/>
	<path class="st0" d="M599,307.1c0.2-0.6,0.5-1.3,0.8-1.2c0.5,0.1-0.1,2.7-0.7,2.6C598.9,308.4,598.8,307.9,599,307.1"/>
	<path class="st0" d="M599.9,304c0.2-0.6,0.5-1.3,0.7-1.3c0.5,0.1-0.2,2.7-0.7,2.6C599.7,305.3,599.7,304.8,599.9,304"/>
	<path class="st0" d="M600.8,300.9c0.2-0.6,0.5-1.3,0.7-1.3c0.4,0.1-0.2,2.7-0.7,2.6C600.6,302.2,600.6,301.7,600.8,300.9"/>
	<path class="st0" d="M601.7,297.8c0.2-0.6,0.5-1.3,0.6-1.3c0.3,0.1-0.3,2.6-0.7,2.6C601.5,299.1,601.5,298.6,601.7,297.8"/>
	<path class="st0" d="M602.6,294.7c0.2-0.6,0.4-1.3,0.5-1.3c0.2,0.1-0.4,2.6-0.7,2.6C602.3,295.9,602.4,295.5,602.6,294.7"/>
	<path class="st0" d="M603.5,291.6c0.2-0.6,0.4-1.3,0.5-1.3c0.2,0-0.5,2.6-0.7,2.6C603.2,292.8,603.3,292.4,603.5,291.6"/>
	<path class="st0" d="M604.4,288.5c0.2-0.6,0.4-1.3,0.4-1.3c0.1,0-0.5,2.6-0.7,2.6C604.1,289.7,604.2,289.3,604.4,288.5"/>
	<path class="st0" d="M605.3,285.4c0.2-0.6,0.4-1.4,0.4-1.4c0,0-0.6,2.6-0.7,2.6C604.9,286.6,605,286.2,605.3,285.4"/>
	<path class="st0" d="M606.2,282.3c0.2-0.6,0.4-1.4,0.3-1.4c-0.1,0-0.7,2.5-0.7,2.6C605.8,283.5,605.9,283.1,606.2,282.3"/>
	<path class="st0" d="M607.1,279.2c0.2-0.6,0.3-1.4,0.2-1.4c-0.2,0-0.7,2.5-0.7,2.6C606.7,280.4,606.8,280,607.1,279.2"/>
	<path class="st0" d="M608,276.1c0.2-0.6,0.3-1.4,0.2-1.4c-0.2-0.1-0.8,2.5-0.7,2.6C607.5,277.3,607.7,276.9,608,276.1"/>
	<path class="st0" d="M608.9,273c0.2-0.6,0.3-1.4,0.1-1.4c-0.3-0.1-0.9,2.5-0.7,2.6C608.4,274.2,608.6,273.8,608.9,273"/>
	<path class="st0" d="M609.7,270.1c0.1-0.3,0.2-0.6,0.2-0.8c0.1-0.7-0.2-1.4-0.5-0.1c-0.3,1-0.5,2.2-0.1,1.8
		C609.3,270.9,609.5,270.6,609.7,270.1"/>
	<path class="st0" d="M585,370.4c0-0.9,1-1.6,2.2-1.2c1.8,0.6,0.9,3.3-1.2,2.5C585.4,371.5,585,371,585,370.4"/>
	<path class="st0" d="M585.8,367.3c0-0.9,1-1.6,2.2-1.2c1.8,0.6,0.9,3.3-1.2,2.6C586.2,368.4,585.7,367.9,585.8,367.3"/>
	<path class="st0" d="M586.5,364.1c0-0.9,1-1.6,2.1-1.2c1.7,0.6,0.8,3.3-1.2,2.6C586.9,365.2,586.5,364.7,586.5,364.1"/>
	<path class="st0" d="M587.3,361c0-0.9,1-1.6,2-1.2c1.6,0.6,0.8,3.3-1.1,2.6C587.6,362.1,587.2,361.6,587.3,361"/>
	<path class="st0" d="M588,357.8c0-0.9,1-1.6,2-1.2c1.6,0.6,0.7,3.3-1.1,2.6C588.3,358.9,588,358.4,588,357.8"/>
	<path class="st0" d="M588.8,354.7c0-0.9,0.9-1.6,1.9-1.2c1.5,0.6,0.7,3.3-1.1,2.6C589.1,355.8,588.7,355.3,588.8,354.7"/>
	<path class="st0" d="M589.5,351.5c0.1-0.9,0.9-1.6,1.8-1.3c1.4,0.6,0.6,3.3-1.1,2.6C589.8,352.6,589.5,352.1,589.5,351.5"/>
	<path class="st0" d="M590.3,348.4c0.1-0.9,0.9-1.6,1.8-1.3c1.4,0.6,0.6,3.2-1.1,2.6C590.5,349.5,590.2,349,590.3,348.4"/>
	<path class="st0" d="M591,345.3c0.1-0.9,0.9-1.6,1.7-1.3c1.3,0.5,0.5,3.2-1,2.6C591.3,346.4,591,345.9,591,345.3"/>
	<path class="st0" d="M591.8,342.1c0.1-0.9,0.8-1.6,1.6-1.3c1.2,0.5,0.5,3.2-1,2.6C592,343.2,591.7,342.7,591.8,342.1"/>
	<path class="st0" d="M592.5,339c0.1-0.9,0.8-1.7,1.6-1.3c1.2,0.5,0.4,3.2-1,2.6C592.7,340.1,592.5,339.6,592.5,339"/>
	<path class="st0" d="M593.3,335.8c0.1-0.9,0.8-1.7,1.5-1.3c1.1,0.5,0.4,3.2-1,2.6C593.4,336.9,593.2,336.4,593.3,335.8"/>
	<path class="st0" d="M594,332.7c0.1-0.9,0.8-1.7,1.4-1.4c1,0.5,0.3,3.2-0.9,2.6C594.2,333.8,594,333.3,594,332.7"/>
	<path class="st0" d="M594.8,329.5c0.1-0.9,0.7-1.7,1.4-1.4c1,0.5,0.2,3.2-0.9,2.6C594.9,330.6,594.7,330.1,594.8,329.5"/>
	<path class="st0" d="M595.5,326.4c0.1-0.9,0.7-1.7,1.3-1.4c0.9,0.5,0.2,3.2-0.9,2.6C595.6,327.5,595.5,327,595.5,326.4"/>
	<path class="st0" d="M596.3,323.3c0.1-0.9,0.7-1.7,1.2-1.4c0.8,0.4,0.1,3.1-0.9,2.6C596.3,324.4,596.2,323.9,596.3,323.3"/>
	<path class="st0" d="M597,320.1c0.1-0.9,0.7-1.7,1.2-1.4c0.8,0.4,0.1,3.1-0.9,2.6C597.1,321.2,597,320.7,597,320.1"/>
	<path class="st0" d="M597.8,317c0.1-0.9,0.6-1.7,1.1-1.4c0.7,0.4,0,3.1-0.8,2.6C597.8,318.1,597.7,317.6,597.8,317"/>
	<path class="st0" d="M598.5,313.9c0.2-0.9,0.6-1.7,1-1.4c0.6,0.4,0,3.1-0.8,2.6C598.5,314.9,598.4,314.4,598.5,313.9"/>
	<path class="st0" d="M599.3,310.7c0.2-0.9,0.6-1.7,1-1.5c0.6,0.4-0.1,3.1-0.8,2.6C599.3,311.7,599.2,311.3,599.3,310.7"/>
	<path class="st0" d="M600,307.6c0.2-0.9,0.6-1.7,0.9-1.5c0.5,0.4-0.1,3.1-0.8,2.6C600,308.6,599.9,308.1,600,307.6"/>
	<path class="st0" d="M600.8,304.5c0.2-0.9,0.5-1.7,0.8-1.5c0.4,0.4-0.2,3.1-0.8,2.6C600.7,305.5,600.7,305,600.8,304.5"/>
	<path class="st0" d="M601.5,301.3c0.2-0.9,0.5-1.7,0.8-1.5c0.4,0.3-0.2,3.1-0.7,2.6C601.4,302.3,601.4,301.9,601.5,301.3"/>
	<path class="st0" d="M602.3,298.2c0.2-0.9,0.5-1.7,0.7-1.5c0.3,0.3-0.3,3.1-0.7,2.7C602.2,299.2,602.2,298.7,602.3,298.2"/>
	<path class="st0" d="M603,295c0.2-0.9,0.5-1.7,0.6-1.5c0.2,0.3-0.3,3-0.7,2.7C602.9,296,602.9,295.6,603,295"/>
	<path class="st0" d="M603.8,291.9c0.2-0.9,0.5-1.7,0.6-1.5c0.2,0.3-0.4,3-0.7,2.7C603.6,292.9,603.7,292.4,603.8,291.9"/>
	<path class="st0" d="M604.5,288.7c0.2-0.9,0.4-1.7,0.5-1.6c0.1,0.3-0.4,3-0.7,2.7C604.4,289.7,604.4,289.3,604.5,288.7"/>
	<path class="st0" d="M605.3,285.6c0.2-0.9,0.4-1.8,0.4-1.6c0,0.3-0.5,3-0.6,2.7C605.1,286.6,605.2,286.2,605.3,285.6"/>
	<path class="st0" d="M606,282.5c0.2-0.9,0.4-1.8,0.4-1.6c0,0.3-0.5,3-0.6,2.7C605.8,283.5,605.9,283,606,282.5"/>
	<path class="st0" d="M606.8,279.3c0.2-0.9,0.4-1.8,0.3-1.6c-0.1,0.3-0.6,3-0.6,2.7C606.5,280.3,606.7,279.9,606.8,279.3"/>
	<path class="st0" d="M607.6,276.2c0.2-0.9,0.3-1.8,0.2-1.6c-0.1,0.2-0.7,3-0.6,2.7C607.3,277.2,607.4,276.7,607.6,276.2"/>
	<path class="st0" d="M608.3,273c0.3-0.9,0.3-1.8,0.2-1.6c-0.2,0.2-0.7,3-0.6,2.7C608,274,608.2,273.6,608.3,273"/>
	<path class="st0" d="M609.1,269.9c0.2-0.8,0.3-1.7,0.1-1.6c-0.3,0.1-0.7,2.8-0.6,2.7C608.7,270.9,608.9,270.5,609.1,269.9"/>
	<path class="st0" d="M588.7,371c0.1-0.7,0.9-1.4,1.8-1.2c2.1,0.4,1.4,3.2-0.5,2.8C589.2,372.5,588.6,371.9,588.7,371"/>
	<path class="st0" d="M589.3,367.8c0.1-0.7,0.9-1.4,1.8-1.2c2,0.4,1.4,3.2-0.5,2.8C589.8,369.3,589.2,368.7,589.3,367.8"/>
	<path class="st0" d="M590,364.7c0.1-0.7,0.8-1.4,1.7-1.2c2,0.3,1.3,3.2-0.5,2.8C590.4,366.1,589.9,365.6,590,364.7"/>
	<path class="st0" d="M590.6,361.5c0.1-0.7,0.8-1.4,1.7-1.2c1.9,0.3,1.2,3.1-0.5,2.8C591,363,590.5,362.4,590.6,361.5"/>
	<path class="st0" d="M591.2,358.3c0.1-0.7,0.8-1.4,1.6-1.2c1.8,0.3,1.2,3.1-0.5,2.8C591.6,359.8,591.1,359.2,591.2,358.3"/>
	<path class="st0" d="M591.8,355.1c0.1-0.7,0.8-1.4,1.6-1.3c1.8,0.3,1.1,3.1-0.5,2.8C592.2,356.6,591.7,356,591.8,355.1"/>
	<path class="st0" d="M592.5,352c0.1-0.7,0.8-1.4,1.5-1.3c1.7,0.3,1,3.1-0.5,2.8C592.8,353.4,592.3,352.9,592.5,352"/>
	<path class="st0" d="M593.1,348.8c0.1-0.7,0.7-1.4,1.5-1.3c1.6,0.3,1,3.1-0.5,2.8C593.4,350.3,593,349.7,593.1,348.8"/>
	<path class="st0" d="M593.7,345.7c0.1-0.7,0.7-1.4,1.4-1.3c1.6,0.3,0.9,3.1-0.5,2.8C594,347.1,593.6,346.6,593.7,345.7"/>
	<path class="st0" d="M594.3,342.5c0.1-0.7,0.7-1.4,1.4-1.3c1.5,0.3,0.9,3.1-0.5,2.8C594.6,343.9,594.2,343.4,594.3,342.5"/>
	<path class="st0" d="M595,339.3c0.1-0.7,0.7-1.4,1.3-1.3c1.4,0.2,0.8,3.1-0.5,2.8C595.2,340.8,594.8,340.2,595,339.3"/>
	<path class="st0" d="M595.6,336.1c0.1-0.7,0.7-1.4,1.3-1.3c1.3,0.2,0.7,3.1-0.5,2.8C595.8,337.6,595.5,337,595.6,336.1"/>
	<path class="st0" d="M596.2,333c0.1-0.7,0.6-1.4,1.2-1.3c1.3,0.2,0.7,3.1-0.5,2.8C596.4,334.4,596.1,333.9,596.2,333"/>
	<path class="st0" d="M596.8,329.8c0.1-0.7,0.6-1.4,1.2-1.3c1.2,0.2,0.6,3-0.5,2.8C597,331.2,596.7,330.7,596.8,329.8"/>
	<path class="st0" d="M597.5,326.6c0.1-0.7,0.6-1.4,1.1-1.3c1.1,0.2,0.6,3-0.5,2.8C597.6,328,597.3,327.5,597.5,326.6"/>
	<path class="st0" d="M598.1,323.5c0.1-0.7,0.6-1.4,1-1.4c1.1,0.2,0.5,3-0.5,2.8C598.2,324.9,597.9,324.4,598.1,323.5"/>
	<path class="st0" d="M598.7,320.3c0.1-0.7,0.5-1.4,1-1.4c1,0.2,0.4,3-0.5,2.8C598.8,321.7,598.6,321.2,598.7,320.3"/>
	<path class="st0" d="M599.3,317.1c0.1-0.7,0.5-1.4,0.9-1.4c0.9,0.2,0.4,3-0.5,2.8C599.4,318.5,599.2,318,599.3,317.1"/>
	<path class="st0" d="M599.9,314c0.1-0.7,0.5-1.4,0.9-1.4c0.8,0.2,0.3,3-0.5,2.8C600,315.4,599.8,314.9,599.9,314"/>
	<path class="st0" d="M600.6,310.8c0.1-0.7,0.5-1.5,0.8-1.4c0.8,0.1,0.2,3-0.5,2.8C600.6,312.2,600.4,311.7,600.6,310.8"/>
	<path class="st0" d="M601.2,307.6c0.1-0.7,0.5-1.5,0.8-1.4c0.7,0.1,0.2,3-0.5,2.8C601.2,309,601,308.5,601.2,307.6"/>
	<path class="st0" d="M601.8,304.5c0.1-0.7,0.4-1.5,0.7-1.4c0.6,0.1,0.1,3-0.5,2.8C601.8,305.9,601.7,305.4,601.8,304.5"/>
	<path class="st0" d="M602.4,301.3c0.1-0.7,0.4-1.5,0.7-1.4c0.6,0.1,0.1,2.9-0.5,2.8C602.4,302.7,602.3,302.2,602.4,301.3"/>
	<path class="st0" d="M603.1,298.1c0.1-0.7,0.4-1.5,0.6-1.4c0.5,0.1,0,2.9-0.5,2.8C603,299.5,602.9,299,603.1,298.1"/>
	<path class="st0" d="M603.7,295c0.1-0.7,0.4-1.5,0.6-1.4c0.4,0.1-0.1,2.9-0.5,2.8C603.6,296.3,603.5,295.8,603.7,295"/>
	<path class="st0" d="M604.3,291.8c0.1-0.7,0.4-1.5,0.5-1.4c0.3,0.1-0.1,2.9-0.5,2.8C604.2,293.2,604.1,292.7,604.3,291.8"/>
	<path class="st0" d="M604.9,288.6c0.1-0.7,0.3-1.5,0.5-1.5c0.3,0.1-0.2,2.9-0.5,2.8C604.8,290,604.8,289.5,604.9,288.6"/>
	<path class="st0" d="M605.6,285.4c0.1-0.7,0.3-1.5,0.4-1.5c0.2,0-0.3,2.9-0.5,2.8C605.4,286.8,605.4,286.3,605.6,285.4"/>
	<path class="st0" d="M606.2,282.3c0.1-0.7,0.3-1.5,0.4-1.5c0.1,0-0.3,2.9-0.5,2.8C606,283.7,606,283.2,606.2,282.3"/>
	<path class="st0" d="M606.8,279.1c0.1-0.7,0.3-1.5,0.3-1.5c0.1,0-0.4,2.9-0.5,2.8C606.6,280.5,606.6,280,606.8,279.1"/>
	<path class="st0" d="M607.4,276c0.1-0.7,0.3-1.5,0.3-1.5c0,0-0.5,2.9-0.5,2.8C607.2,277.3,607.2,276.8,607.4,276"/>
	<path class="st0" d="M608.1,272.8c0.1-0.7,0.2-1.5,0.2-1.5c-0.1,0-0.5,2.9-0.5,2.8C607.8,274.1,607.9,273.7,608.1,272.8"/>
	<path class="st0" d="M608.6,269.8c0.2-1.1,0.3-2.1,0.2-1.6c-0.1,0.2-0.3,1.1-0.4,1.9c-0.1,0.5-0.1,1.1,0,0.8
		C608.4,270.7,608.5,270.4,608.6,269.8"/>
	<path class="st0" d="M592.2,371.7c0-0.9,0.8-1.6,1.7-1.4c0.9,0.1,1.4,0.9,1.3,1.6c-0.1,0.9-1.2,1.8-2.4,1
		C592.6,372.8,592.2,372.4,592.2,371.7"/>
	<path class="st0" d="M592.7,368.6c0-0.9,0.8-1.6,1.7-1.4c0.9,0.1,1.4,0.9,1.3,1.6c-0.1,0.9-1.2,1.8-2.4,1.1
		C593.1,369.6,592.7,369.2,592.7,368.6"/>
	<path class="st0" d="M593.2,365.4c0-0.9,0.7-1.6,1.6-1.4c0.9,0.1,1.3,0.9,1.3,1.6c-0.1,0.9-1.2,1.8-2.3,1.1
		C593.6,366.4,593.2,366,593.2,365.4"/>
	<path class="st0" d="M593.7,362.2c0-0.9,0.7-1.6,1.6-1.5c0.9,0.1,1.3,0.9,1.2,1.6c-0.1,0.9-1.1,1.9-2.2,1.1
		C594,363.2,593.7,362.8,593.7,362.2"/>
	<path class="st0" d="M594.2,359c0-0.9,0.7-1.6,1.5-1.5c0.8,0.1,1.2,0.9,1.2,1.6c-0.1,0.9-1.1,1.9-2.2,1.1
		C594.5,360,594.2,359.6,594.2,359"/>
	<path class="st0" d="M594.7,355.8c0-0.9,0.7-1.6,1.5-1.5c0.8,0.1,1.2,0.9,1.1,1.6c-0.1,0.9-1.1,1.9-2.1,1.1
		C595,356.9,594.7,356.4,594.7,355.8"/>
	<path class="st0" d="M595.3,352.6c0-0.9,0.7-1.6,1.4-1.5c0.8,0.1,1.1,0.9,1.1,1.6c-0.1,0.9-1,1.9-2,1.1
		C595.5,353.7,595.2,353.3,595.3,352.6"/>
	<path class="st0" d="M595.8,349.4c0-0.9,0.7-1.6,1.4-1.5c0.7,0.1,1.1,0.9,1,1.6c-0.1,0.9-1,1.9-2,1.1
		C596,350.5,595.7,350.1,595.8,349.4"/>
	<path class="st0" d="M596.3,346.2c0.1-0.9,0.6-1.6,1.3-1.5c0.7,0.1,1,0.9,1,1.6c-0.1,0.9-1,1.9-1.9,1.1
		C596.5,347.3,596.2,346.9,596.3,346.2"/>
	<path class="st0" d="M596.8,343c0.1-0.9,0.6-1.6,1.3-1.5c0.7,0.1,1,0.9,0.9,1.6c-0.1,0.9-1,1.9-1.8,1.1
		C597,344.1,596.7,343.7,596.8,343"/>
	<path class="st0" d="M597.3,339.8c0.1-0.9,0.6-1.6,1.2-1.5c0.6,0.1,0.9,0.9,0.9,1.6c-0.1,0.9-0.9,1.9-1.7,1.1
		C597.5,340.9,597.2,340.5,597.3,339.8"/>
	<path class="st0" d="M597.8,336.7c0.1-0.9,0.6-1.6,1.2-1.5c0.6,0.1,0.9,0.9,0.8,1.6c-0.1,0.9-0.9,1.9-1.7,1.1
		C598,337.7,597.7,337.3,597.8,336.7"/>
	<path class="st0" d="M598.3,333.5c0.1-0.9,0.6-1.6,1.2-1.5c0.6,0.1,0.9,0.9,0.8,1.6c-0.1,0.9-0.9,1.9-1.6,1.2
		C598.5,334.5,598.3,334.1,598.3,333.5"/>
	<path class="st0" d="M598.8,330.3c0.1-0.9,0.6-1.6,1.1-1.5c0.5,0.1,0.8,0.8,0.7,1.6c-0.1,0.9-0.8,1.9-1.5,1.2
		C599,331.3,598.8,330.9,598.8,330.3"/>
	<path class="st0" d="M599.3,327.1c0.1-0.9,0.5-1.6,1.1-1.5c0.5,0.1,0.8,0.8,0.7,1.6c-0.1,0.9-0.8,1.9-1.5,1.2
		C599.5,328.1,599.3,327.7,599.3,327.1"/>
	<path class="st0" d="M599.8,323.9c0.1-0.9,0.5-1.6,1-1.5c0.5,0.1,0.7,0.8,0.6,1.5c-0.1,0.9-0.8,1.9-1.4,1.2
		C599.9,325,599.8,324.6,599.8,323.9"/>
	<path class="st0" d="M600.3,320.7c0.1-0.9,0.5-1.6,1-1.5c0.5,0,0.7,0.8,0.6,1.5c-0.1,0.9-0.8,1.9-1.3,1.2
		C600.4,321.8,600.3,321.4,600.3,320.7"/>
	<path class="st0" d="M600.8,317.5c0.1-0.9,0.5-1.6,0.9-1.6c0.4,0,0.6,0.8,0.5,1.5c-0.1,0.9-0.7,1.9-1.3,1.2
		C600.9,318.6,600.8,318.2,600.8,317.5"/>
	<path class="st0" d="M601.4,314.3c0.1-0.9,0.5-1.6,0.9-1.6c0.4,0,0.6,0.8,0.5,1.5c-0.1,0.9-0.7,1.9-1.2,1.2
		C601.4,315.4,601.3,315,601.4,314.3"/>
	<path class="st0" d="M601.9,311.1c0.1-0.9,0.5-1.6,0.8-1.6c0.4,0,0.5,0.8,0.4,1.5c-0.1,0.9-0.7,1.9-1.1,1.2
		C601.9,312.2,601.8,311.8,601.9,311.1"/>
	<path class="st0" d="M602.4,307.9c0.1-0.9,0.4-1.6,0.8-1.6c0.3,0,0.5,0.8,0.4,1.5c-0.1,0.9-0.6,1.9-1.1,1.2
		C602.4,309,602.3,308.6,602.4,307.9"/>
	<path class="st0" d="M602.9,304.8c0.1-0.9,0.4-1.6,0.7-1.6c0.3,0,0.4,0.8,0.3,1.5c-0.1,0.9-0.6,1.9-1,1.2
		C602.9,305.8,602.8,305.4,602.9,304.8"/>
	<path class="st0" d="M603.4,301.6c0.1-0.9,0.4-1.6,0.7-1.6c0.3,0,0.4,0.8,0.3,1.5c-0.1,0.9-0.6,1.9-0.9,1.3
		C603.4,302.6,603.3,302.3,603.4,301.6"/>
	<path class="st0" d="M603.9,298.4c0.1-0.9,0.4-1.6,0.7-1.6c0.2,0,0.3,0.8,0.2,1.5c-0.1,0.9-0.6,1.9-0.8,1.3
		C603.9,299.4,603.8,299.1,603.9,298.4"/>
	<path class="st0" d="M604.4,295.2c0.1-0.9,0.4-1.6,0.6-1.6c0.2,0,0.3,0.8,0.2,1.5c-0.1,0.9-0.5,1.9-0.8,1.3
		C604.4,296.2,604.3,295.9,604.4,295.2"/>
	<path class="st0" d="M604.9,292c0.1-0.9,0.4-1.6,0.6-1.6c0.2,0,0.2,0.8,0.1,1.5c-0.1,0.9-0.5,1.9-0.7,1.3
		C604.9,293,604.8,292.7,604.9,292"/>
	<path class="st0" d="M605.4,288.8c0.1-0.9,0.4-1.6,0.5-1.6c0.2,0,0.2,0.8,0.1,1.5c-0.1,0.9-0.5,1.9-0.6,1.3
		C605.4,289.8,605.3,289.5,605.4,288.8"/>
	<path class="st0" d="M605.9,285.6c0.1-0.9,0.3-1.6,0.5-1.6c0.1,0,0.1,0.8,0.1,1.5c-0.1,0.9-0.5,1.9-0.6,1.3
		C605.9,286.6,605.8,286.3,605.9,285.6"/>
	<path class="st0" d="M606.4,282.5c0.1-0.9,0.3-1.6,0.4-1.6c0.1,0,0.1,0.7,0,1.5c-0.1,0.9-0.4,1.9-0.5,1.3
		C606.3,283.5,606.3,283.1,606.4,282.5"/>
	<path class="st0" d="M606.9,279.3c0.1-0.9,0.3-1.6,0.4-1.6c0.1,0,0,0.7,0,1.5c-0.1,0.9-0.4,1.9-0.4,1.3
		C606.8,280.3,606.8,279.9,606.9,279.3"/>
	<path class="st0" d="M607.5,276.1c0.1-0.9,0.3-1.6,0.3-1.6c0,0,0,0.7-0.1,1.4c-0.1,0.9-0.4,1.9-0.4,1.3
		C607.3,277.1,607.4,276.7,607.5,276.1"/>
	<path class="st0" d="M608,272.9c0.1-0.9,0.3-1.6,0.3-1.7c0,0,0,0.7-0.1,1.4c-0.1,0.9-0.3,1.9-0.3,1.3
		C607.8,273.9,607.9,273.5,608,272.9"/>
	<path class="st0" d="M608.5,269.7c0.1-0.8,0.3-1.6,0.2-1.6c0,0-0.1,0.7-0.2,1.4c-0.1,0.9-0.2,1.5-0.2,1.5
		C608.3,271,608.3,270.5,608.5,269.7"/>
	<path class="st0" d="M595.5,372.3c-0.1-1.8,2.5-2.1,2.9-0.6c0.3,1.1-0.8,2.7-2.2,1.8C596,373.4,595.5,373,595.5,372.3"/>
	<path class="st0" d="M595.9,369.1c0-0.8,0.4-1.4,1-1.6c1.1-0.4,2.1,0.6,1.8,1.8C598.4,371.1,596,370.8,595.9,369.1"/>
	<path class="st0" d="M596.3,365.9c0-1.2,1.1-2.1,2.2-1.4c1.1,0.7,0.7,3.2-1.1,2.8C596.7,367.1,596.3,366.5,596.3,365.9"/>
	<path class="st0" d="M596.7,362.7c0-1.2,1.1-2.1,2.1-1.4c0.9,0.6,0.8,2.8-0.7,2.9C597.3,364.1,596.7,363.5,596.7,362.7"/>
	<path class="st0" d="M597.1,359.5c0-0.8,0.4-1.4,0.9-1.6c1.2-0.4,1.8,0.8,1.7,1.8C599.4,361.5,597.2,361.1,597.1,359.5"/>
	<path class="st0" d="M597.5,356.3c0-1.8,2.2-2.2,2.5-0.6c0.3,1.1-0.7,2.7-1.9,1.9C597.9,357.4,597.5,357,597.5,356.3"/>
	<path class="st0" d="M597.9,353c0-0.8,0.5-1.4,0.9-1.6c1.1-0.4,2,0.9,1.4,2.2C599.7,354.9,597.9,354.5,597.9,353"/>
	<path class="st0" d="M598.3,349.8c0-1.1,1-2.1,1.8-1.5c1,0.7,0.5,2.8-0.6,2.9C598.9,351.3,598.3,350.7,598.3,349.8"/>
	<path class="st0" d="M598.7,346.7c0-1.2,1-2.1,1.8-1.5c0.8,0.6,0.7,2.8-0.6,2.9C599.2,348.1,598.7,347.5,598.7,346.7"/>
	<path class="st0" d="M599.1,343.5c0-0.8,0.4-1.4,0.8-1.6c1-0.4,1.5,0.7,1.4,1.8C601,345.4,599.1,345.1,599.1,343.5"/>
	<path class="st0" d="M599.6,340.2c0-1.8,1.8-2.2,2.1-0.7c0.2,1.1-0.7,2.7-1.6,1.9C599.9,341.4,599.5,341,599.6,340.2"/>
	<path class="st0" d="M600,337c0-0.8,0.4-1.4,0.8-1.6c0.9-0.4,1.6,0.9,1.1,2.2C601.3,338.9,599.9,338.5,600,337"/>
	<path class="st0" d="M600.4,333.8c0-1.1,0.8-2.1,1.5-1.5c0.8,0.7,0.4,2.8-0.6,2.9C600.8,335.2,600.3,334.6,600.4,333.8"/>
	<path class="st0" d="M600.8,330.6c0-0.9,0.5-1.6,1-1.7c0.6-0.1,1.2,1,0.7,2.3C602.1,332.4,600.7,332.2,600.8,330.6"/>
	<path class="st0" d="M601.2,327.4c0-0.8,0.3-1.4,0.7-1.6c0.7-0.4,1.3,0.5,1.1,1.7C602.7,329.3,601.1,329.1,601.2,327.4"/>
	<path class="st0" d="M601.6,324.2c0.1-1.8,1.5-2.2,1.7-0.7c0.2,1.1-0.6,2.7-1.4,1.9C601.8,325.3,601.6,325,601.6,324.2"/>
	<path class="st0" d="M602,321c0-0.8,0.4-1.4,0.6-1.6c0.7-0.5,1.3,0.8,0.8,2.2C603,322.8,601.9,322.5,602,321"/>
	<path class="st0" d="M602.4,317.8c0.1-1.1,0.7-2.1,1.2-1.5c0.6,0.7,0.2,2.8-0.5,2.9C602.7,319.2,602.4,318.6,602.4,317.8"/>
	<path class="st0" d="M602.8,314.6c0-0.9,0.4-1.6,0.8-1.7c0.5-0.1,0.9,1,0.5,2.2C603.7,316.3,602.7,316.2,602.8,314.6"/>
	<path class="st0" d="M603.2,311.4c0-0.8,0.3-1.4,0.6-1.6c0.5-0.4,0.9,0.5,0.8,1.7C604.3,313.2,603.1,313.1,603.2,311.4"/>
	<path class="st0" d="M603.6,308.2c0.1-1.1,0.6-2.2,1-1.6c0.5,0.6,0.1,3.2-0.7,2.9C603.7,309.4,603.6,308.8,603.6,308.2"/>
	<path class="st0" d="M604,305c0.1-0.8,0.3-1.4,0.5-1.6c0.5-0.5,0.9,0.8,0.6,2.1C604.7,306.8,603.9,306.5,604,305"/>
	<path class="st0" d="M604.4,301.8c0.1-1.1,0.6-2.2,0.9-1.6c0.4,0.6,0.1,2.8-0.5,2.9C604.6,303.2,604.4,302.6,604.4,301.8"/>
	<path class="st0" d="M604.8,298.6c0.1-0.9,0.3-1.7,0.6-1.7c0.3-0.1,0.6,0.9,0.3,2.2C605.4,300.3,604.7,300.2,604.8,298.6"/>
	<path class="st0" d="M605.2,295.4c0.1-0.8,0.2-1.4,0.4-1.6c0.3-0.4,0.6,0.4,0.5,1.7C605.9,297.2,605.1,297,605.2,295.4"/>
	<path class="st0" d="M605.6,292.2c0.1-1.1,0.5-2.2,0.7-1.6c0.3,0.6,0,3.2-0.5,2.9C605.6,293.4,605.6,292.8,605.6,292.2"/>
	<path class="st0" d="M606.1,289c0.1-1.2,0.5-2.1,0.7-1.6c0.2,0.5,0.1,2.7-0.4,2.9C606.1,290.4,606,289.8,606.1,289"/>
	<path class="st0" d="M606.5,285.8c0.1-0.8,0.2-1.4,0.4-1.6c0.3-0.5,0.4,0.6,0.3,1.6C606.9,287.6,606.3,287.4,606.5,285.8"/>
	<path class="st0" d="M606.9,282.6c0.1-0.9,0.3-1.7,0.4-1.8c0.2-0.1,0.3,0.9,0.1,2.2C607.1,284.2,606.7,284.2,606.9,282.6"/>
	<path class="st0" d="M607.3,279.4c0.1-0.8,0.2-1.4,0.3-1.6c0.2-0.5,0.3,0.4,0.2,1.6C607.5,281.1,607.1,281,607.3,279.4"/>
	<path class="st0" d="M607.7,276.2c0.1-1.1,0.3-2.2,0.4-1.6c0.1,0.6-0.2,3.1-0.4,2.9C607.6,277.4,607.6,276.8,607.7,276.2"/>
	<path class="st0" d="M608.1,273c0.2-1.2,0.3-2.2,0.4-1.6c0.1,0.5-0.1,2.7-0.4,2.9C608,274.3,608,273.8,608.1,273"/>
	<path class="st0" d="M608.5,269.7c0.1-0.9,0.2-1.8,0.3-1.7c0.2,0.1-0.2,3.1-0.3,3C608.4,271,608.4,270.5,608.5,269.7"/>
	<path class="st0" d="M598.6,372.6c-0.1-1,0.7-1.9,1.8-1.7c1.6,0.3,1.3,3-0.2,3.1C599.3,374.1,598.6,373.4,598.6,372.6"/>
	<path class="st0" d="M598.9,369.4c-0.1-1,0.7-1.9,1.7-1.7c1.6,0.3,1.2,3-0.2,3.1C599.5,370.9,598.9,370.2,598.9,369.4"/>
	<path class="st0" d="M599.2,366.2c-0.1-1,0.7-1.9,1.7-1.7c1.6,0.3,1.2,3-0.2,3.1C599.8,367.7,599.3,367,599.2,366.2"/>
	<path class="st0" d="M599.5,363c-0.1-1,0.7-1.9,1.6-1.7c1.5,0.3,1.2,3-0.2,3.1C600.1,364.5,599.6,363.8,599.5,363"/>
	<path class="st0" d="M599.9,359.8c0-1,0.7-1.9,1.6-1.7c1.5,0.3,1.1,3-0.2,3.1C600.4,361.3,599.9,360.6,599.9,359.8"/>
	<path class="st0" d="M600.2,356.6c0-1,0.7-1.9,1.5-1.7c1.4,0.3,1.1,3-0.2,3.1C600.7,358,600.2,357.4,600.2,356.6"/>
	<path class="st0" d="M600.5,353.3c0-1,0.6-1.9,1.5-1.7c1.4,0.3,1,3-0.2,3.1C601,354.8,600.5,354.1,600.5,353.3"/>
	<path class="st0" d="M600.8,350.1c0-1,0.6-1.9,1.4-1.7c1.3,0.3,1,3-0.2,3.1C601.3,351.6,600.8,350.9,600.8,350.1"/>
	<path class="st0" d="M601.1,346.9c0-1,0.6-1.9,1.4-1.7c1.3,0.3,1,3-0.2,3.1C601.6,348.4,601.1,347.7,601.1,346.9"/>
	<path class="st0" d="M601.4,343.7c0-1,0.6-1.9,1.4-1.7c1.2,0.3,0.9,3-0.2,3.1C601.9,345.2,601.5,344.5,601.4,343.7"/>
	<path class="st0" d="M601.8,340.5c0-1,0.6-1.9,1.3-1.7c1.2,0.3,0.9,3-0.2,3.1C602.2,342,601.8,341.3,601.8,340.5"/>
	<path class="st0" d="M602.1,337.3c0-1,0.6-1.9,1.3-1.7c1.2,0.3,0.9,3-0.2,3.1C602.5,338.7,602.1,338.1,602.1,337.3"/>
	<path class="st0" d="M602.4,334.1c0-1,0.5-1.9,1.2-1.7c1.1,0.3,0.8,3-0.2,3.1C602.8,335.5,602.4,334.9,602.4,334.1"/>
	<path class="st0" d="M602.7,330.8c0-1,0.5-1.9,1.2-1.7c1.1,0.3,0.8,3-0.2,3.1C603.1,332.3,602.7,331.7,602.7,330.8"/>
	<path class="st0" d="M603,327.6c0-1,0.5-1.9,1.1-1.7c1,0.3,0.7,3-0.2,3.1C603.4,329.1,603,328.4,603,327.6"/>
	<path class="st0" d="M603.3,324.4c0-1,0.5-1.9,1.1-1.7c1,0.3,0.7,3-0.2,3.1C603.7,325.9,603.3,325.3,603.3,324.4"/>
	<path class="st0" d="M603.7,321.2c0-1,0.5-1.9,1.1-1.7c0.9,0.3,0.7,3-0.2,3.1C604,322.7,603.7,322,603.7,321.2"/>
	<path class="st0" d="M604,318c0-1,0.5-1.9,1-1.7c0.9,0.3,0.6,3-0.2,3.1C604.2,319.4,604,318.8,604,318"/>
	<path class="st0" d="M604.3,314.8c0-1,0.4-1.9,1-1.7c0.9,0.3,0.6,3-0.2,3.1C604.5,316.2,604.3,315.6,604.3,314.8"/>
	<path class="st0" d="M604.6,311.6c0-1,0.4-1.9,0.9-1.7c0.8,0.3,0.5,3-0.2,3.1C604.8,313,604.6,312.4,604.6,311.6"/>
	<path class="st0" d="M604.9,308.3c0-1,0.4-1.9,0.9-1.8c0.8,0.3,0.5,3-0.2,3.1C605.1,309.8,604.9,309.2,604.9,308.3"/>
	<path class="st0" d="M605.2,305.2c0-1,0.4-1.9,0.8-1.8c0.7,0.2,0.5,3-0.2,3.1C605.4,306.6,605.2,306,605.2,305.2"/>
	<path class="st0" d="M605.6,301.9c0-1,0.4-1.9,0.8-1.8c0.7,0.2,0.4,3-0.2,3.1C605.7,303.4,605.5,302.8,605.6,301.9"/>
	<path class="st0" d="M605.9,298.7c0-1,0.4-1.9,0.7-1.8c0.6,0.2,0.4,3-0.2,3.1C606,300.2,605.8,299.5,605.9,298.7"/>
	<path class="st0" d="M606.2,295.5c0.1-1,0.3-1.9,0.7-1.8c0.6,0.2,0.3,3-0.2,3.1C606.3,296.9,606.2,296.3,606.2,295.5"/>
	<path class="st0" d="M606.5,292.3c0.1-1,0.3-1.9,0.7-1.8c0.5,0.2,0.3,3-0.3,3.1C606.6,293.7,606.5,293.1,606.5,292.3"/>
	<path class="st0" d="M606.8,289.1c0.1-1,0.3-1.9,0.6-1.8c0.5,0.2,0.3,2.9-0.3,3.1C606.9,290.5,606.8,289.9,606.8,289.1"/>
	<path class="st0" d="M607.1,285.9c0.1-1,0.3-1.9,0.6-1.8c0.5,0.2,0.2,2.9-0.3,3.1C607.2,287.3,607.1,286.7,607.1,285.9"/>
	<path class="st0" d="M607.5,282.7c0.1-1,0.3-1.9,0.5-1.8c0.4,0.2,0.2,2.9-0.3,3.1C607.5,284.1,607.4,283.5,607.5,282.7"/>
	<path class="st0" d="M607.8,279.4c0.1-1,0.3-1.9,0.5-1.8c0.4,0.2,0.1,2.9-0.3,3.1C607.8,280.9,607.7,280.3,607.8,279.4"/>
	<path class="st0" d="M608.1,276.2c0.1-1,0.2-1.9,0.4-1.8c0.3,0.2,0.1,2.9-0.3,3.1C608.1,277.7,608,277,608.1,276.2"/>
	<path class="st0" d="M608.4,273c0.1-1,0.2-1.9,0.4-1.8c0.3,0.2,0.1,2.9-0.3,3.1C608.4,274.4,608.4,273.8,608.4,273"/>
	<path class="st0" d="M608.7,269.8c0.1-0.9,0.2-1.7,0.3-1.8c0.1-0.1,0.2,0.7,0.1,1.7C609,271.5,608.5,271.5,608.7,269.8L608.7,269.8
		z"/>
	<path class="st0" d="M601.7,373.7c0.7,1.1,2.3,0.6,2.5-0.7c-0.1,1.8,2.4,1.9,2.6,0.3c0.1,1.3,1.7,1.7,2.2,0.7
		c0.1-0.2,0.1-0.4,0.2-0.5c0.1,0.8,0.7,1.3,1.4,1.2c0.5-0.1,0.7-0.6,0.9-1.1c0.3,1.5,1.8,1.5,2.1,0.1c0.2,1,1.1,1.4,1.6,0.8
		c0.2-0.2,0.2-0.5,0.4-0.7c0.2,1.3,1.6,1.3,1.8,0.1c0.3,1.3,1.5,1.2,1.6,0c0.4,1.8,1.6,1,1.5-1c0-0.6-0.2-1.1-0.4-1.4
		c0.5-0.5,0.5-2.9,0-3.2c0.6-0.4,0.6-2.9,0-3.2c0.6-0.4,0.6-2.9,0-3.2c0.6-0.4,0.6-2.9,0-3.2c0.6-0.4,0.6-2.9,0-3.2
		c0.6-0.4,0.6-2.9,0-3.2c0.6-0.3,0.6-2.8,0-3.2c0.6-0.4,0.6-2.9,0-3.2c0.6-0.4,0.6-2.9,0-3.2c0.7-0.4,0.6-2.9,0-3.2
		c0.7-0.4,0.6-2.9,0-3.2c0.7-0.4,0.6-2.9,0-3.2c0.7-0.4,0.6-2.9,0-3.2c0.7-0.3,0.7-2.8,0-3.2c0.6-0.4,0.6-2.9,0-3.2
		c0.7-0.4,0.7-2.9,0-3.2c0.7-0.4,0.7-2.9,0-3.2c0.7-0.4,0.7-2.9,0-3.2c0.7-0.4,0.7-2.9,0-3.2c0.7-0.3,0.7-2.8,0-3.2
		c0.7-0.5,0.7-2.9,0-3.2c0.7-0.4,0.7-2.9,0-3.2c0.8-0.4,0.7-2.9,0-3.2c0.8-0.4,0.7-2.9,0-3.2c0.8-0.4,0.7-2.9,0-3.2
		c0.8-0.4,0.7-2.9,0-3.2c0.8-0.3,0.8-2.8,0-3.2c0.7-0.5,0.7-2.9,0-3.2c0.8-0.4,0.8-2.9,0-3.2c0.8-0.4,0.8-2.9,0-3.2
		c0.8-0.4,0.8-2.9,0-3.2c0.3-0.3,0.6-0.8,0.6-1.6c0-1.9-1.7-2.4-2.1-0.7c-0.2-0.7-0.6-1.2-1.1-1c-0.3,0.1-0.5,0.6-0.7,1
		c-0.2-1.3-1.4-1.2-1.6,0.1c-0.2-1.4-1.3-1.3-1.4,0.1c-0.1-1.4-1.2-1.4-1.3,0.1c-0.1-1.5-1-1.5-1.1,0.1c-0.1-1.6-0.9-1.5-0.9,0.1
		c0-1.7-0.7-1.6-0.8,0.2c0.1-2-0.5-1.9-0.6,0.1c-0.1,0.9,0,1.6,0.2,1.6c0.2,0,0.3-0.6,0.4-1.5c0,0.9,0.1,1.3,0.3,1.5
		c-0.2,0.1-0.3,0.6-0.4,1.4c0.1-1.9-0.5-1.9-0.7,0c-0.2,2.2,0.5,2.3,0.6,0.4c0,0.9,0.1,1.3,0.3,1.5c-0.2,0.1-0.4,0.6-0.4,1.4
		c0-0.8-0.1-1.5-0.3-1.4c-0.2,0.1-0.4,0.9-0.4,1.7c-0.2,1.8,0.6,1.9,0.7,0.1c0,0.8,0.1,1.2,0.3,1.5c-0.2,0.1-0.4,0.6-0.5,1.4
		c0-1.9-0.7-1.8-0.8,0c-0.2,2.1,0.6,2.3,0.8,0.4c0,0.8,0.1,1.2,0.3,1.5c-0.2,0.1-0.4,0.6-0.5,1.4c0-1.9-0.7-1.8-0.9,0
		c-0.1,0.8,0,1.6,0.2,1.7c-0.5,0.2-0.7,3.3-0.1,3.2c0.3-0.1,0.4-0.6,0.5-1.4c0,0.9,0.1,1.2,0.4,1.5c-0.3,0.1-0.4,0.6-0.5,1.4
		c0-0.9-0.1-1.5-0.5-1.4c-0.3,0.1-0.5,0.9-0.6,1.7c-0.1,2,0.9,1.8,1,0.1c0,0.8,0.2,1.2,0.4,1.5c-0.3,0.1-0.5,0.6-0.6,1.4
		c0-2-1-1.8-1.1,0.3c-0.1,1.8,0.9,1.9,1.1,0.1c0,0.9,0.2,1.2,0.4,1.5c-0.3,0.1-0.5,0.6-0.6,1.4c0-2-1-1.8-1.1,0
		c-0.1,0.9,0.1,1.8,0.5,1.8c0.3,0,0.5-0.7,0.6-1.4c0,0.9,0.2,1.2,0.5,1.5c-0.3,0.1-0.5,0.6-0.6,1.4c0-0.8-0.2-1.5-0.6-1.4
		c-0.4,0.1-0.6,0.9-0.6,1.7c-0.1,1.8,1,2,1.2,0.1c0,0.8,0.2,1.3,0.5,1.5c-0.3,0.1-0.5,0.6-0.6,1.4c0-1.9-1.1-1.9-1.3,0
		c-0.2,2.1,1.1,2.3,1.3,0.4c0,0.9,0.2,1.3,0.5,1.5c-0.4,0.1-0.6,0.6-0.7,1.4c0-1.9-1.2-1.8-1.3,0c-0.1,0.8,0.1,1.6,0.5,1.7
		c-0.4,0.2-0.7,0.8-0.7,1.7c-0.1,1.9,1.2,1.9,1.4,0.1c0,0.9,0.2,1.3,0.6,1.5c-0.4,0.1-0.6,0.6-0.7,1.4c0-2-1.3-1.8-1.5,0
		c-0.1,0.8,0.1,1.7,0.6,1.8c0.5,0.1,0.8-0.6,0.9-1.4c0,0.9,0.2,1.3,0.6,1.5c-0.4,0.1-0.6,0.6-0.7,1.4c0-2.1-1.5-1.8-1.6,0.2
		c0,0.7,0.2,1.4,0.6,1.5c0.5,0.1,0.8-0.6,0.9-1.4c0,0.8,0.2,1.3,0.6,1.5c-0.4,0.1-0.6,0.6-0.8,1.4c0-2-1.5-1.8-1.6,0.2
		c-0.1,1.8,1.4,2,1.6,0.1c0,0.9,0.3,1.3,0.6,1.5c-0.4,0.1-0.7,0.6-0.8,1.4c-0.1-0.8-0.3-1.4-0.7-1.5c-1.1-0.3-1.5,3.3-0.2,3.2
		c0.4-0.1,0.7-0.6,0.8-1.4c0,0.8,0.3,1.3,0.7,1.5c-0.4,0.1-0.7,0.6-0.8,1.4c-0.1-0.8-0.3-1.4-0.7-1.5c-1.1-0.2-1.5,2.8-0.4,3.2
		c-1,0.2-1.2,3-0.2,3.2c0.5,0.1,1-0.6,1.1-1.3c0,0.9,0.3,1.3,0.7,1.5c-0.5,0.1-0.7,0.6-0.9,1.4c-0.1-0.8-0.3-1.4-0.8-1.5
		c-0.7-0.1-1.1,0.7-1.1,1.7c-0.1,1.8,1.7,2,1.9,0.2c0,0.9,0.3,1.3,0.7,1.5c-0.5,0.1-0.8,0.6-0.9,1.4c0-2-1.7-1.8-1.9,0
		c-0.1,0.8,0.2,1.7,0.8,1.8c0.6,0.1,1-0.6,1.2-1.3c0,0.9,0.3,1.3,0.8,1.5c-0.5,0.1-0.8,0.6-0.9,1.4c-0.1-1.9-1.8-1.9-2-0.1
		c-0.2,2.1,1.8,2.4,2,0.4c0,0.8,0.3,1.3,0.8,1.5c-0.5,0.1-0.8,0.6-1,1.4c0-1.9-1.8-2-2.1-0.1c-0.1,0.8,0.2,1.7,0.9,1.8
		c0.8,0.1,0.9-0.5,1.2-1.3c0,0.9,0.3,1.3,0.8,1.5c-0.5,0.1-0.8,0.6-1,1.4c0-1.9-1.9-1.9-2.2-0.1c-0.1,0.9,0.3,1.9,1.1,1.8
		c0.6,0,0.9-0.6,1.1-1.3c0,0.8,0.4,1.3,0.8,1.5c-0.5,0.1-0.8,0.6-1,1.4c0-0.9-0.5-1.5-1.1-1.5c-1.3,0.1-1.5,2.9-0.3,3.2
		c-0.6,0.1-1,0.7-1.1,1.4c-0.2,2,2,2.5,2.3,0.5c0,0.9,0.4,1.3,0.9,1.5c-0.6,0.1-0.9,0.6-1.1,1.4c0-2-2.3-1.9-2.4,0.2
		c0,1.9,2.1,2,2.4,0.2c0,0.9,0.4,1.3,0.9,1.5c-0.6,0.1-0.9,0.6-1.1,1.4c-0.1-2.1-2.4-1.8-2.4,0.2c0,1.9,2.2,2,2.4,0.2
		c0,0.8,0.4,1.3,0.9,1.5c-0.6,0.1-0.9,0.6-1.1,1.4c-0.1-2-2.2-1.9-2.5-0.1c-0.1,0.9,0.4,1.8,1.3,1.8c0.6,0,1.1-0.6,1.2-1.3
		c0,0.9,0.4,1.3,1,1.5c-0.6,0.1-1,0.6-1.1,1.4c-0.2-0.9-0.4-1.5-1.3-1.5c-0.7,0-1.3,0.8-1.3,1.7c0,2,2.3,2,2.6,0.2
		c0,0.9,0.4,1.3,1,1.5c-0.6,0.1-1,0.6-1.2,1.4c-0.1-1.9-2.3-1.9-2.6-0.1c-0.1,0.9,0.3,1.7,1.1,1.8c0.9,0.1,1.3-0.5,1.5-1.3
		c0,0.9,0.4,1.3,1,1.5c-0.7,0.1-1,0.6-1.2,1.4c-0.1-2-2.7-1.9-2.7,0.2c0,0.8,0.5,1.3,1.1,1.6C601.7,371.1,601.1,372.7,601.7,373.7
		 M603.2,371.1c0.6-0.2,1.1-0.6,1.2-1.4c0.1,0.8,0.4,1.2,0.9,1.5c-0.6,0.1-0.9,0.6-1.1,1.3C604.1,371.9,603.9,371.3,603.2,371.1
		 M604.6,348.6c0.5-0.2,0.9-0.6,1-1.4c0.1,0.8,0.4,1.2,0.8,1.5c-0.5,0.1-0.8,0.6-0.9,1.3C605.4,349.3,605.2,348.7,604.6,348.6
		 M606,326c0.4-0.2,0.7-0.6,0.8-1.4c0,0.8,0.3,1.2,0.6,1.5c-0.4,0.1-0.6,0.6-0.7,1.3C606.6,326.7,606.4,326.1,606,326 M607.2,306.7
		c0.3-0.2,0.6-0.6,0.7-1.4c0,0.8,0.2,1.2,0.5,1.5c-0.3,0.1-0.5,0.6-0.6,1.3C607.6,307.4,607.5,306.8,607.2,306.7 M608.6,284.1
		c0.2-0.2,0.4-0.6,0.5-1.4c0,0.8,0.1,1.2,0.3,1.5c-0.2,0.2-0.4,0.6-0.5,1.4C608.9,284.8,608.8,284.2,608.6,284.1 M606,368
		c0.5-0.2,0.9-0.5,1.1-1.2c0.2,0.6,0.4,1.1,0.9,1.2c-0.5,0.2-0.8,0.7-1,1.2C606.9,368.6,606.5,368.2,606,368 M606.1,364.8
		c0.5-0.2,0.9-0.5,1-1.2c0.2,0.6,0.4,1.1,0.9,1.2c-0.5,0.2-0.8,0.7-1,1.2C607,365.4,606.7,365,606.1,364.8 M606.2,361.6
		c0.5-0.2,0.9-0.5,1-1.2c0.2,0.6,0.4,1.1,0.9,1.2c-0.5,0.2-0.8,0.7-1,1.2C607.1,362.1,606.8,361.7,606.2,361.6 M606.4,358.4
		c0.5-0.2,0.9-0.5,1-1.2c0.2,0.6,0.4,1.1,0.9,1.2c-0.5,0.2-0.7,0.7-1,1.2C607.2,358.9,606.9,358.5,606.4,358.4 M606.5,355.1
		c0.5-0.2,0.9-0.5,1-1.2c0.2,0.6,0.4,1.1,0.8,1.2c-0.5,0.2-0.7,0.7-0.9,1.2C607.3,355.7,607,355.3,606.5,355.1 M606.7,351.9
		c0.5-0.2,0.8-0.5,1-1.2c0.2,0.6,0.3,1.1,0.8,1.2c-0.5,0.2-0.7,0.7-0.9,1.2C607.4,352.4,607.2,352,606.7,351.9 M606.9,345.5
		c0.5-0.2,0.8-0.5,0.9-1.2c0.2,0.6,0.3,1.1,0.8,1.2c-0.4,0.2-0.7,0.7-0.9,1.2C607.7,346,607.4,345.6,606.9,345.5 M607.1,342.2
		c0.4-0.2,0.8-0.5,0.9-1.2c0.2,0.6,0.3,1.1,0.8,1.2c-0.4,0.2-0.7,0.7-0.8,1.2C607.8,342.8,607.5,342.4,607.1,342.2 M607.2,339
		c0.4-0.2,0.8-0.5,0.9-1.2c0.2,0.6,0.3,1.1,0.7,1.2c-0.4,0.2-0.6,0.7-0.8,1.2C607.9,339.6,607.7,339.1,607.2,339 M607.3,335.8
		c0.4-0.2,0.7-0.5,0.8-1.2c0.1,0.6,0.3,1.1,0.7,1.2c-0.4,0.2-0.6,0.7-0.8,1.2C608,336.3,607.8,335.9,607.3,335.8 M607.5,332.5
		c0.4-0.2,0.7-0.5,0.8-1.2c0.1,0.6,0.3,1.1,0.7,1.2c-0.4,0.2-0.6,0.7-0.8,1.2C608.2,333.1,607.9,332.7,607.5,332.5 M607.6,329.3
		c0.4-0.2,0.7-0.5,0.8-1.2c0.1,0.6,0.3,1.1,0.7,1.2c-0.4,0.2-0.6,0.7-0.8,1.2C608.3,329.9,608,329.4,607.6,329.3 M607.9,322.9
		c0.4-0.2,0.7-0.5,0.8-1.2c0.1,0.6,0.3,1.1,0.6,1.2c-0.4,0.2-0.6,0.7-0.7,1.2C608.5,323.4,608.3,323,607.9,322.9 M608,319.7
		c0.4-0.2,0.6-0.5,0.7-1.2c0.1,0.6,0.3,1.1,0.6,1.2c-0.3,0.2-0.6,0.7-0.7,1.2C608.6,320.2,608.4,319.8,608,319.7 M608.2,316.4
		c0.3-0.2,0.6-0.5,0.7-1.2c0.1,0.6,0.3,1.1,0.6,1.2c-0.3,0.2-0.5,0.7-0.7,1.2C608.7,317,608.5,316.6,608.2,316.4 M608.3,313.2
		c0.3-0.2,0.6-0.5,0.7-1.2c0.1,0.6,0.2,1.1,0.6,1.2c-0.3,0.2-0.5,0.7-0.7,1.2C608.9,313.7,608.7,313.3,608.3,313.2 M608.4,310
		c0.3-0.2,0.6-0.5,0.7-1.2c0.1,0.6,0.2,1.1,0.6,1.2c-0.3,0.2-0.5,0.7-0.7,1.2C609,310.5,608.8,310.1,608.4,310 M608.7,303.5
		c0.3-0.2,0.5-0.5,0.6-1.2c0.1,0.6,0.2,1.1,0.5,1.2c-0.3,0.2-0.5,0.7-0.6,1.2C609.2,304.1,609,303.7,608.7,303.5 M608.9,300.3
		c0.3-0.2,0.5-0.5,0.6-1.2c0.1,0.6,0.2,1.1,0.5,1.2c-0.3,0.2-0.5,0.7-0.6,1.2C609.3,300.8,609.2,300.4,608.9,300.3 M609,297.1
		c0.3-0.2,0.5-0.5,0.6-1.2c0.1,0.5,0.2,1.1,0.5,1.2c-0.3,0.2-0.4,0.7-0.6,1.2C609.4,297.6,609.3,297.2,609,297.1 M609.1,293.8
		c0.3-0.2,0.5-0.5,0.5-1.2c0.1,0.6,0.2,1.1,0.5,1.2c-0.3,0.2-0.4,0.7-0.6,1.2C609.6,294.4,609.4,294,609.1,293.8 M609.3,290.6
		c0.2-0.2,0.4-0.5,0.5-1.2c0.1,0.6,0.2,1.1,0.4,1.2c-0.3,0.2-0.4,0.7-0.5,1.2C609.7,291.1,609.5,290.7,609.3,290.6 M609.4,287.4
		c0.2-0.2,0.4-0.5,0.5-1.2c0.1,0.6,0.2,1.1,0.4,1.2c-0.2,0.2-0.4,0.7-0.5,1.2C609.8,287.9,609.7,287.5,609.4,287.4 M609.7,281
		c0.2-0.2,0.4-0.5,0.5-1.2c0.1,0.6,0.2,1.1,0.4,1.2c-0.2,0.2-0.4,0.7-0.5,1.2C610,281.5,609.9,281.1,609.7,281 M609.8,277.7
		c0.2-0.2,0.4-0.5,0.4-1.2c0.1,0.6,0.1,1.1,0.4,1.2c-0.2,0.2-0.3,0.7-0.5,1.2C610.2,278.3,610,277.8,609.8,277.7 M610,274.5
		c0.2-0.2,0.3-0.5,0.4-1.2c0.1,0.6,0.1,1.1,0.3,1.2c-0.2,0.2-0.3,0.7-0.4,1.2C610.3,275,610.2,274.6,610,274.5 M610.1,271.3
		c0.2-0.2,0.3-0.6,0.4-1.3c0,0.6,0.1,1.1,0.3,1.3c-0.2,0.2-0.3,0.7-0.4,1.2C610.4,271.8,610.3,271.4,610.1,271.3 M605.9,371.3
		c0.5-0.2,0.9-0.5,1-1.2c0.2,0.6,0.4,1,0.9,1.3c-0.5,0.1-0.7,0.7-0.9,1.2C606.7,371.9,606.5,371.4,605.9,371.3 M606.9,348.7
		c0.4-0.3,0.7-0.5,0.8-1.2c0.1,0.6,0.4,1,0.7,1.3c-0.4,0.1-0.6,0.7-0.8,1.2C607.6,349.3,607.3,348.9,606.9,348.7 M607.8,326.1
		c0.3-0.3,0.6-0.5,0.7-1.2c0.1,0.6,0.3,1,0.6,1.3c-0.4,0.1-0.5,0.7-0.7,1.2C608.4,326.7,608.2,326.3,607.8,326.1 M608.7,306.8
		c0.2-0.3,0.5-0.5,0.6-1.2c0.1,0.6,0.2,1,0.5,1.3c-0.3,0.1-0.4,0.7-0.6,1.2C609.1,307.3,608.9,306.9,608.7,306.8 M609.6,284.2
		c0.2-0.3,0.4-0.5,0.4-1.2c0.1,0.6,0.2,1,0.4,1.3c-0.2,0.1-0.3,0.7-0.5,1.2C609.9,284.7,609.8,284.3,609.6,284.2 M608.5,368.1
		c0.4-0.2,0.7-0.5,0.9-1.1c0.2,0.5,0.4,1,0.8,1.1c-0.4,0.2-0.6,0.6-0.8,1.1C609.2,368.7,609,368.3,608.5,368.1 M608.6,364.9
		c0.4-0.2,0.7-0.5,0.9-1.1c0.2,0.5,0.4,0.9,0.8,1.1c-0.4,0.2-0.6,0.6-0.8,1.1C609.3,365.4,609,365.1,608.6,364.9 M608.7,361.7
		c0.4-0.2,0.7-0.5,0.8-1.1c0.2,0.5,0.4,1,0.8,1.1c-0.4,0.2-0.6,0.6-0.8,1.1C609.4,362.2,609.1,361.8,608.7,361.7 M608.8,358.4
		c0.4-0.2,0.7-0.5,0.8-1.1c0.2,0.5,0.4,1,0.7,1.1c-0.4,0.2-0.6,0.6-0.8,1.1C609.4,359,609.2,358.6,608.8,358.4 M608.9,355.2
		c0.4-0.2,0.7-0.5,0.8-1.1c0.2,0.5,0.3,1,0.7,1.1c-0.4,0.2-0.6,0.6-0.8,1.1C609.5,355.7,609.3,355.4,608.9,355.2 M608.9,352
		c0.4-0.2,0.7-0.5,0.8-1.1c0.2,0.5,0.3,1,0.7,1.1c-0.4,0.2-0.6,0.6-0.8,1.1C609.6,352.5,609.3,352.1,608.9,352 M609.1,345.5
		c0.4-0.2,0.7-0.5,0.8-1.1c0.2,0.5,0.3,0.9,0.7,1.1c-0.3,0.2-0.6,0.6-0.7,1.1C609.7,346.1,609.5,345.7,609.1,345.5 M609.2,342.3
		c0.3-0.2,0.6-0.5,0.7-1.1c0.2,0.5,0.3,0.9,0.7,1.1c-0.3,0.2-0.5,0.6-0.7,1.1C609.8,342.8,609.6,342.5,609.2,342.3 M609.3,339.1
		c0.3-0.2,0.6-0.5,0.7-1.1c0.2,0.5,0.3,1,0.7,1.1c-0.3,0.2-0.5,0.6-0.7,1.1C609.9,339.6,609.6,339.2,609.3,339.1 M609.4,335.8
		c0.3-0.2,0.6-0.5,0.7-1.1c0.2,0.5,0.3,0.9,0.6,1.1c-0.3,0.2-0.5,0.6-0.7,1.1C609.9,336.4,609.7,336,609.4,335.8 M609.4,332.6
		c0.3-0.2,0.6-0.5,0.7-1.1c0.2,0.5,0.3,0.9,0.6,1.1c-0.3,0.2-0.5,0.6-0.7,1.1C610,333.1,609.8,332.8,609.4,332.6 M609.5,329.4
		c0.3-0.2,0.6-0.5,0.7-1.1c0.1,0.5,0.3,0.9,0.6,1.1c-0.3,0.2-0.5,0.6-0.7,1.1C610.1,329.9,609.9,329.5,609.5,329.4 M609.7,322.9
		c0.3-0.2,0.6-0.5,0.7-1.1c0.1,0.5,0.3,0.9,0.6,1.1c-0.3,0.2-0.5,0.6-0.6,1.1C610.2,323.5,610,323.1,609.7,322.9 M609.8,319.7
		c0.3-0.2,0.5-0.5,0.6-1.1c0.1,0.5,0.3,1,0.6,1.1c-0.3,0.2-0.5,0.6-0.6,1.1C610.3,320.2,610.1,319.9,609.8,319.7 M609.9,316.5
		c0.3-0.2,0.5-0.5,0.6-1.1c0.1,0.5,0.3,0.9,0.6,1.1c-0.3,0.2-0.5,0.6-0.6,1.1C610.4,317,610.2,316.6,609.9,316.5 M610,313.2
		c0.3-0.2,0.5-0.5,0.6-1.1c0.1,0.5,0.2,0.9,0.5,1.1c-0.3,0.2-0.4,0.6-0.6,1.1C610.4,313.8,610.2,313.4,610,313.2 M610,310
		c0.3-0.2,0.5-0.5,0.6-1.1c0.1,0.5,0.2,0.9,0.5,1.1c-0.3,0.2-0.4,0.6-0.6,1.1C610.5,310.5,610.3,310.2,610,310 M610.2,303.6
		c0.3-0.2,0.5-0.5,0.6-1.1c0.1,0.5,0.2,0.9,0.5,1.1c-0.2,0.2-0.4,0.6-0.5,1.1C610.6,304.1,610.5,303.7,610.2,303.6 M610.3,300.4
		c0.2-0.2,0.5-0.5,0.5-1.1c0.1,0.5,0.2,0.9,0.5,1.1c-0.2,0.2-0.4,0.6-0.5,1.1C610.7,300.9,610.6,300.5,610.3,300.4 M610.4,297.1
		c0.2-0.2,0.5-0.5,0.5-1.1c0.1,0.5,0.2,0.9,0.5,1.1c-0.2,0.2-0.4,0.6-0.5,1.1C610.8,297.6,610.6,297.3,610.4,297.1 M610.5,293.9
		c0.2-0.2,0.4-0.5,0.5-1.1c0.1,0.5,0.2,0.9,0.5,1.1c-0.2,0.2-0.4,0.6-0.5,1.1C610.9,294.4,610.7,294,610.5,293.9 M610.5,290.6
		c0.2-0.2,0.4-0.5,0.5-1.1c0.1,0.5,0.2,0.9,0.4,1.1c-0.2,0.2-0.4,0.6-0.5,1.1C610.9,291.2,610.8,290.8,610.5,290.6 M610.6,287.4
		c0.2-0.2,0.4-0.5,0.5-1.1c0.1,0.5,0.2,0.9,0.4,1.1c-0.2,0.2-0.4,0.6-0.5,1.1C611,287.9,610.9,287.6,610.6,287.4 M610.8,281
		c0.2-0.2,0.4-0.5,0.5-1.1c0.1,0.5,0.2,0.9,0.4,1.1c-0.2,0.2-0.3,0.6-0.4,1.1C611.1,281.5,611,281.1,610.8,281 M610.9,277.8
		c0.2-0.2,0.4-0.5,0.4-1.1c0.1,0.5,0.2,0.9,0.4,1.1c-0.2,0.2-0.3,0.6-0.4,1.1C611.2,278.3,611.1,277.9,610.9,277.8 M611,274.5
		c0.2-0.2,0.4-0.5,0.4-1.1c0.1,0.5,0.2,0.9,0.4,1.1c-0.2,0.2-0.3,0.6-0.4,1.1C611.3,275,611.2,274.7,611,274.5 M611,271.3
		c0.2-0.2,0.3-0.6,0.4-1.2c0.1,0.5,0.2,1,0.3,1.1c-0.2,0.2-0.3,0.6-0.4,1.1C611.4,271.8,611.2,271.4,611,271.3 M608.5,371.4
		c0.3-0.3,0.7-0.5,0.8-1.1c0.2,0.5,0.4,0.9,0.7,1.2c-0.4,0.1-0.6,0.6-0.8,1.1C609.2,371.9,608.9,371.5,608.5,371.4 M609.1,348.8
		c0.3-0.3,0.6-0.5,0.7-1.1c0.1,0.5,0.4,0.9,0.7,1.2c-0.4,0.1-0.5,0.6-0.7,1.1C609.7,349.3,609.4,348.9,609.1,348.8 M609.7,326.2
		c0.3-0.3,0.5-0.5,0.6-1.1c0.1,0.5,0.3,0.9,0.6,1.2c-0.3,0.1-0.4,0.6-0.6,1.1C610.2,326.7,610,326.3,609.7,326.2 M610.2,306.8
		c0.2-0.3,0.5-0.5,0.5-1.1c0.1,0.5,0.3,0.9,0.5,1.1c-0.3,0.1-0.4,0.6-0.5,1.1C610.6,307.3,610.4,307,610.2,306.8 M610.7,284.2
		c0.2-0.3,0.4-0.5,0.4-1.1c0.1,0.5,0.2,0.9,0.4,1.1c-0.2,0.2-0.3,0.6-0.4,1.1C611.1,284.7,611,284.4,610.7,284.2 M612.2,271.3
		c0.2-0.2,0.3-0.5,0.4-1.1c0.1,0.5,0.2,0.9,0.4,1.1c-0.2,0.2-0.3,0.5-0.4,1.1C612.5,271.9,612.4,271.4,612.2,271.3 M610.9,368.2
		c0.3-0.2,0.6-0.5,0.7-1.1c0.1,0.5,0.3,0.9,0.7,1c-0.3,0.2-0.6,0.5-0.7,1.1C611.5,368.8,611.3,368.3,610.9,368.2 M610.9,365
		c0.3-0.2,0.6-0.5,0.7-1.1c0.1,0.5,0.3,0.9,0.7,1c-0.3,0.2-0.6,0.5-0.7,1.1C611.5,365.5,611.3,365.1,610.9,365 M611,361.7
		c0.3-0.2,0.6-0.5,0.7-1.1c0.1,0.5,0.3,0.9,0.7,1c-0.3,0.2-0.6,0.5-0.6,1.1C611.5,362.3,611.3,361.9,611,361.7 M611,358.5
		c0.3-0.2,0.6-0.5,0.7-1.1c0.1,0.5,0.3,0.9,0.6,1c-0.3,0.3-0.5,0.5-0.6,1.1C611.6,359.1,611.4,358.6,611,358.5 M611.1,355.2
		c0.3-0.2,0.6-0.5,0.7-1.1c0.1,0.5,0.3,0.9,0.6,1c-0.3,0.3-0.5,0.5-0.6,1.1C611.6,355.8,611.4,355.4,611.1,355.2 M611.1,352
		c0.3-0.2,0.5-0.5,0.7-1.1c0.1,0.5,0.3,0.9,0.6,1c-0.3,0.2-0.5,0.5-0.6,1.1C611.6,352.6,611.5,352.2,611.1,352 M611.2,345.6
		c0.3-0.2,0.5-0.5,0.7-1.1c0.1,0.5,0.3,0.9,0.6,1c-0.3,0.2-0.5,0.5-0.6,1.1C611.7,346.2,611.5,345.7,611.2,345.6 M611.2,342.3
		c0.3-0.2,0.5-0.5,0.6-1.1c0.1,0.5,0.3,0.9,0.6,1c-0.3,0.3-0.5,0.5-0.6,1.1C611.7,342.9,611.6,342.5,611.2,342.3 M611.3,339.1
		c0.3-0.2,0.5-0.5,0.6-1.1c0.1,0.5,0.3,0.9,0.6,1c-0.2,0.3-0.5,0.5-0.6,1.1C611.8,339.7,611.6,339.3,611.3,339.1 M611.3,335.9
		c0.3-0.2,0.5-0.5,0.6-1.1c0.1,0.5,0.3,0.9,0.6,1c-0.2,0.2-0.5,0.5-0.6,1.1C611.8,336.5,611.6,336,611.3,335.9 M611.4,332.6
		c0.3-0.2,0.5-0.5,0.6-1.1c0.1,0.5,0.3,0.9,0.6,1c-0.2,0.3-0.5,0.5-0.6,1.1C611.8,333.2,611.7,332.8,611.4,332.6 M611.4,329.4
		c0.3-0.2,0.5-0.5,0.6-1.1c0.1,0.5,0.3,0.9,0.6,1c-0.2,0.3-0.5,0.5-0.6,1.1C611.9,330,611.7,329.6,611.4,329.4 M611.5,323
		c0.3-0.2,0.5-0.5,0.6-1.1c0.1,0.5,0.3,0.9,0.5,1c-0.2,0.2-0.5,0.5-0.5,1.1C611.9,323.6,611.8,323.1,611.5,323 M611.5,319.7
		c0.2-0.2,0.5-0.5,0.6-1.1c0.1,0.5,0.3,0.9,0.5,1c-0.2,0.2-0.4,0.5-0.5,1.1C612,320.3,611.8,319.9,611.5,319.7 M611.6,316.5
		c0.2-0.2,0.4-0.5,0.6-1.1c0.1,0.5,0.3,0.9,0.5,1c-0.2,0.2-0.4,0.5-0.5,1.1C612,317.1,611.9,316.7,611.6,316.5 M611.6,313.3
		c0.2-0.2,0.4-0.5,0.5-1.1c0.1,0.5,0.3,0.9,0.5,1c-0.2,0.3-0.4,0.5-0.5,1.1C612,313.9,611.9,313.4,611.6,313.3 M611.7,310
		c0.2-0.2,0.4-0.5,0.5-1.1c0.1,0.5,0.2,0.9,0.5,1c-0.2,0.2-0.4,0.5-0.5,1.1C612.1,310.6,611.9,310.2,611.7,310 M611.7,303.6
		c0.2-0.2,0.4-0.5,0.5-1.1c0.1,0.5,0.2,0.9,0.5,1c-0.2,0.2-0.4,0.5-0.5,1.1C612.1,304.2,612,303.8,611.7,303.6 M611.8,300.4
		c0.2-0.2,0.4-0.5,0.5-1.1c0.1,0.5,0.2,0.9,0.5,1c-0.2,0.2-0.4,0.5-0.5,1.1C612.2,301,612,300.5,611.8,300.4 M611.8,297.1
		c0.2-0.2,0.4-0.5,0.5-1.1c0.1,0.5,0.2,0.9,0.5,1c-0.2,0.3-0.4,0.5-0.5,1.1C612.2,297.7,612.1,297.3,611.8,297.1 M611.9,293.9
		c0.2-0.2,0.4-0.5,0.5-1.1c0.1,0.5,0.2,0.9,0.4,1c-0.2,0.3-0.4,0.5-0.4,1.1C612.2,294.5,612.1,294.1,611.9,293.9 M611.9,290.7
		c0.2-0.2,0.4-0.5,0.5-1.1c0.1,0.5,0.2,0.9,0.4,1c-0.2,0.2-0.4,0.5-0.4,1.1C612.3,291.3,612.2,290.8,611.9,290.7 M612,287.4
		c0.2-0.2,0.4-0.5,0.5-1.1c0.1,0.5,0.2,0.9,0.4,1c-0.2,0.2-0.4,0.5-0.4,1.1C612.3,288,612.2,287.6,612,287.4 M612,281
		c0.2-0.2,0.4-0.5,0.4-1.1c0.1,0.5,0.2,0.9,0.4,1c-0.2,0.3-0.3,0.5-0.4,1.1C612.4,281.6,612.3,281.2,612,281 M612.1,277.8
		c0.2-0.2,0.3-0.5,0.4-1.1c0.1,0.5,0.2,0.9,0.4,1c-0.2,0.3-0.3,0.5-0.4,1.1C612.4,278.4,612.3,277.9,612.1,277.8 M612.1,274.5
		c0.2-0.2,0.3-0.5,0.4-1.1c0.1,0.5,0.2,0.9,0.4,1c-0.2,0.2-0.3,0.5-0.4,1.1C612.4,275.1,612.3,274.7,612.1,274.5 M610.9,371.4
		c0.3-0.3,0.6-0.5,0.7-1.1c0.1,0.5,0.4,0.8,0.6,1.1c-0.3,0.2-0.5,0.5-0.6,1C611.4,372,611.3,371.6,610.9,371.4 M611.2,348.8
		c0.2-0.3,0.5-0.5,0.6-1.1c0.1,0.5,0.3,0.8,0.6,1.1c-0.3,0.2-0.5,0.5-0.6,1C611.7,349.4,611.5,349,611.2,348.8 M611.5,326.2
		c0.2-0.3,0.4-0.5,0.5-1.1c0.1,0.5,0.3,0.8,0.5,1.1c-0.2,0.2-0.4,0.5-0.5,1C611.9,326.8,611.8,326.4,611.5,326.2 M611.7,306.8
		c0.2-0.3,0.4-0.5,0.5-1.1c0.1,0.5,0.3,0.8,0.4,1.1c-0.2,0.2-0.4,0.5-0.4,1C612.1,307.4,612,307,611.7,306.8 M612,284.2
		c0.2-0.3,0.3-0.6,0.4-1.1c0.1,0.5,0.2,0.8,0.4,1.1c-0.2,0.2-0.3,0.5-0.4,1C612.3,284.8,612.2,284.4,612,284.2 M613.4,271.3
		c0.2-0.2,0.3-0.5,0.4-1c0.1,0.4,0.2,0.8,0.4,1c-0.2,0.2-0.3,0.5-0.4,1C613.7,271.9,613.6,271.4,613.4,271.3 M613.1,368.2
		c0.3-0.2,0.5-0.5,0.6-1c0.1,0.4,0.3,0.8,0.6,1c-0.2,0.2-0.5,0.5-0.6,1C613.6,368.8,613.4,368.4,613.1,368.2 M613.1,365
		c0.3-0.2,0.5-0.5,0.6-1c0.1,0.4,0.3,0.8,0.6,1c-0.2,0.2-0.5,0.5-0.6,1C613.6,365.5,613.4,365.1,613.1,365 M613.1,361.7
		c0.3-0.2,0.5-0.5,0.6-1c0.1,0.4,0.3,0.8,0.6,0.9c-0.2,0.3-0.5,0.5-0.5,1C613.6,362.3,613.4,361.9,613.1,361.7 M613.1,358.5
		c0.3-0.2,0.5-0.5,0.6-1c0.1,0.4,0.3,0.8,0.6,1c-0.2,0.2-0.4,0.5-0.5,1C613.6,359.1,613.4,358.7,613.1,358.5 M613.1,355.3
		c0.3-0.2,0.5-0.5,0.6-1c0.1,0.4,0.3,0.8,0.6,1c-0.2,0.2-0.4,0.5-0.5,1C613.6,355.8,613.4,355.4,613.1,355.3 M613.1,352
		c0.3-0.2,0.5-0.5,0.6-1c0.1,0.4,0.3,0.8,0.6,0.9c-0.2,0.2-0.4,0.5-0.5,1C613.6,352.6,613.4,352.2,613.1,352 M613.2,345.6
		c0.3-0.2,0.5-0.5,0.6-1c0.1,0.4,0.3,0.8,0.5,0.9c-0.2,0.3-0.4,0.5-0.5,1C613.6,346.2,613.5,345.8,613.2,345.6 M613.2,342.4
		c0.2-0.2,0.5-0.5,0.6-1c0.1,0.4,0.3,0.8,0.5,0.9c-0.2,0.3-0.4,0.5-0.5,1C613.6,342.9,613.5,342.5,613.2,342.4 M613.2,339.1
		c0.2-0.2,0.5-0.5,0.6-1c0.1,0.4,0.3,0.8,0.5,1c-0.2,0.2-0.4,0.5-0.5,1C613.6,339.7,613.5,339.3,613.2,339.1 M613.2,335.9
		c0.2-0.2,0.4-0.5,0.6-1c0.1,0.4,0.3,0.8,0.5,1c-0.2,0.2-0.4,0.5-0.5,1C613.6,336.5,613.5,336,613.2,335.9 M613.2,332.7
		c0.2-0.2,0.4-0.5,0.5-1c0.1,0.4,0.3,0.8,0.5,1c-0.2,0.3-0.4,0.5-0.5,1C613.6,333.2,613.5,332.8,613.2,332.7 M613.2,329.4
		c0.2-0.2,0.4-0.5,0.5-1c0.1,0.4,0.3,0.8,0.5,0.9c-0.2,0.3-0.4,0.5-0.5,1C613.6,330,613.5,329.6,613.2,329.4 M613.2,323
		c0.2-0.2,0.4-0.5,0.5-1c0.1,0.4,0.3,0.8,0.5,0.9c-0.2,0.3-0.4,0.5-0.5,1C613.6,323.6,613.5,323.1,613.2,323 M613.3,319.8
		c0.2-0.2,0.4-0.5,0.5-1c0.1,0.4,0.3,0.8,0.5,1c-0.2,0.2-0.4,0.5-0.5,1C613.7,320.3,613.5,319.9,613.3,319.8 M613.3,316.5
		c0.2-0.2,0.4-0.5,0.5-1c0.1,0.4,0.3,0.8,0.5,1c-0.2,0.2-0.4,0.5-0.5,1C613.7,317.1,613.5,316.7,613.3,316.5 M613.3,313.3
		c0.2-0.2,0.4-0.5,0.5-1c0.1,0.4,0.2,0.8,0.5,0.9c-0.2,0.3-0.4,0.5-0.5,1C613.7,313.8,613.5,313.4,613.3,313.3 M613.3,310.1
		c0.2-0.2,0.4-0.5,0.5-1c0.1,0.4,0.2,0.8,0.5,1c-0.2,0.2-0.4,0.5-0.5,1C613.7,310.6,613.5,310.2,613.3,310.1 M613.3,303.6
		c0.2-0.2,0.4-0.5,0.5-1c0.1,0.4,0.2,0.8,0.5,1c-0.2,0.2-0.4,0.5-0.5,1C613.7,304.2,613.6,303.8,613.3,303.6 M613.3,300.4
		c0.2-0.2,0.4-0.5,0.5-1c0.1,0.4,0.2,0.8,0.5,1c-0.2,0.3-0.4,0.5-0.4,1C613.7,301,613.6,300.5,613.3,300.4 M613.3,297.2
		c0.2-0.2,0.4-0.5,0.5-1c0.1,0.4,0.2,0.8,0.5,1c-0.2,0.3-0.4,0.5-0.4,1C613.7,297.7,613.6,297.3,613.3,297.2 M613.4,293.9
		c0.2-0.2,0.4-0.5,0.5-1c0.1,0.4,0.2,0.8,0.4,0.9c-0.2,0.3-0.4,0.5-0.4,1C613.7,294.5,613.6,294.1,613.4,293.9 M613.4,290.7
		c0.2-0.2,0.4-0.5,0.4-1c0.1,0.4,0.2,0.8,0.4,1c-0.2,0.2-0.4,0.5-0.4,1C613.7,291.2,613.6,290.8,613.4,290.7 M613.4,287.5
		c0.2-0.2,0.4-0.5,0.4-1c0.1,0.4,0.2,0.8,0.4,1c-0.2,0.2-0.4,0.5-0.4,1C613.7,288,613.6,287.6,613.4,287.5 M613.4,281
		c0.2-0.2,0.3-0.5,0.4-1c0.1,0.4,0.2,0.8,0.4,0.9c-0.2,0.3-0.4,0.5-0.4,1C613.7,281.6,613.6,281.2,613.4,281 M613.4,277.8
		c0.2-0.2,0.3-0.5,0.4-1c0.1,0.4,0.2,0.8,0.4,0.9c-0.2,0.3-0.4,0.5-0.4,1C613.7,278.3,613.6,277.9,613.4,277.8 M613.4,274.6
		c0.2-0.2,0.3-0.5,0.4-1c0.1,0.4,0.2,0.8,0.4,1c-0.2,0.2-0.3,0.5-0.4,1C613.7,275.1,613.6,274.7,613.4,274.6 M613.1,371.4
		c0.2-0.3,0.5-0.5,0.6-1c0.1,0.4,0.3,0.7,0.5,0.9c-0.2,0.3-0.4,0.5-0.5,1C613.6,372,613.4,371.6,613.1,371.4 M613.2,348.8
		c0.2-0.3,0.4-0.5,0.5-1c0.1,0.4,0.3,0.7,0.5,0.9c-0.2,0.3-0.4,0.5-0.5,1C613.6,349.4,613.5,349,613.2,348.8 M613.3,326.2
		c0.2-0.3,0.4-0.5,0.5-1c0.1,0.4,0.2,0.7,0.5,0.9c-0.2,0.3-0.4,0.5-0.4,1C613.6,326.8,613.5,326.4,613.3,326.2 M613.3,306.9
		c0.2-0.3,0.4-0.5,0.4-1c0.1,0.4,0.2,0.7,0.4,0.9c-0.1,0.3-0.4,0.5-0.4,1C613.7,307.4,613.6,307,613.3,306.9 M613.4,284.3
		c0.2-0.3,0.3-0.5,0.4-1c0.1,0.4,0.2,0.7,0.4,0.9c-0.1,0.3-0.3,0.5-0.4,1C613.7,284.8,613.6,284.4,613.4,284.3 M615.1,368.2
		c0.2-0.2,0.4-0.5,0.5-0.9c0.1,0.4,0.3,0.7,0.5,0.9c-0.2,0.2-0.4,0.5-0.5,0.9C615.5,368.7,615.4,368.4,615.1,368.2 M615.1,365
		c0.2-0.2,0.4-0.5,0.5-0.9c0.1,0.4,0.3,0.7,0.5,0.9c-0.2,0.2-0.4,0.5-0.5,0.9C615.5,365.5,615.4,365.1,615.1,365 M615.1,361.7
		c0.2-0.2,0.4-0.5,0.5-0.9c0.1,0.4,0.3,0.7,0.5,0.9c-0.2,0.2-0.4,0.5-0.5,0.9C615.5,362.3,615.4,361.9,615.1,361.7 M615.1,358.5
		c0.2-0.2,0.4-0.5,0.5-0.9c0.1,0.4,0.3,0.7,0.5,0.9c-0.2,0.2-0.4,0.5-0.5,0.9C615.5,359,615.4,358.7,615.1,358.5 M615.1,355.3
		c0.2-0.2,0.4-0.5,0.5-0.9c0.1,0.4,0.3,0.7,0.5,0.9c-0.2,0.2-0.4,0.5-0.5,0.9C615.5,355.8,615.3,355.4,615.1,355.3 M615.1,352
		c0.2-0.2,0.4-0.5,0.5-0.9c0.1,0.4,0.3,0.7,0.5,0.9c-0.2,0.2-0.4,0.5-0.5,0.9C615.5,352.6,615.3,352.2,615.1,352 M615.1,345.6
		c0.2-0.2,0.4-0.5,0.5-0.9c0.1,0.4,0.3,0.7,0.5,0.9c-0.2,0.2-0.4,0.5-0.5,0.9C615.4,346.1,615.3,345.8,615.1,345.6 M615,342.4
		c0.2-0.2,0.4-0.5,0.5-0.9c0.1,0.4,0.3,0.7,0.5,0.9c-0.2,0.2-0.4,0.5-0.5,0.9C615.4,342.9,615.3,342.5,615,342.4 M615,339.1
		c0.2-0.2,0.4-0.5,0.5-0.9c0.1,0.4,0.3,0.7,0.5,0.9c-0.2,0.2-0.4,0.5-0.5,0.9C615.4,339.7,615.3,339.3,615,339.1 M615,335.9
		c0.2-0.2,0.4-0.5,0.5-0.9c0.1,0.4,0.3,0.7,0.5,0.9c-0.2,0.2-0.4,0.5-0.5,0.9C615.4,336.4,615.3,336,615,335.9 M615,332.7
		c0.2-0.2,0.4-0.5,0.5-0.9c0.1,0.4,0.3,0.7,0.5,0.9c-0.2,0.2-0.4,0.5-0.5,0.9C615.4,333.2,615.3,332.8,615,332.7 M615,329.4
		c0.2-0.2,0.4-0.5,0.5-0.9c0.1,0.4,0.3,0.7,0.5,0.9c-0.2,0.2-0.4,0.5-0.5,0.9C615.4,330,615.3,329.6,615,329.4 M615,323
		c0.2-0.2,0.4-0.5,0.5-0.9c0.1,0.4,0.3,0.7,0.5,0.9c-0.2,0.2-0.4,0.5-0.5,0.9C615.4,323.5,615.2,323.1,615,323 M615,319.8
		c0.2-0.2,0.4-0.5,0.5-0.9c0.1,0.4,0.2,0.7,0.5,0.9c-0.2,0.2-0.4,0.5-0.5,0.9C615.3,320.3,615.2,319.9,615,319.8 M615,316.5
		c0.2-0.2,0.4-0.5,0.5-0.9c0.1,0.4,0.2,0.7,0.5,0.9c-0.2,0.2-0.4,0.5-0.5,0.9C615.3,317.1,615.2,316.7,615,316.5 M615,313.3
		c0.2-0.2,0.4-0.5,0.5-0.9c0.1,0.4,0.2,0.7,0.5,0.9c-0.2,0.2-0.4,0.5-0.4,0.9C615.3,313.8,615.2,313.4,615,313.3 M615,310.1
		c0.2-0.2,0.4-0.5,0.5-0.9c0.1,0.4,0.2,0.7,0.5,0.9c-0.2,0.2-0.4,0.5-0.5,0.9C615.3,310.6,615.2,310.2,615,310.1 M614.9,303.6
		c0.2-0.2,0.4-0.5,0.5-0.9c0.1,0.4,0.2,0.7,0.5,0.9c-0.2,0.2-0.4,0.5-0.4,0.9C615.3,304.2,615.2,303.8,614.9,303.6 M614.9,300.4
		c0.2-0.2,0.4-0.5,0.5-0.9c0.1,0.4,0.2,0.7,0.5,0.9c-0.2,0.2-0.4,0.5-0.4,0.9C615.3,300.9,615.2,300.5,614.9,300.4 M614.9,297.2
		c0.2-0.2,0.3-0.5,0.4-0.9c0.1,0.4,0.2,0.7,0.5,0.9c-0.2,0.2-0.4,0.5-0.4,0.9C615.3,297.7,615.1,297.3,614.9,297.2 M614.9,293.9
		c0.2-0.2,0.3-0.5,0.4-0.9c0.1,0.4,0.2,0.7,0.5,0.9c-0.2,0.2-0.4,0.5-0.4,0.9C615.2,294.5,615.1,294.1,614.9,293.9 M614.9,290.7
		c0.2-0.2,0.3-0.5,0.4-0.9c0.1,0.4,0.2,0.7,0.5,0.9c-0.2,0.2-0.4,0.5-0.4,0.9C615.2,291.2,615.1,290.8,614.9,290.7 M614.9,287.5
		c0.2-0.2,0.3-0.5,0.4-0.9c0.1,0.4,0.2,0.7,0.5,0.9c-0.2,0.2-0.4,0.5-0.4,0.9C615.2,288,615.1,287.6,614.9,287.5 M614.9,281
		c0.2-0.2,0.3-0.5,0.4-0.9c0.1,0.4,0.2,0.7,0.5,0.9c-0.2,0.2-0.4,0.5-0.4,0.9C615.2,281.6,615.1,281.2,614.9,281 M614.9,277.8
		c0.2-0.2,0.3-0.5,0.4-0.9c0.1,0.4,0.2,0.7,0.4,0.9c-0.2,0.2-0.3,0.5-0.4,0.9C615.2,278.3,615.1,277.9,614.9,277.8 M614.9,274.6
		c0.2-0.2,0.3-0.5,0.4-0.9c0.1,0.4,0.2,0.7,0.4,0.9c-0.2,0.2-0.3,0.5-0.4,0.9C615.2,275.1,615.1,274.7,614.9,274.6 M614.9,271.3
		c0.2-0.3,0.3-0.5,0.4-1c0.1,0.4,0.2,0.7,0.4,0.9c-0.2,0.2-0.3,0.5-0.4,0.9C615.2,271.9,615.1,271.5,614.9,271.3 M615.2,371.4
		c0.2-0.3,0.4-0.5,0.5-0.9c0.1,0.4,0.3,0.6,0.5,0.9c-0.2,0.2-0.4,0.5-0.4,0.8C615.5,372,615.4,371.6,615.2,371.4 M615.1,348.8
		c0.2-0.3,0.4-0.5,0.5-0.9c0.1,0.4,0.3,0.6,0.5,0.9c-0.2,0.2-0.4,0.4-0.4,0.8C615.5,349.4,615.3,349,615.1,348.8 M615,326.2
		c0.2-0.3,0.4-0.5,0.4-0.9c0.1,0.3,0.2,0.7,0.4,0.8c-0.1,0.3-0.4,0.5-0.4,0.9C615.4,326.7,615.3,326.4,615,326.2 M615,306.9
		c0.1-0.3,0.3-0.5,0.4-0.9c0.1,0.4,0.3,0.6,0.4,0.9c-0.2,0.2-0.3,0.5-0.4,0.8C615.3,307.4,615.2,307,615,306.9 M614.9,284.3
		c0.1-0.3,0.3-0.5,0.4-0.9c0.1,0.4,0.3,0.6,0.4,0.9c-0.2,0.2-0.3,0.5-0.4,0.8C615.2,284.8,615.1,284.4,614.9,284.3 M617,368.2
		c0.2-0.2,0.4-0.4,0.4-0.8c0.1,0.3,0.2,0.7,0.5,0.8c-0.2,0.2-0.3,0.5-0.4,0.8C617.3,368.7,617.2,368.3,617,368.2 M617,365
		c0.2-0.2,0.4-0.4,0.4-0.8c0.1,0.3,0.2,0.7,0.5,0.8c-0.2,0.2-0.3,0.5-0.4,0.8C617.3,365.4,617.2,365.1,617,365 M616.9,361.7
		c0.2-0.2,0.4-0.4,0.4-0.8c0.1,0.3,0.2,0.7,0.5,0.8c-0.2,0.2-0.3,0.5-0.4,0.8C617.3,362.2,617.2,361.9,616.9,361.7 M616.9,358.5
		c0.2-0.2,0.4-0.4,0.4-0.8c0.1,0.3,0.2,0.7,0.5,0.8c-0.2,0.2-0.3,0.5-0.4,0.8C617.3,359,617.1,358.6,616.9,358.5 M616.9,355.3
		c0.2-0.2,0.4-0.4,0.4-0.8c0.1,0.3,0.2,0.6,0.5,0.8c-0.2,0.2-0.3,0.5-0.4,0.8C617.2,355.7,617.1,355.4,616.9,355.3 M616.9,352
		c0.2-0.2,0.4-0.4,0.4-0.8c0.1,0.3,0.2,0.7,0.5,0.8c-0.2,0.2-0.3,0.5-0.4,0.8C617.2,352.5,617.1,352.2,616.9,352 M616.8,345.6
		c0.2-0.2,0.4-0.4,0.4-0.8c0.1,0.3,0.2,0.7,0.5,0.8c-0.2,0.2-0.3,0.5-0.4,0.8C617.2,346.1,617.1,345.7,616.8,345.6 M616.8,342.4
		c0.2-0.2,0.4-0.4,0.4-0.8c0.1,0.3,0.2,0.7,0.5,0.8c-0.2,0.2-0.3,0.5-0.4,0.8C617.2,342.8,617,342.5,616.8,342.4 M616.8,339.1
		c0.2-0.2,0.4-0.4,0.4-0.8c0.1,0.3,0.2,0.7,0.5,0.8c-0.2,0.2-0.3,0.5-0.4,0.8C617.1,339.6,617,339.3,616.8,339.1 M616.8,335.9
		c0.2-0.2,0.4-0.4,0.4-0.8c0.1,0.3,0.2,0.7,0.5,0.8c-0.2,0.2-0.3,0.5-0.4,0.8C617.1,336.4,617,336,616.8,335.9 M616.8,332.7
		c0.2-0.2,0.4-0.4,0.4-0.8c0.1,0.3,0.2,0.7,0.5,0.8c-0.2,0.2-0.3,0.5-0.4,0.8C617.1,333.1,617,332.8,616.8,332.7 M616.7,329.4
		c0.2-0.2,0.4-0.4,0.4-0.8c0.1,0.3,0.2,0.7,0.5,0.8c-0.2,0.2-0.3,0.5-0.4,0.8C617.1,329.9,617,329.6,616.7,329.4 M616.7,323
		c0.2-0.2,0.4-0.4,0.4-0.8c0.1,0.3,0.2,0.6,0.5,0.8c-0.2,0.2-0.3,0.5-0.4,0.8C617.1,323.5,616.9,323.1,616.7,323 M616.7,319.8
		c0.2-0.2,0.4-0.4,0.4-0.8c0.1,0.3,0.2,0.7,0.5,0.8c-0.2,0.2-0.3,0.5-0.4,0.8C617,320.2,616.9,319.9,616.7,319.8 M616.7,316.5
		c0.2-0.2,0.4-0.4,0.4-0.8c0.1,0.3,0.2,0.7,0.5,0.8c-0.2,0.2-0.3,0.5-0.4,0.8C617,317,616.9,316.7,616.7,316.5 M616.7,313.3
		c0.2-0.2,0.4-0.4,0.4-0.8c0.1,0.3,0.2,0.7,0.5,0.8c-0.2,0.2-0.3,0.5-0.4,0.8C617,313.8,616.9,313.4,616.7,313.3 M616.6,310.1
		c0.2-0.2,0.4-0.4,0.4-0.8c0.1,0.3,0.2,0.7,0.5,0.8c-0.2,0.2-0.3,0.5-0.4,0.8C617,310.5,616.9,310.2,616.6,310.1 M616.6,303.6
		c0.2-0.2,0.4-0.4,0.4-0.8c0.1,0.3,0.2,0.7,0.5,0.8c-0.2,0.2-0.3,0.5-0.4,0.8C616.9,304.1,616.8,303.8,616.6,303.6 M616.6,300.4
		c0.2-0.2,0.4-0.4,0.4-0.8c0.1,0.3,0.2,0.7,0.5,0.8c-0.2,0.2-0.3,0.5-0.4,0.8C616.9,300.9,616.8,300.5,616.6,300.4 M616.6,297.2
		c0.2-0.2,0.4-0.4,0.4-0.8c0.1,0.3,0.2,0.7,0.5,0.8c-0.2,0.2-0.3,0.5-0.4,0.8C616.9,297.6,616.8,297.3,616.6,297.2 M616.5,293.9
		c0.2-0.2,0.4-0.4,0.4-0.8c0.1,0.3,0.2,0.7,0.5,0.8c-0.2,0.2-0.3,0.5-0.4,0.8C616.9,294.4,616.8,294.1,616.5,293.9 M616.5,290.7
		c0.2-0.2,0.4-0.4,0.4-0.8c0.1,0.3,0.2,0.7,0.5,0.8c-0.2,0.2-0.3,0.5-0.4,0.8C616.9,291.2,616.7,290.8,616.5,290.7 M616.5,287.4
		c0.2-0.2,0.4-0.4,0.4-0.8c0.1,0.3,0.2,0.7,0.5,0.8c-0.2,0.2-0.3,0.5-0.4,0.8C616.8,287.9,616.7,287.6,616.5,287.4 M616.5,281
		c0.2-0.2,0.4-0.4,0.4-0.8c0.1,0.3,0.2,0.7,0.5,0.8c-0.2,0.2-0.3,0.5-0.4,0.8C616.8,281.5,616.7,281.2,616.5,281 M616.5,277.8
		c0.2-0.2,0.4-0.4,0.4-0.8c0.1,0.3,0.2,0.7,0.5,0.8c-0.2,0.2-0.3,0.5-0.4,0.8C616.8,278.3,616.7,277.9,616.5,277.8 M616.4,274.5
		c0.2-0.2,0.4-0.4,0.4-0.8c0.1,0.3,0.2,0.7,0.5,0.8c-0.2,0.2-0.3,0.5-0.4,0.8C616.8,275,616.7,274.7,616.4,274.5 M616.4,271.3
		c0.2-0.3,0.4-0.5,0.4-0.9c0.1,0.3,0.3,0.7,0.5,0.8c-0.2,0.2-0.3,0.5-0.4,0.8C616.8,271.8,616.6,271.5,616.4,271.3 M617,371.4
		c0.1-0.3,0.3-0.4,0.4-0.8c0.1,0.3,0.2,0.6,0.4,0.8c-0.1,0.3-0.3,0.5-0.4,0.8C617.3,371.9,617.2,371.6,617,371.4 M616.9,348.8
		c0.1-0.3,0.3-0.4,0.4-0.8c0.1,0.3,0.2,0.6,0.4,0.8c-0.1,0.3-0.3,0.5-0.4,0.8C617.2,349.3,617.1,349,616.9,348.8 M616.8,326.2
		c0.1-0.3,0.3-0.4,0.4-0.8c0.1,0.3,0.2,0.6,0.4,0.8c-0.1,0.3-0.3,0.5-0.4,0.8C617.1,326.7,617,326.4,616.8,326.2 M616.7,306.8
		c0.1-0.3,0.3-0.4,0.4-0.8c0.1,0.3,0.3,0.6,0.4,0.8c-0.2,0.2-0.3,0.4-0.4,0.8C617,307.3,616.9,307,616.7,306.8 M616.5,284.2
		c0.1-0.3,0.3-0.4,0.4-0.8c0.1,0.3,0.2,0.6,0.4,0.8c-0.1,0.3-0.3,0.5-0.4,0.8C616.8,284.7,616.7,284.4,616.5,284.2 M618.6,368.2
		c0.2-0.2,0.3-0.5,0.4-0.9c0.1,0.4,0.2,0.7,0.4,0.8c-0.2,0.2-0.3,0.5-0.4,0.9C619,368.7,618.8,368.3,618.6,368.2 M618.6,365
		c0.2-0.2,0.3-0.5,0.4-0.9c0.1,0.3,0.2,0.7,0.4,0.8c-0.2,0.2-0.3,0.5-0.4,0.9C618.9,365.4,618.8,365.1,618.6,365 M618.6,361.7
		c0.2-0.2,0.3-0.5,0.4-0.9c0.1,0.3,0.2,0.7,0.4,0.8c-0.2,0.2-0.3,0.4-0.4,0.9C618.9,362.2,618.8,361.9,618.6,361.7 M618.6,358.5
		c0.2-0.2,0.3-0.5,0.4-0.9c0.1,0.3,0.2,0.7,0.4,0.8c-0.2,0.2-0.3,0.5-0.4,0.9C618.9,359,618.8,358.6,618.6,358.5 M618.6,355.2
		c0.2-0.2,0.3-0.5,0.4-0.9c0.1,0.4,0.2,0.7,0.4,0.8c-0.2,0.2-0.3,0.5-0.4,0.9C618.9,355.7,618.8,355.4,618.6,355.2 M618.6,352
		c0.2-0.2,0.3-0.5,0.4-0.9c0.1,0.4,0.2,0.7,0.4,0.8c-0.2,0.2-0.3,0.4-0.4,0.9C618.9,352.5,618.8,352.2,618.6,352 M618.5,345.6
		c0.2-0.2,0.3-0.5,0.4-0.9c0.1,0.3,0.2,0.7,0.4,0.8c-0.2,0.2-0.3,0.5-0.4,0.9C618.8,346.1,618.7,345.7,618.5,345.6 M618.5,342.3
		c0.2-0.2,0.3-0.5,0.4-0.9c0.1,0.4,0.2,0.7,0.4,0.8c-0.2,0.2-0.3,0.5-0.4,0.9C618.8,342.8,618.7,342.5,618.5,342.3 M618.5,339.1
		c0.2-0.2,0.3-0.5,0.4-0.9c0.1,0.4,0.2,0.7,0.4,0.8c-0.2,0.2-0.3,0.4-0.4,0.9C618.8,339.6,618.7,339.3,618.5,339.1 M618.5,335.9
		c0.2-0.2,0.3-0.5,0.4-0.9c0.1,0.3,0.2,0.7,0.4,0.8c-0.2,0.2-0.3,0.4-0.4,0.9C618.8,336.4,618.7,336,618.5,335.9 M618.5,332.6
		c0.2-0.2,0.3-0.5,0.4-0.9c0.1,0.3,0.2,0.7,0.5,0.8c-0.2,0.2-0.4,0.5-0.4,0.9C618.8,333.1,618.7,332.8,618.5,332.6 M618.4,329.4
		c0.2-0.2,0.4-0.5,0.4-0.9c0.1,0.4,0.2,0.7,0.5,0.8c-0.2,0.2-0.4,0.5-0.4,0.9C618.8,329.9,618.7,329.6,618.4,329.4 M618.4,323
		c0.2-0.2,0.4-0.5,0.4-0.9c0.1,0.4,0.2,0.7,0.5,0.8c-0.2,0.2-0.4,0.5-0.4,0.9C618.7,323.5,618.6,323.1,618.4,323 M618.4,319.7
		c0.2-0.2,0.4-0.5,0.4-0.9c0.1,0.4,0.2,0.7,0.5,0.8c-0.2,0.2-0.4,0.5-0.4,0.9C618.7,320.2,618.6,319.9,618.4,319.7 M618.4,316.5
		c0.2-0.2,0.4-0.5,0.4-0.9c0.1,0.3,0.2,0.7,0.5,0.8c-0.2,0.2-0.4,0.5-0.4,0.9C618.7,317,618.6,316.7,618.4,316.5 M618.4,313.3
		c0.2-0.2,0.4-0.5,0.4-0.9c0.1,0.4,0.2,0.7,0.5,0.8c-0.2,0.2-0.4,0.5-0.4,0.9C618.7,313.8,618.6,313.4,618.4,313.3 M618.3,310
		c0.2-0.2,0.4-0.5,0.4-0.9c0.1,0.4,0.2,0.7,0.5,0.8c-0.2,0.2-0.4,0.5-0.4,0.9C618.7,310.5,618.6,310.2,618.3,310 M618.3,303.6
		c0.2-0.2,0.4-0.5,0.4-0.9c0.1,0.4,0.2,0.7,0.5,0.8c-0.2,0.2-0.4,0.5-0.4,0.9C618.7,304.1,618.5,303.8,618.3,303.6 M618.3,300.4
		c0.2-0.2,0.4-0.5,0.5-0.9c0.1,0.4,0.2,0.7,0.5,0.8c-0.2,0.2-0.4,0.5-0.5,0.9C618.6,300.9,618.5,300.5,618.3,300.4 M618.3,297.1
		c0.2-0.2,0.4-0.5,0.5-0.9c0.1,0.3,0.2,0.7,0.5,0.8c-0.2,0.2-0.4,0.5-0.5,0.9C618.6,297.6,618.5,297.3,618.3,297.1 M618.3,293.9
		c0.2-0.2,0.4-0.5,0.5-0.9c0.1,0.4,0.3,0.7,0.5,0.8c-0.2,0.2-0.4,0.5-0.5,0.9C618.6,294.4,618.5,294.1,618.3,293.9 M618.2,290.7
		c0.2-0.2,0.4-0.5,0.5-0.9c0.1,0.3,0.3,0.7,0.5,0.8c-0.2,0.2-0.4,0.5-0.5,0.9C618.6,291.2,618.5,290.8,618.2,290.7 M618.2,287.4
		c0.2-0.2,0.4-0.5,0.5-0.9c0.1,0.3,0.3,0.7,0.5,0.8c-0.2,0.2-0.4,0.5-0.5,0.9C618.6,287.9,618.5,287.6,618.2,287.4 M618.2,281
		c0.2-0.2,0.4-0.5,0.5-0.9c0.1,0.4,0.3,0.7,0.5,0.8c-0.2,0.2-0.4,0.5-0.5,0.9C618.6,281.5,618.4,281.2,618.2,281 M618.2,277.8
		c0.2-0.2,0.4-0.5,0.5-0.9c0.1,0.3,0.3,0.7,0.5,0.8c-0.2,0.2-0.4,0.5-0.5,0.9C618.5,278.3,618.4,277.9,618.2,277.8 M618.2,274.5
		c0.2-0.2,0.4-0.5,0.5-0.9c0.1,0.4,0.3,0.7,0.5,0.8c-0.2,0.2-0.4,0.5-0.5,0.9C618.5,275,618.4,274.7,618.2,274.5 M618.1,271.3
		c0.2-0.3,0.4-0.5,0.5-0.9c0.1,0.4,0.3,0.7,0.5,0.9c-0.2,0.2-0.4,0.5-0.5,0.9C618.5,271.8,618.4,271.5,618.1,271.3 M618.7,371.4
		c0.1-0.3,0.3-0.5,0.4-0.9c0.1,0.3,0.2,0.6,0.4,0.8c-0.1,0.3-0.3,0.5-0.4,0.9C619,371.9,618.9,371.6,618.7,371.4 M618.6,348.8
		c0.1-0.3,0.3-0.5,0.4-0.9c0.1,0.3,0.2,0.6,0.4,0.8c-0.1,0.3-0.3,0.4-0.4,0.9C618.9,349.3,618.8,349,618.6,348.8 M618.5,326.2
		c0.1-0.3,0.3-0.5,0.4-0.9c0.1,0.3,0.2,0.7,0.4,0.8c-0.1,0.3-0.3,0.5-0.4,0.9C618.8,326.7,618.7,326.4,618.5,326.2 M618.4,306.8
		c0.1-0.3,0.3-0.5,0.4-0.9c0.1,0.3,0.2,0.7,0.4,0.8c-0.1,0.3-0.3,0.5-0.4,0.9C618.7,307.3,618.6,307,618.4,306.8 M618.3,284.2
		c0.1-0.3,0.3-0.5,0.4-0.9c0.1,0.3,0.2,0.7,0.4,0.8c-0.2,0.3-0.4,0.5-0.4,0.9C618.6,284.7,618.5,284.4,618.3,284.2"/>
	<path class="st0" d="M37.7,361.2l0,14.2l-17,0l0.1-11.7l0-21.1c0-3.2,1.2-6,3.4-8.3c2.3-2.3,5-3.4,8.2-3.4l31.3-0.1l10.4,0.1
		c3.2,0,6,1.1,8.3,3.4c2.3,2.3,3.4,5,3.4,8.3l0,21.1l-0.1,11.7l-16.7,0l0-14.2L37.7,361.2z M47.7,351.7l21.4,0l0-9.8l-31.5,0l0,9.8
		L47.7,351.7z"/>
	<path class="st1" d="M37.7,361.2l0,14.2l-17,0l0.1-11.7l0-21.1c0-3.2,1.2-6,3.4-8.3c2.3-2.3,5-3.4,8.2-3.4l31.3-0.1l10.4,0.1
		c3.2,0,6,1.1,8.3,3.4c2.3,2.3,3.4,5,3.4,8.3l0,21.1l-0.1,11.7l-16.7,0l0-14.2L37.7,361.2z M47.7,351.7l21.4,0l0-9.8l-31.5,0l0,9.8
		L47.7,351.7z"/>
	<path class="st0" d="M112.1,375.4H93.3l0-44.5l53.5,0c3.6,0,6.7,1.1,9.3,3.4c2.6,2.3,3.9,5,3.9,8.2v5.3c0,3.2-1.3,5.9-3.9,8.2
		c-2.6,2.3-5.7,3.4-9.3,3.4l-25.3-0.1l-9.5-0.1L112.1,375.4z M141,341.6l-29,0l-0.1,7.3l9.5,0.1l19.6,0L141,341.6z"/>
	<path class="st1" d="M112.1,375.4H93.3l0-44.5l53.5,0c3.6,0,6.7,1.1,9.3,3.4c2.6,2.3,3.9,5,3.9,8.2v5.3c0,3.2-1.3,5.9-3.9,8.2
		c-2.6,2.3-5.7,3.4-9.3,3.4l-25.3-0.1l-9.5-0.1L112.1,375.4z M141,341.6l-29,0l-0.1,7.3l9.5,0.1l19.6,0L141,341.6z"/>
	<path class="st0" d="M183.4,361.2l0,14.2l-17,0l0.1-11.7l0-21.1c0-3.2,1.1-6,3.4-8.3c2.3-2.3,5-3.4,8.2-3.4l31.3-0.1l10.4,0.1
		c3.2,0,6,1.1,8.3,3.4c2.3,2.3,3.4,5,3.4,8.3l0,21.1l-0.1,11.7l-16.7,0v-14.2L183.4,361.2z M193.4,351.7l21.4,0V342l-31.5,0v9.7
		H193.4z"/>
	<path class="st1" d="M183.4,361.2l0,14.2l-17,0l0.1-11.7l0-21.1c0-3.2,1.1-6,3.4-8.3c2.3-2.3,5-3.4,8.2-3.4l31.3-0.1l10.4,0.1
		c3.2,0,6,1.1,8.3,3.4c2.3,2.3,3.4,5,3.4,8.3l0,21.1l-0.1,11.7l-16.7,0v-14.2L183.4,361.2z M193.4,351.7l21.4,0V342l-31.5,0v9.7
		H193.4z"/>
	<path class="st0" d="M287.9,342l-31.9,0l0,33.4l-16.8,0l-0.1-26.3V342l0.1-11.1l53.8,0c3.2,0,5.9,1.1,8.2,3.4
		c2.3,2.3,3.4,5,3.4,8.3l0,32.8l-17,0L287.9,342z"/>
	<path class="st1" d="M287.9,342l-31.9,0l0,33.4l-16.8,0l-0.1-26.3V342l0.1-11.1l53.8,0c3.2,0,5.9,1.1,8.2,3.4
		c2.3,2.3,3.4,5,3.4,8.3l0,32.8l-17,0L287.9,342z"/>
	<polygon class="st0" points="377.2,341.9 354,341.9 354.1,375.4 335.3,375.4 335.3,342 312.3,342 312.3,330.9 377.2,330.9 	"/>
	<polygon class="st1" points="377.2,341.9 354,341.9 354.1,375.4 335.3,375.4 335.3,342 312.3,342 312.3,330.9 377.2,330.9 	"/>
	<path class="st0" d="M401.3,361.2l0,14.2h-17l0.1-11.7v-21.1c0-3.2,1.1-6,3.4-8.3c2.3-2.3,5-3.4,8.2-3.4l31.3-0.1l10.4,0.1
		c3.2,0,6,1.1,8.3,3.4c2.3,2.3,3.4,5,3.4,8.3v21.1l-0.1,11.7l-16.7,0l0-14.2L401.3,361.2z M411.4,351.7l21.4,0v-9.7l-31.5,0l0,9.8
		L411.4,351.7z"/>
	<path class="st1" d="M401.3,361.2l0,14.2h-17l0.1-11.7v-21.1c0-3.2,1.1-6,3.4-8.3c2.3-2.3,5-3.4,8.2-3.4l31.3-0.1l10.4,0.1
		c3.2,0,6,1.1,8.3,3.4c2.3,2.3,3.4,5,3.4,8.3v21.1l-0.1,11.7l-16.7,0l0-14.2L401.3,361.2z M411.4,351.7l21.4,0v-9.7l-31.5,0l0,9.8
		L411.4,351.7z"/>
	<path class="st0" d="M474,364.3l31.8,0l16.6-0.1l0,11.1l-53.6,0c-3.2,0-6-1.1-8.3-3.4c-2.3-2.3-3.4-5-3.4-8.3l0-21.1
		c0-3.3,1.1-6,3.4-8.3c2.3-2.3,5-3.4,8.2-3.4l53.8,0l-0.1,11.1l-48.6,0L474,364.3z"/>
	<path class="st1" d="M474,364.3l31.8,0l16.6-0.1l0,11.1l-53.6,0c-3.2,0-6-1.1-8.3-3.4c-2.3-2.3-3.4-5-3.4-8.3l0-21.1
		c0-3.3,1.1-6,3.4-8.3c2.3-2.3,5-3.4,8.2-3.4l53.8,0l-0.1,11.1l-48.6,0L474,364.3z"/>
</g>
</svg>
