<?xml version="1.0" encoding="UTF-8"?><svg id="Layer_1" xmlns="http://www.w3.org/2000/svg" viewBox="0 0 468.71 106.64"><g><path d="M68.77,53.23c0-2.98,.48-5.48,1.43-7.48,.95-2,2.24-3.62,3.86-4.86,1.62-1.24,3.53-2.12,5.72-2.67s4.53-.81,7.01-.81c3.94,0,7.12,.38,9.54,1.14,2.42,.76,4.29,1.84,5.63,3.24,1.33,1.4,2.24,3.07,2.72,5.01,.48,1.94,.72,4.05,.72,6.34v26.98c0,2.42,.11,4.29,.33,5.63,.22,1.33,.65,2.77,1.29,4.29l-12.6,.04c-.45-.84-.78-1.72-1-2.65-.22-.93-.43-1.85-.62-2.75h-.19c-1.53,2.68-3.29,4.42-5.3,5.22-2.01,.8-4.6,1.2-7.78,1.2-2.29,0-4.23-.4-5.82-1.19-1.59-.79-2.86-1.89-3.82-3.29-.96-1.4-1.65-2.97-2.1-4.72-.45-1.75-.67-3.48-.67-5.2,0-2.41,.25-4.5,.76-6.25,.51-1.75,1.29-3.24,2.34-4.48,1.05-1.24,2.38-2.27,4-3.1,1.62-.82,3.57-1.56,5.86-2.19l7.44-2c1.97-.51,3.34-1.21,4.1-2.1,.76-.89,1.14-2.19,1.14-3.91,0-1.97-.46-3.51-1.37-4.62-.92-1.11-2.48-1.67-4.69-1.67-2.02,0-3.54,.6-4.55,1.81-1.01,1.2-1.52,2.82-1.52,4.85v1.43h-11.87v-1.24Zm21.15,12.83c-1.01,.41-1.93,.71-2.75,.9-2.66,.57-4.56,1.52-5.7,2.86-1.14,1.33-1.71,3.14-1.71,5.42,0,1.97,.38,3.65,1.14,5.04,.76,1.39,2.03,2.09,3.8,2.09,.89,0,1.8-.14,2.75-.43,.95-.29,1.82-.74,2.61-1.38,.79-.63,1.44-1.46,1.95-2.47,.51-1.01,.76-2.22,.76-3.62v-10.09c-.89,.7-1.84,1.25-2.85,1.67Z" style="fill:#fff;"/><path d="M141.03,84.07c-1.41,2.55-3.24,4.35-5.49,5.42-2.25,1.07-4.82,1.6-7.71,1.6-4.18,0-7.39-1.1-9.64-3.29-2.25-2.2-3.37-5.87-3.37-11.03V38.68h13.14v35.41c0,2.67,.45,4.53,1.34,5.58,.89,1.05,2.33,1.58,4.31,1.58,4.66,0,6.98-2.83,6.98-8.5V38.68h13.14v51.41h-12.51v-6.02h-.19Z" style="fill:#fff;"/><path d="M178.62,24.02v14.65h7.64v8.97h-7.64v27.82c0,2.04,.3,3.49,.91,4.35,.6,.86,1.86,1.29,3.77,1.29,.51,0,1.02-.02,1.53-.05,.51-.03,.99-.08,1.43-.14v9.18c-1.46,0-2.88,.04-4.25,.13-1.37,.08-2.82,.13-4.34,.13-2.54,0-4.62-.18-6.24-.53-1.62-.35-2.86-1.05-3.71-2.1-.86-1.05-1.44-2.44-1.76-4.16-.32-1.72-.48-3.88-.48-6.5v-29.42h-6.69v-8.97h6.69v-14.65h13.14Z" style="fill:#fff;"/><path d="M190.13,52.77c.7-3.37,1.85-6.18,3.44-8.44,1.59-2.26,3.68-3.97,6.27-5.15,2.58-1.18,5.75-1.76,9.51-1.76,3.95-.06,7.24,.46,9.85,1.58,2.61,1.11,4.69,2.81,6.22,5.1,1.53,2.29,2.61,5.12,3.25,8.49,.64,3.37,.96,7.31,.96,11.82s-.35,8.27-1.05,11.63-1.85,6.18-3.44,8.44c-1.6,2.26-3.68,3.93-6.26,5.01-2.58,1.08-5.75,1.62-9.52,1.62-3.95,.06-7.24-.43-9.85-1.48-2.61-1.05-4.69-2.7-6.22-4.96-1.53-2.26-2.62-5.08-3.25-8.49-.64-3.4-.96-7.33-.96-11.78s.35-8.26,1.05-11.63Zm12.28,18.85c.13,2.22,.43,4.13,.92,5.72,.48,1.59,1.21,2.83,2.17,3.71,.96,.89,2.25,1.33,3.86,1.33,2.7,0,4.56-1.4,5.59-4.19,1.03-2.79,1.54-7.4,1.54-13.81s-.51-11.01-1.54-13.81c-1.03-2.79-2.89-4.19-5.59-4.19-1.61,0-2.9,.45-3.86,1.33-.97,.89-1.69,2.13-2.17,3.71-.48,1.59-.79,3.49-.92,5.71-.13,2.22-.19,4.64-.19,7.24s.06,5.02,.19,7.24Z" style="fill:#fff;"/><path d="M246.28,74.99c0,2.21,.59,4,1.76,5.35,1.17,1.36,2.87,2.04,5.09,2.04,2.03,0,3.65-.51,4.85-1.52,1.21-1.02,1.81-2.54,1.81-4.57,0-1.65-.48-2.91-1.43-3.76-.96-.86-2.07-1.54-3.34-2.05l-9.26-3.33c-3.63-1.27-6.37-3.07-8.21-5.38-1.85-2.32-2.77-5.29-2.77-8.91,0-2.1,.35-4.08,1.05-5.96,.7-1.87,1.81-3.51,3.35-4.91,1.53-1.4,3.49-2.51,5.88-3.33,2.39-.83,5.27-1.24,8.65-1.24,5.99,0,10.41,1.27,13.28,3.81,2.87,2.54,4.3,6.13,4.3,10.77v2.1h-11.87c0-2.66-.43-4.61-1.29-5.85-.86-1.24-2.36-1.86-4.52-1.86-1.65,0-3.1,.46-4.33,1.38-1.24,.92-1.86,2.3-1.86,4.15,0,1.27,.4,2.42,1.19,3.43,.8,1.02,2.31,1.87,4.54,2.57l7.92,2.67c4.14,1.4,7.06,3.23,8.78,5.48,1.72,2.26,2.58,5.32,2.58,9.2,0,2.73-.48,5.1-1.43,7.1-.96,2-2.28,3.67-3.96,5.01-1.69,1.33-3.69,2.29-6.02,2.86-2.33,.57-4.89,.86-7.69,.86-3.7,0-6.77-.35-9.22-1.05-2.45-.7-4.39-1.74-5.83-3.14-1.43-1.4-2.44-3.09-3.01-5.1-.57-2-.86-4.24-.86-6.71v-1.81h11.87v1.71Z" style="fill:#fff;"/><path d="M303.47,53.6c-.16-1.21-.44-2.31-.85-3.29s-1-1.78-1.76-2.39c-.76-.6-1.77-.91-3.04-.91-1.58,0-2.88,.37-3.89,1.09-1.01,.73-1.77,1.81-2.28,3.23-.51,1.43-.86,3.23-1.04,5.42-.19,2.19-.28,4.77-.28,7.75,0,3.17,.09,5.88,.28,8.13,.19,2.25,.54,4.11,1.04,5.56,.51,1.46,1.22,2.52,2.14,3.19,.92,.67,2.11,1,3.56,1,2.21,0,3.83-.95,4.84-2.86,1.01-1.91,1.52-4.97,1.52-9.17h12.63c0,6.75-1.51,11.9-4.53,15.44-3.02,3.54-8.02,5.31-15.01,5.31-3.3,0-6.18-.4-8.62-1.19-2.45-.79-4.48-2.22-6.1-4.29-1.62-2.06-2.84-4.83-3.67-8.29-.82-3.46-1.24-7.77-1.24-12.92s.51-9.64,1.53-13.11c1.02-3.47,2.45-6.23,4.29-8.3,1.84-2.06,4.03-3.51,6.57-4.34,2.54-.83,5.33-1.24,8.38-1.24,6.1,0,10.69,1.79,13.77,5.37,3.08,3.58,4.62,8.43,4.62,14.54h-12.63c0-1.27-.08-2.51-.24-3.72Z" style="fill:#fff;"/><path d="M335.93,38.68v6.97h.21c1.36-2.49,3-4.48,4.91-5.98,1.91-1.5,4.23-2.25,6.97-2.25,.38,0,.78,.01,1.19,.03,.41,.02,.81,.05,1.19,.09v12.76c-.7-.08-1.38-.15-2.05-.19-.67-.04-1.35-.06-2.05-.06-1.15,0-2.29,.16-3.44,.48-1.15,.32-2.2,.84-3.15,1.57-.95,.73-1.72,1.68-2.29,2.86-.57,1.18-.86,2.62-.86,4.34v30.79h-13.26V38.68h12.63Z" style="fill:#fff;"/><path d="M390.58,38.68v5.51h.19c1.46-2.41,3.1-4.15,4.92-5.2,1.81-1.05,4.06-1.57,6.73-1.57,5.41,0,9.39,2.11,11.94,6.34,2.55,4.23,3.82,11.11,3.82,20.64s-1.27,16.37-3.81,20.5c-2.54,4.13-6.51,6.2-11.91,6.2-2.48,0-4.59-.46-6.34-1.39-1.75-.92-3.32-2.41-4.72-4.45h-.25v21.37h-13.14V38.68h12.57Zm1.86,38.33c.86,2.83,2.76,4.24,5.7,4.24s4.74-1.41,5.61-4.24c.86-2.83,1.29-7.03,1.29-12.62s-.43-9.8-1.29-12.62c-.86-2.83-2.73-4.24-5.61-4.24s-4.84,1.41-5.7,4.24c-.86,2.83-1.29,7.04-1.29,12.62s.43,9.8,1.29,12.62Z" style="fill:#fff;"/><path d="M441.81,24.02v14.65h7.64v8.97h-7.64v27.82c0,2.04,.3,3.49,.91,4.35,.6,.86,1.86,1.29,3.77,1.29,.51,0,1.02-.02,1.53-.05,.51-.03,.99-.08,1.43-.14v9.18c-1.46,0-2.88,.04-4.25,.13-1.37,.08-2.82,.13-4.34,.13-2.54,0-4.62-.18-6.24-.53-1.62-.35-2.86-1.05-3.71-2.1-.86-1.05-1.45-2.44-1.76-4.16-.32-1.72-.48-3.88-.48-6.5v-29.42h-6.69v-8.97h6.69v-14.65h13.14Z" style="fill:#fff;"/><polygon points="0 68.21 12.17 80.21 51.67 40.04 12.04 0 .33 11.71 28.33 39.71 0 68.21" style="fill:#fff;"/><g><polygon points="355.6 22.98 355.6 34.68 361.81 28.68 355.6 22.98" style="fill:#fff;"/><rect x="355.6" y="38.68" width="13.14" height="51.41" style="fill:#fff;"/><polygon points="359.8 21.12 367.43 28.75 360.84 35.39 368.74 35.39 368.74 21.12 359.8 21.12" style="fill:#fff;"/></g></g><g><path d="M448.78,17.21h8.09v1.51h-3.18v8.48h-1.75v-8.48h-3.16v-1.51Z" style="fill:#fff;"/><path d="M458.34,17.21h2.46l2.76,7.83h.03l2.69-7.83h2.44v10h-1.67v-7.71h-.03l-2.77,7.71h-1.44l-2.77-7.71h-.03v7.71h-1.67v-10Z" style="fill:#fff;"/></g></svg>