<?xml version="1.0" encoding="utf-8"?>
<!-- Generator: Adobe Illustrator 25.3.1, SVG Export Plug-In . SVG Version: 6.00 Build 0)  -->
<svg version="1.1" id="Vrstva_1" xmlns="http://www.w3.org/2000/svg" xmlns:xlink="http://www.w3.org/1999/xlink" x="0px" y="0px"
	 viewBox="0 0 434.3 282.5" style="enable-background:new 0 0 434.3 282.5;" xml:space="preserve">
<style type="text/css">
	.st0{fill:#A2A9AD;}
	.st1{fill:#E30613;}
</style>
<g>
	<g>
		<polygon class="st0" points="253.52,88.72 166.17,0 112.12,0 0,112.18 9.45,121.63 68.39,62.62 93.42,88.72 		"/>
		<g>
			<path class="st1" d="M49.49,147.55l5.96-13.46l5.9-13.4l6.02,13.4l6.02,13.46H49.49z M106.69,176.87L77.5,107.97
				c-0.59-1.31-1.9-2.15-3.33-2.15H60.78c-1.44,0-2.75,0.85-3.34,2.16l-1.13,2.51l-30.26,66.37h10.65l8.55-20.22h28.91
				c2.04,0,3.89,1.2,4.72,3.06l7.65,17.15H106.69z"/>
			<path class="st1" d="M130.13,176.87c-0.99,0-1.89-0.61-2.28-1.53l-29.26-69.51h22.59l22.29,55.74l18.86-55.74h10.12l-24.43,69.49
				c-0.33,0.93-1.2,1.55-2.2,1.55H130.13z"/>
			<path class="st1" d="M189.89,176.87c-4.26,0-7.07-4.06-7.07-8.21c0-2.01,0-53.73,0-55.69c0-4.03,2.67-7.14,7.07-7.14h49.83
				l0.05,9.09h-36.12v21.57h30.04v9.1h-30.04v22.18l35.99,0l0.08,9.09C239.72,176.87,194.14,176.87,189.89,176.87z"/>
			<path class="st1" d="M266.97,176.87c-9.16,0-14.2-4.55-14.2-14.44v-42.15c0-9.89,5.04-14.44,14.2-14.44h41.3l0.11,9.09l-30.71,0
				c-3.01,0-3.99,1.05-3.99,4.24v44.37c0,3.2,0.98,4.24,3.99,4.24l30.55,0l0.05,9.09H266.97z"/>
			<path class="st1" d="M369.53,163.53c0,3.2-0.98,4.24-3.99,4.24h-20.65c-2.95,0-3.99-1.05-3.99-4.24v-22.18v-22.18
				c0-3.2,1.05-4.24,3.99-4.24h20.65c3.01,0,3.99,1.05,3.99,4.24v22.18V163.53z M376.16,105.83h-41.91c-9.22,0-14.2,4.55-14.2,14.44
				v42.16c0,9.89,4.98,14.44,14.2,14.44h41.91c9.22,0,14.26-4.55,14.26-14.44v-42.16C390.42,110.37,385.38,105.83,376.16,105.83"/>
		</g>
	</g>
	<polygon class="st0" points="182.86,194.5 269.49,282.5 323.09,282.5 434.3,171.24 424.93,161.87 366.46,220.39 341.65,194.5 	"/>
</g>
</svg>
