<?xml version="1.0" encoding="utf-8"?>
<!-- Generator: Adobe Illustrator 19.2.1, SVG Export Plug-In . SVG Version: 6.00 Build 0)  -->
<svg version="1.1" id="layer" xmlns="http://www.w3.org/2000/svg" xmlns:xlink="http://www.w3.org/1999/xlink" x="0px" y="0px"
	 viewBox="0 0 652 652" style="enable-background:new 0 0 652 652;" xml:space="preserve">
<style type="text/css">
	.st0{fill:#1D1D1B;}
</style>
<g>
	<path class="st0" d="M45.1,335c7.4,0,13-5.6,13-13s-5.5-13-13-13s-13,5.6-13,13C32.3,329.6,37.7,335,45.1,335z M71.2,322.2
		c0,14.4-10.6,25.2-25,25.2c-5.8,0-10.9-1.9-15-5.3l-1.6,4.1h-9.3v-64.8h12.9V301c3.7-2.5,8.1-3.9,13-3.9
		C60.6,297,71.2,307.7,71.2,322.2"/>
	<path class="st0" d="M87.1,316.9h23.1c-1.8-5.8-6-9-11.8-9C92.7,308.1,88.6,311.4,87.1,316.9 M122.8,325.7H86.7
		c1.1,6.5,5.5,10,11.6,10c4.4,0,8.1-2.1,10-5.5h13.6c-3.5,10.4-12.5,16.9-23.6,16.9c-14.1,0-24.7-10.9-24.7-25.2
		c0-14.3,10.6-25.2,24.7-25.2c14.6,0,24.7,11.3,24.7,25C123,323.2,123,324.5,122.8,325.7"/>
	<path class="st0" d="M173.2,298.4l-20.6,46.9c-5.6,12.9-10.7,17.8-21.3,17.8H126v-11.6h4.4c6.2,0,7.8-1.6,10.7-8.8l0.2-0.4
		l-20.3-43.9H135l12.7,29.2l11.8-29.2H173.2z"/>
	<path class="st0" d="M184.5,316.9h23.1c-1.8-5.8-6-9-11.8-9C189.9,308.1,185.9,311.4,184.5,316.9 M220.1,325.7h-35.9
		c1.1,6.5,5.5,10,11.6,10c4.4,0,8.1-2.1,10-5.5h13.6c-3.5,10.4-12.5,16.9-23.6,16.9c-14.1,0-24.7-10.9-24.7-25.2
		c0-14.3,10.6-25.2,24.7-25.2c14.6,0,24.7,11.3,24.7,25C220.4,323.2,220.2,324.5,220.1,325.7"/>
	<path class="st0" d="M254.4,298v12.2h-5.6c-7.2,0-10,3.2-10,10.9v24.7h-12.9v-47.6h8.3l2.3,5.8c3.3-4.2,7.8-6.2,13.7-6.2h4.2V298z"
		/>
	<path class="st0" d="M293,322.2c0-7.4-5.5-13-13-13c-7.4,0-13,5.6-13,13c0,7.4,5.5,13,13,13C287.5,335.2,293,329.6,293,322.2
		 M304.8,281.3v64.7h-9.5l-1.6-3.9c-4.1,3.3-9.2,5.5-15,5.5c-14.4,0-25-10.7-25-25.2s10.6-25.2,25-25.2c4.9,0,9.3,1.4,13,3.9v-19.7
		H304.8z"/>
	<path class="st0" d="M360.1,298.4l-20.6,46.9c-5.6,12.9-10.7,17.8-21.3,17.8h-5.3v-11.6h4.4c6.2,0,7.8-1.6,10.7-8.8l0.2-0.4
		l-20.1-43.9h13.9l12.7,29.2l11.8-29.2H360.1z"/>
	<path class="st0" d="M407.7,317.1v28.9h-12.9v-26.8c0-7.2-2.8-10.7-8.3-10.7c-6.7,0-10.7,4.8-10.7,12.3v25h-12.9v-47.6h8.8l2.5,5.8
		c3.5-4.2,9.3-7,15.7-7C401,297.2,407.7,305.1,407.7,317.1"/>
	<path class="st0" d="M451.7,322c0-7.4-5.5-13-13-13c-7.6,0-13,5.6-13,13s5.5,13,13,13C446.3,335,451.7,329.6,451.7,322
		 M464.2,298.2v47.6h-10l-1.1-4.2c-4.1,3.5-9.3,5.6-15.5,5.6c-14.3,0-25-10.7-25-25.2c0-14.3,10.6-25,25-25c6.2,0,11.5,2.1,15.7,5.8
		l1.4-4.6C454.7,298.2,464.2,298.2,464.2,298.2z"/>
	<path class="st0" d="M543.8,316.2v29.8H531v-27.7c0-6.3-2.5-9.7-7.2-9.7c-5.8,0-9.2,4.2-9.2,11.6v25.7h-12.5v-27.7
		c0-6.3-2.5-9.7-7-9.7c-5.8,0-9.3,4.2-9.3,11.6v25.7H473v-47.6h9l2.5,5.8c3.3-4.2,8.6-7,14.3-7c6,0,11.1,2.8,13.7,7.6
		c3.2-4.6,8.6-7.6,14.8-7.6C537,297.2,543.8,304.9,543.8,316.2"/>
</g>
<path class="st0" d="M551.9,345.9h12.9v-47.6h-12.9V345.9z M552.1,292H565v-12h-12.9V292z"/>
<g>
	<path class="st0" d="M595.8,347.4c-14.3,0-25.2-11.1-25.2-25.2c0-14.3,10.9-25,25.4-25c12.3,0,21.8,7.8,24.1,19.6h-12.9
		c-2.1-4.8-6.3-7.4-11.5-7.4c-7,0-12.2,5.6-12.2,13s5.3,13,12.2,13c5.1,0,9.3-2.8,11.5-7.9h13C618,339.1,608.1,347.4,595.8,347.4z"
		/>
</g>
</svg>
