<?xml version="1.0" encoding="utf-8"?>
<!-- Generator: Adobe Illustrator 16.0.0, SVG Export Plug-In . SVG Version: 6.00 Build 0)  -->
<!DOCTYPE svg PUBLIC "-//W3C//DTD SVG 1.1//EN" "http://www.w3.org/Graphics/SVG/1.1/DTD/svg11.dtd">
<svg version="1.1" id="Layer_1" xmlns="http://www.w3.org/2000/svg" xmlns:xlink="http://www.w3.org/1999/xlink" x="0px" y="0px"
	 width="1175px" height="395px" viewBox="0 0 1175 395" enable-background="new 0 0 1175 395" xml:space="preserve">
<g id="g10" transform="matrix(1.3333333,0,0,-1.3333333,0,139.09333)">
	<g id="g12" transform="scale(0.1)">
		<path id="path14" fill="#A63437" d="M8151.036-1843.421c-111.401,0-201.724,90.271-201.724,201.812v387.429
			c0,111.357,90.322,201.768,201.724,201.768h387.378c111.46,0,201.812-90.41,201.812-201.768v-387.429
			c0-111.541-90.352-201.812-201.812-201.812H8151.036L8151.036-1843.421"/>
		<path id="path16" fill="#F89D22" d="M8684.181-1641.61c0-80.383-65.405-145.767-145.767-145.767h-387.378
			c-80.347,0-145.708,65.383-145.708,145.767v387.429c0,80.354,65.361,145.723,145.708,145.723h387.378
			c80.361,0,145.767-65.369,145.767-145.723V-1641.61z M8538.414-996.368h-387.378c-142.148,0-257.769-115.693-257.769-257.813
			v-387.429c0-142.148,115.62-257.856,257.769-257.856h387.378c142.148,0,257.827,115.708,257.827,257.856v387.429
			C8796.241-1112.061,8680.563-996.368,8538.414-996.368"/>
		<path id="path18" fill="#DF5B2A" d="M8151.036-832.232c-111.401,0-201.724,90.33-201.724,201.753v387.426
			c0,111.434,90.322,201.724,201.724,201.724h387.378c111.46,0,201.812-90.289,201.812-201.724v-387.426
			c0-111.423-90.352-201.753-201.812-201.753H8151.036L8151.036-832.232"/>
		<path id="path20" fill="#F89D22" d="M8684.181-630.479c0-80.339-65.405-145.708-145.767-145.708h-387.378
			c-80.347,0-145.708,65.369-145.708,145.708v387.426c0,80.339,65.361,145.697,145.708,145.697h387.378
			c80.361,0,145.767-65.358,145.767-145.697V-630.479z M8538.414,14.715h-387.378c-142.148,0-257.769-115.638-257.769-257.769
			v-387.426c0-142.134,115.62-257.798,257.769-257.798h387.378c142.148,0,257.827,115.664,257.827,257.798v387.426
			C8796.241-100.924,8680.563,14.715,8538.414,14.715"/>
		<path id="path22" fill="#B85A33" d="M8151.036,176.346c-111.401,0-201.724,90.337-201.724,201.863v387.371
			c0,111.387,90.322,201.742,201.724,201.742h387.378c111.46,0,201.812-90.355,201.812-201.742V378.209
			c0-111.526-90.352-201.863-201.812-201.863H8151.036L8151.036,176.346"/>
		<path id="path24" fill="#F89D22" d="M8684.181,378.209c0-80.394-65.405-145.836-145.767-145.836h-387.378
			c-80.347,0-145.708,65.442-145.708,145.836v387.371c0,80.339,65.361,145.697,145.708,145.697h387.378
			c80.361,0,145.767-65.358,145.767-145.697V378.209z M8538.414,1023.366h-387.378c-142.148,0-257.769-115.638-257.769-257.787
			V378.209c0-142.233,115.62-257.908,257.769-257.908h387.378c142.148,0,257.827,115.675,257.827,257.908v387.371
			C8796.241,907.728,8680.563,1023.366,8538.414,1023.366"/>
		<path id="path26" fill="#211D1D" d="M420.121-643.245c-37.537-31.047-92.289-46.531-164.436-46.531H81.061v343.414h146.221
			c166.08,0,249.027-57.539,249.027-172.614C476.309-570.838,457.606-612.293,420.121-643.245z M81.061,45.03h88.187
			c155.017,0,232.54-56.188,232.54-168.523c0-111.951-76.685-167.996-230.164-167.996H81.061V45.03z M351.185-306.544
			c80.834,43.868,121.205,106.362,121.205,187.643c0,67.994-23.745,121.278-71.169,159.906
			c-47.428,38.621-117.286,57.968-209.363,57.968H16.256v-842.626h246.771c86.865,0,155.731,20.142,206.613,60.571
			c50.889,40.386,76.315,94.797,76.315,163.132C545.955-405.853,481.025-334.749,351.185-306.544"/>
		<path id="path28" fill="#211D1D" d="M629.147,98.973v-842.626h59.843V98.973H629.147L629.147,98.973"/>
		<path id="path30" fill="#211D1D" d="M1111.011-634.647c-52.222-47.82-103.605-71.719-154.219-71.719
			c-31.351,0-57.415,8.899-78.351,26.638c-20.87,17.798-31.249,39.639-31.249,65.515c0,46.15,24.932,83.972,74.916,113.687
			c49.977,29.678,112.994,43.184,188.903,40.371V-634.647z M1184.11-697.525c-8.826,0-13.26,9.463-13.26,28.374v346.436
			c0,47.095-16.263,83.049-48.871,107.875c-32.494,24.771-73.931,37.214-124.182,37.214c-56.635,0-116.396-19.662-179.092-58.938
			v-60.791c60.667,47.102,117.122,70.635,169.343,70.635c81.965,0,122.963-37.877,122.963-113.687v-70.693
			c-103.605-5.299-183.27-25.371-239.048-60.201c-55.759-34.973-83.668-82.639-83.668-143.101c0-39.192,14.447-72.488,43.279-99.88
			c28.975-27.429,64.274-41.133,106.011-41.133c57.396,0,115.25,22.925,173.427,68.877c2.406-27.781,6.222-46.274,11.433-55.313
			c5.281-8.994,14.755-13.564,28.44-13.564c23.668,0,61.154,19.182,112.159,57.627v49.314
			C1221.683-681.222,1195.382-697.525,1184.11-697.525"/>
		<path id="path32" fill="#211D1D" d="M1561.216-177.626c-78.369,0-142.852-27.711-193.257-83.137
			c-50.376-55.444-75.641-126.804-75.641-214.23c0-83.826,24.979-151.531,75.033-203.064
			c49.966-51.592,115.496-77.358,196.509-77.358c47.428,0,98.833,9.419,154.222,28.447v61.772
			c-52.167-21.577-101.935-32.329-149.293-32.329c-65.017,0-116.876,20.669-155.599,61.934
			c-38.705,41.338-58.07,97.061-58.07,167.219c0,68.961,19.365,124.969,58.118,168.124c38.782,43.158,89.118,64.702,150.996,64.702
			c42.946,0,90.992-11.737,144.06-35.27v65.687C1653.238-186.826,1604.147-177.626,1561.216-177.626L1561.216-177.626"/>
		<path id="path34" fill="#211D1D" d="M1797.125,98.973v-842.626h58.813V98.973H1797.125L1797.125,98.973"/>
		<path id="path36" fill="#211D1D" d="M2170.825-188.463l-306.021-263.95l350.424-291.24h81.149l-350.852,291.548l303.776,263.643
			H2170.825L2170.825-188.463"/>
		<path id="path38" fill="#211D1D" d="M2295.264-188.463v-555.191h58.843v389.348c47.113,79.178,102.891,118.759,167.271,118.759
			c44.399,0,79.662-16.6,106.135-49.845c26.385-33.179,39.521-80.53,39.521-142.09v-316.172h59.861v378.457
			c26.88,45.392,52.961,78.369,78.245,98.848c25.265,20.53,54.979,30.802,89.147,30.802c45.762,0,81.368-17.219,106.527-51.584
			c25.367-34.435,38.009-81.555,38.009-141.541v-314.982h58.85v340.902c0,68.002-17.644,122.468-52.961,163.55
			c-35.251,41.063-81.65,61.575-139.028,61.575c-76.286,0-140.435-44.469-192.62-133.246
			c-34.644,88.777-94.504,133.246-179.454,133.246c-72.938,0-131.979-36.222-177.041-108.582h-2.443v97.745H2295.264
			L2295.264-188.463"/>
		<path id="path40" fill="#211D1D" d="M3508.949-634.647c-52.167-47.82-103.616-71.719-154.222-71.719
			c-31.377,0-57.499,8.899-78.329,26.638c-20.911,17.798-31.333,39.639-31.333,65.515c0,46.15,25.016,83.972,75,113.687
			c49.995,29.678,112.976,43.184,188.884,40.371V-634.647z M3582.049-697.525c-8.884,0-13.279,9.463-13.279,28.374v346.436
			c0,47.095-16.315,83.049-48.864,107.875c-32.571,24.771-73.92,37.214-124.2,37.214c-56.635,0-116.371-19.662-179.026-58.938
			v-60.791c60.601,47.102,117.056,70.635,169.285,70.635c82.024,0,122.985-37.877,122.985-113.687v-70.693
			c-103.55-5.299-183.215-25.371-239.059-60.201c-55.8-34.973-83.687-82.639-83.687-143.101c0-39.192,14.465-72.488,43.363-99.88
			c28.92-27.429,64.219-41.133,105.974-41.133c57.437,0,115.184,22.925,173.408,68.877c2.395-27.781,6.2-46.274,11.451-55.313
			c5.251-8.994,14.733-13.564,28.356-13.564c23.723,0,61.135,19.182,112.233,57.627v49.314
			C3619.64-681.222,3593.273-697.525,3582.049-697.525"/>
		<path id="path42" fill="#211D1D" d="M4047.349-385.001c0-40.778-14.553-75.645-43.707-104.89
			c-29.143-29.202-63.97-43.85-104.557-43.85c-41.005,0-75.707,14.722-104.271,44.136c-28.469,29.414-42.748,65.083-42.748,106.963
			c0,40.323,14.099,74.641,42.188,102.77c28.081,28.242,62.673,42.338,103.682,42.338c41.367,0,76.564-14.403,105.707-43.242
			C4032.796-309.591,4047.349-344.326,4047.349-385.001z M4094.389-871.417c0-32.285-16.893-58.293-50.739-78.04
			c-33.853-19.783-79.417-29.656-136.707-29.656c-126.171,0-189.214,34.241-189.214,102.861
			c0,68.599,66.888,102.861,200.702,102.861C4035.755-773.39,4094.389-806.187,4094.389-871.417z M4153.269-188.463h-222.44
			c-75.927,0-134.169-18.417-174.738-55.17c-40.598-36.848-60.905-84.419-60.905-142.863c0-40.986,12.554-78.303,37.771-111.936
			c25.122-33.596,61.981-57.649,110.691-72.18v-2.358c-74.099-21.387-111.222-51.577-111.222-90.557
			c0-38.635,30.066-65.039,90.135-79.102v-2.395c-107.82-17.314-161.697-62.175-161.697-134.583
			c0-44.758,21.042-80.618,63.124-107.783c42.177-27.188,101.891-40.752,179.377-40.752c77.82,0,138.629,14.363,182.402,43.147
			c43.641,28.806,65.523,68.254,65.523,118.521c0,42.649-13.623,76.743-40.884,102.539c-27.224,25.642-80.072,40.789-158.445,45.198
			c-78.333,4.453-125.09,11.528-140.054,21.211c-15.07,9.712-22.573,22.588-22.573,38.76c0,13.652,5.823,25.833,17.501,36.255
			c11.682,10.525,40.426,21.724,86.294,33.604c45.784,11.887,82.5,24.009,110.057,36.255c27.583,12.29,51.306,31.919,71.224,58.938
			c19.852,26.99,29.821,63.549,29.821,109.904c0,51.489-25.532,100.635-76.546,147.283h125.581V-188.463"/>
		<path id="path44" fill="#211D1D" d="M4220.823,98.973V-2.091h59.832V98.973H4220.823L4220.823,98.973"/>
		<path id="path46" fill="#211D1D" d="M4220.823-188.463v-555.191h59.832v555.191H4220.823L4220.823-188.463"/>
		<path id="path48" fill="#211D1D" d="M4656.651-177.626c-78.384,0-142.837-27.711-193.286-83.137
			c-50.391-55.444-75.626-126.804-75.626-214.23c0-83.826,25.045-151.531,74.996-203.064
			c49.98-51.592,115.532-77.358,196.553-77.358c47.476,0,98.804,9.419,154.233,28.447v61.772
			c-52.148-21.577-101.909-32.329-149.282-32.329c-65.01,0-116.88,20.669-155.581,61.934
			c-38.745,41.338-58.081,97.061-58.081,167.219c0,68.961,19.365,124.969,58.125,168.124c38.73,43.158,89.106,64.702,150.996,64.702
			c42.949,0,90.981-11.737,144.038-35.27v65.687C4748.672-186.826,4699.585-177.626,4656.651-177.626L4656.651-177.626"/>
		<path id="path50" fill="#A4A6A8" d="M5315.303-646.93c-48.091-33.75-97.822-50.596-149.15-50.596
			c-66.152,0-121.245,22.324-165.322,67.046c-44.121,44.802-66.138,100.847-66.138,168.179c0,66.094,20.669,120.436,61.919,162.898
			c41.279,42.576,93.823,63.856,157.617,63.856c54.448,0,108.135-17.274,161.074-51.793V-646.93z M5315.303,98.973v-321.24
			c-58.154,29.78-112.661,44.641-163.667,44.641c-80.2,0-146.909-27.462-200.054-82.273
			c-53.145-54.818-79.673-123.435-79.673-206.078c0-81.423,26.968-149.949,80.947-205.767
			c53.936-55.854,120.19-83.672,198.779-83.672c58.564,0,113.159,18.062,163.667,54.243v-42.48h59.854V98.973H5315.303"/>
		<path id="path52" fill="#A4A6A8" d="M5604.332-278.265c33.179,28.458,72.598,42.719,118.169,42.719
			c96.27,0,154.849-54.335,175.811-162.839h-360.147C5549.019-346.724,5571.05-306.709,5604.332-278.265z M5594.883-632.933
			c-44.268,42.957-66.401,95.574-66.401,157.522c0,9.697,0.688,19.38,1.831,28.901h437.696c0,82.833-23.745,148.297-71.265,196.523
			c-47.417,48.197-105.586,72.36-174.361,72.36c-73.315,0-133.975-26.722-182.241-80.142
			c-48.34-53.353-72.422-120.725-72.422-202.145c0-85.796,26.147-156.621,78.457-212.168
			c52.28-55.613,118.374-83.335,198.428-83.335c78.853,0,149.986,24.47,213.56,73.44v66.848
			c-67.192-54.976-135.923-82.398-206.368-82.398C5691.46-697.525,5639.136-676.043,5594.883-632.933"/>
		<path id="path54" fill="#A4A6A8" d="M6212.506-177.626c-49.834,0-92.139-14.839-126.929-44.469
			c-34.863-29.641-52.31-65.636-52.31-107.886c0-29.843,9.36-56.931,28.081-81.284c18.838-24.36,59.59-49.043,122.563-73.982
			c62.944-24.939,101.675-45.681,116.221-62.043c14.414-16.282,21.621-34.16,21.621-53.452c0-28.271-11.03-51.482-32.915-69.631
			c-22.119-18.113-50.186-27.151-84.492-27.151c-50.933,0-109.189,16.875-174.902,50.969v-57.869
			c55.195-34.094,110.728-50.991,166.772-50.991c51.548,0,94.849,14.766,129.858,44.443c35.039,29.561,52.661,65.94,52.661,109.05
			c0,32.19-9.712,61.414-29.077,87.664c-19.292,26.155-60.352,51.519-123.267,76.084c-62.725,24.525-101.162,44.755-115.107,60.623
			c-14.077,15.864-20.991,33.168-20.991,52.002c0,26.558,11.455,48.798,34.321,66.877c22.954,18.018,51.079,27.092,84.404,27.092
			c45.044,0,95.728-18.988,151.978-56.909v63.68C6307.486-193.41,6258.048-177.626,6212.506-177.626L6212.506-177.626"/>
		<path id="path56" fill="#A4A6A8" d="M6472.062,98.973V-2.091h59.839V98.973H6472.062L6472.062,98.973"/>
		<path id="path58" fill="#A4A6A8" d="M6472.062-188.463v-555.191h59.839v555.191H6472.062L6472.062-188.463"/>
		<path id="path60" fill="#A4A6A8" d="M6996.109-385.001c0-40.778-14.59-75.645-43.682-104.89
			c-29.18-29.202-63.984-43.85-104.575-43.85c-40.928,0-75.674,14.722-104.18,44.136c-28.594,29.414-42.847,65.083-42.847,106.963
			c0,40.323,14.048,74.641,42.158,102.77c28.14,28.242,62.725,42.338,103.711,42.338c41.309,0,76.553-14.403,105.732-43.242
			C6981.52-309.591,6996.109-344.326,6996.109-385.001z M7043.204-871.417c0-32.285-16.89-58.293-50.757-78.04
			c-33.853-19.783-79.38-29.656-136.67-29.656c-126.196,0-189.346,34.241-189.346,102.861c0,68.599,66.973,102.861,200.728,102.861
			C6984.522-773.39,7043.204-806.187,7043.204-871.417L7043.204-871.417z M7102.076-188.463h-222.495
			c-75.879,0-134.15-18.417-174.771-55.17c-40.62-36.848-60.864-84.419-60.864-142.863c0-40.986,12.554-78.303,37.734-111.936
			c25.137-33.596,62.124-57.649,110.698-72.18v-2.358c-74.106-21.387-111.138-51.577-111.138-90.557
			c0-38.635,30.015-65.039,90.117-79.102v-2.395c-107.871-17.314-161.704-62.175-161.704-134.583
			c0-44.758,21.035-80.618,63.149-107.783c42.07-27.188,101.924-40.752,179.37-40.752c77.725,0,138.53,14.363,182.329,43.147
			c43.696,28.806,65.61,68.254,65.61,118.521c0,42.649-13.696,76.743-40.884,102.539c-27.305,25.642-80.186,40.789-158.467,45.198
			c-78.398,4.453-125.068,11.528-140.068,21.211c-15.161,9.712-22.632,22.588-22.632,38.76c0,13.652,5.947,25.833,17.52,36.255
			c11.704,10.525,40.518,21.724,86.279,33.604c45.806,11.887,82.544,24.009,110.068,36.255
			c27.583,12.29,51.313,31.919,71.265,58.938c19.819,26.99,29.824,63.549,29.824,109.904c0,51.489-25.518,100.635-76.626,147.283
			h125.684V-188.463"/>
		<path id="path62" fill="#A4A6A8" d="M7159.791-188.463v-555.191h58.799v389.348c47.505,79.178,108.076,118.759,181.67,118.759
			c100.635,0,150.908-63.981,150.908-191.935v-316.172h58.887v338.478c0,71.188-18.706,126.91-56.147,167.175
			c-37.412,40.236-87.451,60.374-150.176,60.374c-75.586,0-136.479-35.815-182.681-107.391h-2.461v96.555H7159.791L7159.791-188.463
			"/>
	</g>
</g>
</svg>
