<?xml version="1.0" encoding="utf-8"?>
<!-- Generator: Adobe Illustrator 19.2.1, SVG Export Plug-In . SVG Version: 6.00 Build 0)  -->
<svg version="1.1" id="layer" xmlns="http://www.w3.org/2000/svg" xmlns:xlink="http://www.w3.org/1999/xlink" x="0px" y="0px"
	 viewBox="0 0 652 652" style="enable-background:new 0 0 652 652;" xml:space="preserve">
<style type="text/css">
	.st0{fill:#EA5517;}
	.st1{fill-rule:evenodd;clip-rule:evenodd;fill:none;stroke:#EA5517;stroke-width:0.3159;stroke-miterlimit:10;}
	.st2{fill:#00509B;}
</style>
<g>
	<path class="st0" d="M168.6,240.6c-15,0-28.5,6.8-37.6,17.3l3.8,4.5c8.5-9.1,20.5-14.8,33.8-14.8c14.2,0,26.9,6.5,35.4,16.6
		l3.7-4.4C198.7,248.2,184.6,240.6,168.6,240.6z M168.6,220.9c-19.8,0-37.7,8.5-50.1,22.1l3,3.6c12.1-12.1,28.7-19.6,47-19.6
		c19.2,0,36.5,8.3,48.7,21.4l3-3.6C207.9,230.2,189.4,220.9,168.6,220.9z M168.6,261.3c-10,0-18.7,5.5-23.5,13.6l3,3.6
		c4.4-6.7,11.9-11.2,20.4-11.2c9.5,0,17.7,5.4,21.7,13.4l2.9-3.5C189.1,267.9,179.6,261.3,168.6,261.3L168.6,261.3z"/>
	<path class="st1" d="M168.6,240.6c-15,0-28.5,6.8-37.6,17.3l3.8,4.5c8.5-9.1,20.5-14.8,33.8-14.8c14.2,0,26.9,6.5,35.4,16.6
		l3.7-4.4C198.7,248.2,184.6,240.6,168.6,240.6L168.6,240.6z M168.6,220.9c-19.8,0-37.7,8.5-50.1,22.1l3,3.6
		c12.1-12.1,28.7-19.6,47-19.6c19.2,0,36.5,8.3,48.7,21.4l3-3.6C207.9,230.2,189.4,220.9,168.6,220.9L168.6,220.9z M168.6,261.3
		c-10,0-18.7,5.5-23.5,13.6l3,3.6c4.4-6.7,11.9-11.2,20.4-11.2c9.5,0,17.7,5.4,21.7,13.4l2.9-3.5
		C189.1,267.9,179.6,261.3,168.6,261.3L168.6,261.3z"/>
	<path class="st2" d="M90.4,422.3c-15.5,0-27-1.3-34.5-3.9c-7.5-2.6-14.2-7.1-20.2-13.5c-5.5-5.7-9.4-12.2-11.6-19.4
		c-2.3-7.2-3.4-17.4-3.4-30.5V244.5h34.9V354c0,9.7,0.4,16.5,1.3,20.5c0.9,4,2.4,7.1,4.5,9.5c3.3,3.9,7.4,6.7,12.2,8.3
		c4.8,1.6,11.5,2.5,20,2.5h41v27.5H90.4z"/>
	<polygon class="st2" points="201.2,300.6 237.3,300.6 271,387 306.8,300.6 341.4,300.6 287.4,422.3 252.8,422.3 	"/>
	<path class="st2" d="M406.4,422.3c-20.1,0-35.4-5.1-45.7-15.4c-10.3-10.3-15.5-25.4-15.5-45.4c0-20,5.2-35.2,15.6-45.5
		c10.4-10.3,25.6-15.4,45.7-15.4h46.9V326h-42.5c-11.7,0-19.5,1.6-23.5,4.9c-4,3.3-6.2,9.3-6.5,18h72.5v25.4h-72.5
		c0.3,8.7,2.3,14.7,6,17.9c3.7,3.2,11.6,4.8,23.7,4.8h42.7v25.4H406.4z"/>
	<path class="st0" d="M511.3,244.5v111.3c0,15.5,2.8,26.3,8.4,32.4c5.6,6.1,15.2,9.2,28.9,9.2c13.7,0,23.3-3,28.9-9.1
		c5.6-6.1,8.3-16.9,8.3-32.5V244.5h34.9v112.2c0,11.7-0.8,21.1-2.3,28.1c-1.5,7-4,12.5-7.4,16.6c-6.6,7.8-14.9,13.6-25,17.3
		c-10,3.7-22.5,5.5-37.4,5.5c-14.9,0-27.4-1.8-37.5-5.5c-10.1-3.7-18.5-9.4-25.1-17.3c-3.3-4-5.7-9.3-7.2-16.1
		c-1.5-6.8-2.3-16.3-2.3-28.5V244.5H511.3z"/>
	<path class="st0" d="M182.6,290c0,7.5-6.1,13.7-13.6,13.7c-7.5,0-13.6-6.1-13.6-13.7c0-7.5,6.1-13.6,13.6-13.6
		C176.5,276.3,182.6,282.5,182.6,290L182.6,290z"/>
	<path class="st2" d="M185.6,300.6c-3.3,5.9-9.7,9.8-16.9,9.8c-6.8,0-12.8-3.5-16.3-8.8v120.8l33.2-0.1V300.6z"/>
</g>
</svg>
