<?xml version="1.0" encoding="utf-8"?>
<!-- Generator: Adobe Illustrator 17.0.0, SVG Export Plug-In . SVG Version: 6.00 Build 0)  -->
<!DOCTYPE svg PUBLIC "-//W3C//DTD SVG 1.1//EN" "http://www.w3.org/Graphics/SVG/1.1/DTD/svg11.dtd">
<svg version="1.1" id="Layer_1" xmlns="http://www.w3.org/2000/svg" xmlns:xlink="http://www.w3.org/1999/xlink" x="0px" y="0px"
	 width="955px" height="274px" viewBox="0 0 955 274" enable-background="new 0 0 955 274" xml:space="preserve">
<g>
	<path d="M203.5,7c0.91,0,2.72,0,3.62,0c0,84.13,0.01,168.25,0,252.37c-0.9,0.01-2.71,0.01-3.62,0.01
		C203.5,175.25,203.5,91.13,203.5,7z"/>
	<g>
		<path d="M59.53,15.78c12.83-1.99,25.94,1.33,37.27,7.35c15.61,8.27,28.49,20.91,39.11,34.88c20.39,27.22,32.94,59.93,37.87,93.48
			c3.44,25.18,2.67,51.62-6.69,75.52c-6.02,15.21-16.58,29.62-32.01,36.19c-15.13,6.7-32.84,4.26-47.27-3.1
			c-21.84-11.06-38.46-30.2-51.05-50.82c-18.55-31.09-29.02-67.1-29.52-103.32c-0.02-22.36,3.75-45.57,15.8-64.79
			C31.06,28.23,44.21,17.98,59.53,15.78z"/>
	</g>
	<path d="M234.88,83.13c13.58,0,27.16-0.02,40.74,0.01c15.91,22.4,31.83,44.8,47.75,67.21c0.02-22.41,0-44.82,0.01-67.22
		c10.37,0,20.75-0.01,31.12,0c0,39.25,0,78.49,0,117.74c-10.55-0.01-21.11,0.03-31.66,0c-1.46,0.32-1.98-1.3-2.71-2.16
		c-17.94-26.12-36-52.16-53.99-78.25c-0.03,26.8-0.01,53.61-0.02,80.41c-10.41,0.01-20.83,0.01-31.24,0
		C234.87,161.62,234.87,122.38,234.88,83.13z"/>
	<path d="M603,83.12c38.46,0.01,76.92,0,115.38,0.01c0,7.62-0.01,15.24,0,22.87c-13.59,0-27.17,0-40.76,0
		c0,31.62,0,63.25,0.01,94.87c-11.3,0.01-22.59,0-33.88,0c0-31.62,0-63.24,0-94.87c-13.58-0.01-27.17,0-40.75,0
		C603,98.37,602.99,90.75,603,83.12z"/>
	<path d="M802.62,83.13c10.63-0.01,21.25,0,31.88,0c0,22.52,0,45.04,0,67.56c11.18-12.98,22.35-25.97,33.54-38.94
		c12.27,0.01,24.55-0.01,36.83,0c-11.78,12.81-23.58,25.6-35.34,38.43c12.69,16.89,25.36,33.79,38.02,50.7
		c-12.31-0.04-24.61,0.06-36.91-0.06c-9.12-12.93-18.37-25.78-27.54-38.68c-2.88,3.17-5.73,6.35-8.59,9.53
		c-0.03,9.73-0.01,19.47-0.01,29.2c-10.63,0-21.25,0.01-31.88,0C802.62,161.62,802.62,122.38,802.62,83.13z"/>
	<g>
		<path d="M379.11,119.16c10.98-7.68,24.71-10.07,37.87-10.03c10.31,0.12,21,1.53,30.04,6.81c8.13,4.73,13.96,12.97,16.13,22.08
			c2.03,7.66,1.55,15.64,1.59,23.48c-24.17,0.02-48.35-0.05-72.52,0.04c0.37,8.79,6.55,16.59,14.91,19.19
			c17.15,5.55,36.46,2.06,51.59-7.37c1.22-0.79,2.77-0.38,4.15-0.54c0.01,7.74,0,15.48,0,23.22c-19,7.21-39.9,8.86-59.93,5.78
			c-12.56-2.06-25.47-7.04-33.61-17.26c-8.61-10.64-10.23-25.36-7.8-38.45C363.51,135.24,370.01,125.38,379.11,119.16z
			 M398.48,131.53c-4.21,3.08-5.81,8.36-6.3,13.33c13.61,0.03,27.22,0.02,40.84,0.01c-0.15-6.52-2.79-13.96-9.49-16.26
			C415.4,125.89,405.54,126.27,398.48,131.53z"/>
	</g>
	<g>
		<path d="M708.5,118.53c11.28-7.52,25.25-9.6,38.57-9.37c10.78,0.26,22.06,2.13,31.05,8.48c7.09,5,11.9,12.85,13.76,21.28
			c1.77,7.39,1.32,15.04,1.37,22.58c-24.2,0.01-48.4-0.02-72.61,0.01c0.43,8.76,6.57,16.53,14.88,19.19
			c16.93,5.51,36.04,2.21,51.09-6.99c1.38-1.14,3.22-0.76,4.88-0.9c0.01,7.74,0,15.47,0.01,23.2c-18.9,7.15-39.64,8.87-59.56,5.91
			c-12.83-2.03-26.01-7.11-34.3-17.57c-8.51-10.62-10.04-25.25-7.63-38.27C692.03,134.84,698.96,124.74,708.5,118.53z
			 M727.26,131.29c-4.38,3.06-6.15,8.47-6.63,13.57c13.62,0.02,27.23,0.02,40.84,0c-0.02-6.65-3.01-14.19-9.85-16.39
			C743.69,125.98,734.18,126.29,727.26,131.29z"/>
	</g>
	<path d="M458.31,111.76c11.07-0.02,22.14,0,33.21-0.01c5.63,20.37,11.29,40.73,16.89,61.11c7.1-20.36,14.17-40.74,21.26-61.11
		c9.44,0,18.88,0,28.32,0c6.65,20.34,13.29,40.69,20,61.02c5.56-20.33,11.01-40.69,16.56-61.03c10.91,0.02,21.81,0,32.72,0.01
		c-10.2,29.72-20.47,59.41-30.7,89.12c-11.21,0.01-22.42,0-33.63,0c-6.74-19.92-13.48-39.85-20.18-59.78
		c-6.76,19.9-13.35,39.86-20.07,59.78c-11.34,0-22.67,0.01-34.01,0C478.59,171.15,468.42,141.46,458.31,111.76z"/>
	<path d="M915.89,112.26c4.3-0.04,8.61-0.01,12.92,0.16c-0.03,0.46-0.08,1.38-0.11,1.83c-1.79,0-3.56,0-5.33,0
		c0.01,4.75,0,9.49,0.01,14.24c-0.57,0-1.69,0.01-2.25,0.02c-0.01-4.75-0.01-9.51-0.01-14.26c-1.77,0-3.54,0-5.29,0
		C915.85,113.75,915.87,112.76,915.89,112.26z"/>
	<path d="M930.5,112.37c0.99,0,2,0.01,3.02,0.01c1.66,4.43,3.29,8.86,4.95,13.28c1.66-4.43,3.37-8.85,5.02-13.28c0.99,0,2,0,3.01,0
		c-0.01,5.37,0,10.74,0,16.12l-2.12,0.01c-0.01-4.34-0.01-8.67,0-13c-1.73,4.25-3.14,8.62-4.96,12.83c-0.47,0.07-1.41,0.23-1.88,0.3
		c-1.64-4.38-3.24-8.77-4.92-13.13c-0.01,4.33,0.01,8.66,0,13c-0.57,0-1.69-0.01-2.25-0.01
		C930.36,123.12,930.58,117.75,930.5,112.37z"/>
</g>
<g>
	<path fill="#199AD6" d="M27,56.89c14.79,0.89,29.59,1.78,44.39,2.67c15.3,18.72,30.6,37.45,45.93,56.15
		c-4.42-18-8.89-35.98-13.32-53.98c10.56,0.75,21.13,1.45,31.69,2.2c10.05,40.78,20.19,81.53,30.22,122.32
		c-9.01,5.1-18.01,10.23-27.02,15.31c-14.88-16.5-29.69-33.06-44.58-49.55c5.31,21.86,10.84,43.65,16.1,65.52
		c-12.85,7-25.64,14.1-38.47,21.14C56.95,178.08,41.95,117.49,27,56.89z"/>
</g>
</svg>
