<svg xmlns="http://www.w3.org/2000/svg" viewBox="0 0 354.01 114.7"><title>Sony logo</title><path d="M652.67,479.37l11.06-11.8h0a3.75,3.75,0,0,0,1-2c0-.87-.75-1.21-3.09-1.21h-2.79v-7.45H689v7.45h-4c-4.58,0-5.43.69-11.82,8.75h0L655.72,492v11.53h0c0,2.95,1.49,4,5.75,4h6.6v7.19H625.79v-7.19h6.61c4.26,0,5.75-1,5.75-4h0V492l-20.6-22.79h0c-3.41-4-2.94-4.85-12.41-4.85h0v-7.45h38.25v7.45h-2.72c-2.77,0-3.94.52-3.94,1.56,0,.87.85,1.56,1.39,2.25h0l10.42,11.36h0c1.23,1.29,2.74,1.46,4.15-.16Z" transform="translate(-335 -454.65)" style="fill:#231f20;fill-rule:evenodd"/><path d="M396.08,456.91h9.22V477.7h-8.52c-.75-4.16-3.35-5.77-5.73-8-4.28-3.93-13.55-7.21-21.34-7.21-10.06,0-18.55,3.12-18.55,7.71,0,12.74,57.54,2.6,57.54,26.69,0,12.56-12.33,19.58-34.46,19.58-7.66,0-19.26-2.38-26.1-6-2.15-1.24-3.06,1.17-3.46,4.19h-9.46V493.21h8.55c1.89,5.46,4.49,6.58,6.88,8.75,4.15,3.81,14,6.59,23.08,6.5,13.65-.13,18.35-3.12,18.35-7.45s-4.64-5.37-19.61-7.71h0l-12.7-2.08h0c-14.34-2.17-24.78-5.37-24.78-16.81,0-11.87,13.21-19.32,34.08-19.32,8.8,0,16.16,1.18,23.22,5.17,2,1.27,3.8,1.42,3.77-3.35Z" transform="translate(-335 -454.65)" style="fill:#231f20;fill-rule:evenodd"/><path d="M576.11,491.72l.18-23.11h0c0-3-1.58-4.07-6.09-4.07h-5.3v-7.19h33.7v7.19h-4.39c-4.51,0-6.09,1-6.09,4.07h0v46.53l-13.19-.1-42.71-40.45V504h0c0,2.95,1.58,4.07,6.09,4.07h5.86v7.11h-35V508H515c4.51,0,6.09-1.12,6.09-4.07h0V468.61h0c0-3-1.58-4.07-6.09-4.07h-5.8v-7.19h30.26l36.67,34.37Z" transform="translate(-335 -454.65)" style="fill:#231f20;fill-rule:evenodd"/><path d="M463.24,454.65c-26.86,0-43.66,11.87-43.66,30.93,0,18.72,16.58,30.5,42.85,30.5,27.9,0,44.13-11.61,44.13-31.45,0-17.85-17.51-30-43.31-30Zm-.61,53.89c-14.87,0-23.41-8.58-23.41-23.39,0-14.47,8.92-23,24.15-23,14.62,0,23.16,8.75,23.16,23.66,0,14.56-8.67,22.79-23.9,22.79Z" transform="translate(-335 -454.65)" style="fill:#231f20;fill-rule:evenodd"/><path d="M376.81,538.67c-4.49,0-8,2.12-10.32,6.31a12.06,12.06,0,0,0-3.87-4.32,11,11,0,0,0-12-.41,10.16,10.16,0,0,0-3.06,2.58v-3.64h-2.54v29.33h2.54V549.86a8.58,8.58,0,0,1,2.52-6.27,8.49,8.49,0,0,1,6.24-2.53,8.34,8.34,0,0,1,6.32,3,9.74,9.74,0,0,1,2.76,6.77v17.73h2.49V550.64a9.88,9.88,0,0,1,2.45-7,8.4,8.4,0,0,1,6.44-2.64,7.94,7.94,0,0,1,6.6,3,12.73,12.73,0,0,1,2.43,8.18v16.3h2.43V552c0-4.08-1-7.36-3-9.74A10.54,10.54,0,0,0,376.81,538.67Z" transform="translate(-335 -454.65)" style="fill:#231f20"/><path d="M417.79,545.77c-2.86-4.73-7.29-7.13-13.19-7.13a14.29,14.29,0,0,0-10.55,4.63A15,15,0,0,0,389.57,554a14.45,14.45,0,0,0,4.68,10.78,15.73,15.73,0,0,0,11.23,4.46,13.9,13.9,0,0,0,7.94-2.54,14.75,14.75,0,0,0,4.32-4.48c0,.63,0,1.31,0,2v1.86a10.08,10.08,0,0,0,.08,1.24v1.12h2.49V539.35h-2.49Zm-3.7-.92a12.63,12.63,0,0,1,3.78,9.26,12.2,12.2,0,0,1-3.79,9,13,13,0,0,1-18.21,0,12.33,12.33,0,0,1-3.76-9.05,12.69,12.69,0,0,1,3.74-9.15,12.17,12.17,0,0,1,9-3.82A12.65,12.65,0,0,1,414.1,544.85Z" transform="translate(-335 -454.65)" style="fill:#231f20"/><path d="M445.35,539.27h-3.16l-14.57,19.3v-30.2h-2.68v40.16h2.68v-5.74L433,555.6c4.41,5.29,7.76,9.56,10,12.71l.14.2h3.38l-11.72-15Z" transform="translate(-335 -454.65)" style="fill:#231f20"/><path d="M477.75,554a15.25,15.25,0,0,0-4.55-10.81,14.42,14.42,0,0,0-10.59-4.54,15.56,15.56,0,0,0-10.92,4.38,13.78,13.78,0,0,0-4.7,10.35,15.62,15.62,0,0,0,4.46,11.4,15.31,15.31,0,0,0,11.33,4.52,13.92,13.92,0,0,0,8.06-2.57,17,17,0,0,0,5.71-6.88l.32-.68h-2.54l-.14.21a19,19,0,0,1-5.31,5.64,14.48,14.48,0,0,1-7.48,1.66,11.2,11.2,0,0,1-7.66-3.18,12,12,0,0,1-4-7.44q-.11-1-.17-1.58h28.23ZM462.5,541.13a12.1,12.1,0,0,1,8.42,3.34,12.74,12.74,0,0,1,4.11,7.62H449.58a14.33,14.33,0,0,1,4.43-7.82A12.4,12.4,0,0,1,462.5,541.13Z" transform="translate(-335 -454.65)" style="fill:#231f20"/><path d="M517.67,538.51a15.4,15.4,0,0,0-12.82,6.88l.15-17.17h-2.74v40.24h2.57V562.4a14.15,14.15,0,0,0,4.51,4.44,14.71,14.71,0,0,0,8,2.45,15.53,15.53,0,0,0,11-4.43A14.15,14.15,0,0,0,533,554.29a15.54,15.54,0,0,0-4.47-11.16A14.64,14.64,0,0,0,517.67,538.51ZM530.46,554a11.9,11.9,0,0,1-3.83,9.13,14,14,0,0,1-9.84,3.55,11.15,11.15,0,0,1-8.34-3.85,12.76,12.76,0,0,1,.15-17.95,12.7,12.7,0,0,1,18.12,0A12.6,12.6,0,0,1,530.46,554Z" transform="translate(-335 -454.65)" style="fill:#231f20"/><path d="M565.46,554a15.24,15.24,0,0,0-4.55-10.81,14.42,14.42,0,0,0-10.58-4.54,15.57,15.57,0,0,0-10.92,4.38,13.79,13.79,0,0,0-4.7,10.35,15.62,15.62,0,0,0,4.46,11.4,15.31,15.31,0,0,0,11.33,4.52,13.91,13.91,0,0,0,8.06-2.57,17,17,0,0,0,5.71-6.88l.32-.68H562l-.14.21a19,19,0,0,1-5.31,5.64,14.48,14.48,0,0,1-7.48,1.66,11.21,11.21,0,0,1-7.66-3.18,12,12,0,0,1-4-7.44q-.11-1-.16-1.58h28.23Zm-15.24-12.91a12.1,12.1,0,0,1,8.41,3.34,12.73,12.73,0,0,1,4.12,7.62H537.29a14.35,14.35,0,0,1,4.43-7.82A12.41,12.41,0,0,1,550.21,541.13Z" transform="translate(-335 -454.65)" style="fill:#231f20"/><rect x="234.07" y="73.76" width="2.54" height="40.05" style="fill:#231f20"/><rect x="241.04" y="84.67" width="2.54" height="29.14" style="fill:#231f20"/><rect x="241.04" y="73.81" width="2.54" height="5.54" style="fill:#231f20"/><path d="M612.88,554a15.26,15.26,0,0,0-4.55-10.8,14.42,14.42,0,0,0-10.58-4.54,15.57,15.57,0,0,0-10.92,4.38,13.79,13.79,0,0,0-4.7,10.35,15.62,15.62,0,0,0,4.46,11.4,15.31,15.31,0,0,0,11.33,4.52,13.91,13.91,0,0,0,8.06-2.57,17,17,0,0,0,5.71-6.88l.32-.68h-2.53l-.14.21a19,19,0,0,1-5.31,5.64,14.48,14.48,0,0,1-7.48,1.66,11.21,11.21,0,0,1-7.66-3.18,12,12,0,0,1-4-7.44q-.11-1-.16-1.58h28.23Zm-15.24-12.91a12.1,12.1,0,0,1,8.41,3.34,12.73,12.73,0,0,1,4.11,7.62H584.72a14.3,14.3,0,0,1,4.43-7.82A12.41,12.41,0,0,1,597.64,541.13Z" transform="translate(-335 -454.65)" style="fill:#231f20"/><polygon points="289.91 110.47 279.5 84.54 276.73 84.54 288.56 113.7 291.17 113.7 303.26 84.77 300.73 84.5 289.91 110.47" style="fill:#231f20"/><path d="M666.39,559.43a19,19,0,0,1-5.31,5.64,14.48,14.48,0,0,1-7.48,1.66,11.2,11.2,0,0,1-7.66-3.18,12,12,0,0,1-4-7.44c-.07-.66-.13-1.19-.16-1.58H670V554a15.23,15.23,0,0,0-4.55-10.81,14.42,14.42,0,0,0-10.58-4.54,15.58,15.58,0,0,0-10.92,4.38,13.79,13.79,0,0,0-4.7,10.35,15.63,15.63,0,0,0,4.46,11.4A15.32,15.32,0,0,0,655,569.35a13.93,13.93,0,0,0,8.06-2.57,17,17,0,0,0,5.71-6.88l.32-.68h-2.54Zm-11.68-18.3a12.1,12.1,0,0,1,8.42,3.34,12.74,12.74,0,0,1,4.11,7.62H641.8a14.31,14.31,0,0,1,4.43-7.82A12.41,12.41,0,0,1,654.72,541.13Z" transform="translate(-335 -454.65)" style="fill:#231f20"/><circle cx="153.01" cy="109.8" r="4.9"/></svg>