<svg id="Layer_3" data-name="Layer 3" xmlns="http://www.w3.org/2000/svg" viewBox="0 0 224.25 49.61"><path d="M189.82,56.25c-1,2.13-3.9,3.14-6.42,3.14H167.3q-6.83-.35-9.16-1.91-3.64-2.55-4.26-9.39a35,35,0,0,1,.33-8.2,43.51,43.51,0,0,1,2.18-8.47A28,28,0,0,1,160,24.55a10.11,10.11,0,0,1,4.41-3.69c3.52-1.32,8.93-1.18,12.83-1.18,4.21,0,10.28-.2,14.34,1.18,3.11,1.12,4.85,3.83,5.24,8.16a34.55,34.55,0,0,1-.51,7.28c-.34,2-.76,3.48-1,4.42S194,42,191.7,42H166.46a19.77,19.77,0,0,0-.43,6.24c.26,2.8,2.76,3.21,6.06,3.21h19.73a46.93,46.93,0,0,1-2,4.78ZM168,35.65h17.19a19.62,19.62,0,0,0,.58-4.49c-.27-3-2.89-4.51-7.83-4.51a12.87,12.87,0,0,0-4.82.74c-2.76,1.14-3.22,2.7-3.85,4.31-.44,1.2-.8,2.32-1.27,3.94Z" transform="translate(-15.38 -9.97)" style="fill:#3084c6"/><path d="M124.21,27.9c.38-2.16,1.23-6.82,1.52-8.28h5c1.4-.08,2-.33,2.26-.78,1.76-2.52,3.34-4.85,4.52-6.5h7.08c-.38,2.43-.79,4.86-1.19,7.29h13.89c-.29,1.66-.71,3.85-1.22,6.46a2.66,2.66,0,0,1-1.5,1.48,12.15,12.15,0,0,1-3.54.34c-4.15,0-6.35,0-7.56.05-1.83,0-1.94.53-2.25,2q-1.91,9.4-3.81,18.8a2.32,2.32,0,0,0,2.33,2.84h11.72c-.28,1.44-.84,4.25-1.25,5.91-.27,1.26-1.89,1.93-3.77,2l-20,0c-1.79,0-3.86-1.54-3.5-3.13,1.76-9.53,3.62-19,5.46-28.55Z" transform="translate(-15.38 -9.97)" style="fill:#3084c6"/><path d="M94.8,19.5A4,4,0,0,1,98,21.12c.41.57,1.62.75,2.73-.12a6.15,6.15,0,0,1,3.88-1.5h9.46A11.25,11.25,0,0,1,119.74,21a5.89,5.89,0,0,1,2.8,4.46,10.34,10.34,0,0,1-.3,2.83c-2.18,10.35-4.48,20.72-6.34,31.13H105.83a2.61,2.61,0,0,1-1.7-.8,1.72,1.72,0,0,1-.32-1.79c1.76-8.58,3.44-17.17,5.2-25.76a3.32,3.32,0,0,0-.84-2.54c-.52-.6-2.15-.91-4.89-.91a13.68,13.68,0,0,0-4.52.67A2.72,2.72,0,0,0,97,30.54c-2.14,8.87-4.32,19.29-6.52,28.92-3.08,0-6.45,0-9.57-.07a4.69,4.69,0,0,1-2.21-.49,2,2,0,0,1-1.12-2C80.15,44.43,83,32,85.65,19.5c2.93-.08,5.67,0,9.15,0Z" transform="translate(-15.38 -9.97)" style="fill:#3084c6"/><path d="M211.87,19.5a4,4,0,0,1,3.24,1.62c.4.57,1.61.75,2.72-.12a6.17,6.17,0,0,1,3.88-1.5h9.46A11.22,11.22,0,0,1,236.81,21a5.9,5.9,0,0,1,2.81,4.46,10.34,10.34,0,0,1-.3,2.83C237.13,38.61,234.84,49,233,59.39H222.9a2.64,2.64,0,0,1-1.7-.8,1.74,1.74,0,0,1-.31-1.79c1.76-8.58,3.43-17.17,5.19-25.76a3.32,3.32,0,0,0-.83-2.54c-.52-.6-2.15-.91-4.89-.91a13.63,13.63,0,0,0-4.52.67,2.73,2.73,0,0,0-1.8,2.28c-2.13,8.87-4.31,19.29-6.51,28.92-3.08,0-6.46,0-9.58-.07a4.69,4.69,0,0,1-2.21-.49,2,2,0,0,1-1.11-2c2.6-12.49,5.42-24.94,8.09-37.42,2.94-.08,5.67,0,9.15,0Z" transform="translate(-15.38 -9.97)" style="fill:#3084c6"/><path d="M69,15.73c.15-1.92.75-4.32,1-5.62H79c2.4,0,3.24.28,3,2-.35,1.88-.65,3.45-1,5.15h-9c-2.07,0-3.2,0-3.08-1.49Z" transform="translate(-15.38 -9.97)" style="fill:#3084c6"/><path d="M77.49,19.81A2.24,2.24,0,0,1,80,22.22C77.59,34.61,75.21,47,72.64,59.38h-8.8c-2.06,0-3.12-1.46-2.88-2.71,2.31-12.3,4.86-24.56,7.32-36.84,3,0,5,0,9.21,0Z" transform="translate(-15.38 -9.97)" style="fill:#3084c6"/><path d="M27.48,10c1.38,0,1.75.78,1.93,1.8C30.83,22.52,32.16,33.27,33.54,44,40.66,32.66,47.87,21.35,54.94,10c1.46,0,7.8,0,10.48,0s2.55,1.94,2.26,2.41c-9.83,15.71-19.83,31.35-29.8,47H25.19c-1.59,0-3.55-.64-3.77-2.1q-3-23.65-6-47.3c1.73,0,7.87,0,12.1,0Z" transform="translate(-15.38 -9.97)" style="fill:#3084c6"/></svg>