<svg width="211" height="48" viewBox="0 0 211 48" fill="none" xmlns="http://www.w3.org/2000/svg">
<g clip-path="url(#clip0_375_111)">
<path d="M27.977 48L25.2609 43.2704L47.7128 4.72956H38.9035L23.5672 30.9736L20.8614 35.6226L0 0L19.7254 0.0100629L25.1783 9.38868L22.4725 14.0377L17.0506 4.72956H8.2413L20.7788 26.244L36.1047 0H55.8508L27.977 48Z" fill="#1E3EF9"/>
<path fill-rule="evenodd" clip-rule="evenodd" d="M203.544 11.8641L193.33 21.1924V11.8641H188.352V35.6327H193.319V24.1912L204.483 35.673H211L197.946 22.4L209.833 11.8641H203.544ZM156.409 11.8641H151.442V35.6528H156.409V11.8641ZM131.097 11.8641L131.055 31.3358H145.958L145.059 35.6629H126.119L126.17 11.8943L131.097 11.8641ZM117.877 22.5308C116.803 22.0277 115.647 21.7258 114.459 21.6453L109.006 21.1421C108.397 21.1019 107.788 20.9912 107.199 20.8201C106.817 20.7094 106.476 20.5182 106.166 20.2767C105.939 20.0654 105.774 19.7937 105.701 19.4918C105.619 19.1597 105.588 18.8176 105.588 18.4855C105.546 18.0931 105.608 17.7006 105.774 17.3484C105.939 16.9962 106.197 16.6843 106.528 16.4629C107.571 16 108.717 15.7987 109.853 15.8994H116.225L119.695 15.9799L120.542 12.0151C118.507 11.9145 116.679 11.9145 115.058 11.9145H110.369C107.023 11.9145 104.617 12.4981 103.151 13.6654C102.428 14.2491 101.849 14.9937 101.457 15.8289C101.075 16.6641 100.899 17.5799 100.94 18.5057V19.3308C100.94 20.0654 101.064 20.7899 101.292 21.4843C101.529 22.1786 101.901 22.8226 102.386 23.3761C102.934 23.9597 103.605 24.4327 104.348 24.7547C105.278 25.1572 106.28 25.3887 107.302 25.4491L112.931 25.9623C113.54 25.9924 114.129 26.1132 114.707 26.3044C115.089 26.4352 115.43 26.6465 115.719 26.9182C115.946 27.1597 116.111 27.4516 116.184 27.7736C116.266 28.1057 116.308 28.4478 116.297 28.8C116.297 29.9572 115.967 30.7321 115.285 31.1346C114.614 31.527 113.375 31.7182 111.557 31.7182H106.827C105.082 31.6981 103.357 31.678 101.674 31.6377L100.827 35.6126L106.424 35.6931H111.32C114.635 35.6931 117.093 35.0893 118.693 33.8918C119.478 33.2981 120.108 32.5333 120.521 31.6579C120.934 30.7824 121.131 29.8163 121.089 28.8503V28.2063C121.089 27.5119 120.996 26.8075 120.831 26.1333C120.656 25.4088 120.335 24.7245 119.871 24.1207C119.334 23.4566 118.642 22.9132 117.846 22.5509L117.877 22.5308ZM67.304 11.8641L73.9342 30.4201L80.8123 11.8641H85.945L76.4747 35.673H71.2387L61.8407 11.8843H67.304V11.8641ZM90.644 11.8641H95.6115L95.5598 35.673H90.5923L90.644 11.8641ZM161.676 35.6629V19.0692C161.676 16.3421 162.544 14.3899 164.268 13.2126C166.003 12.0352 168.709 11.4516 172.396 11.4616C176.052 11.4616 178.747 12.0553 180.482 13.2428C182.207 14.4302 183.064 16.3723 183.044 19.0692V35.6629H178.148V20.0352C178.148 19.3711 178.107 18.6969 178.014 18.0327C177.932 17.4893 177.684 16.9761 177.302 16.5736C176.826 16.1308 176.227 15.8189 175.577 15.688C173.449 15.2956 171.27 15.2956 169.153 15.688C168.513 15.8088 167.914 16.1107 167.439 16.5434C167.057 16.9459 166.809 17.4491 166.726 17.9924C166.623 18.6566 166.571 19.3208 166.582 19.995V35.6226L161.686 35.6528L161.676 35.6629Z" fill="white"/>
</g>
<defs>
<clipPath id="clip0_375_111">
<rect width="211" height="48" fill="white"/>
</clipPath>
</defs>
</svg>
